<?xml version="1.0" encoding="utf-8" standalone="no"?>
<!DOCTYPE svg PUBLIC "-//W3C//DTD SVG 1.1//EN"
  "http://www.w3.org/Graphics/SVG/1.1/DTD/svg11.dtd">
<svg xmlns:xlink="http://www.w3.org/1999/xlink" width="396.828125pt" height="562.397188pt" viewBox="0 0 396.828125 562.397188" xmlns="http://www.w3.org/2000/svg" version="1.1">
 <metadata>
  <rdf:RDF xmlns:dc="http://purl.org/dc/elements/1.1/" xmlns:cc="http://creativecommons.org/ns#" xmlns:rdf="http://www.w3.org/1999/02/22-rdf-syntax-ns#">
   <cc:Work>
    <dc:type rdf:resource="http://purl.org/dc/dcmitype/StillImage"/>
    <dc:date>2022-10-02T11:01:26.478668</dc:date>
    <dc:format>image/svg+xml</dc:format>
    <dc:creator>
     <cc:Agent>
      <dc:title>Matplotlib v3.5.2, https://matplotlib.org/</dc:title>
     </cc:Agent>
    </dc:creator>
   </cc:Work>
  </rdf:RDF>
 </metadata>
 <defs>
  <style type="text/css">*{stroke-linejoin: round; stroke-linecap: butt}</style>
 </defs>
 <g id="figure_1">
  <g id="patch_1">
   <path d="M 0 562.397188 
L 396.828125 562.397188 
L 396.828125 0 
L 0 0 
z
" style="fill: #ffffff"/>
  </g>
  <g id="axes_1">
   <g id="patch_2">
    <path d="M 44.028125 154.420954 
L 389.628125 154.420954 
L 389.628125 21.789375 
L 44.028125 21.789375 
z
" style="fill: #e6e6e6"/>
   </g>
   <g id="matplotlib.axis_1">
    <g id="xtick_1">
     <g id="line2d_1">
      <path d="M 59.737216 154.420954 
L 59.737216 21.789375 
" clip-path="url(#p7f067597da)" style="fill: none; stroke: #ffffff; stroke-width: 0.8; stroke-linecap: round"/>
     </g>
     <g id="text_1">
      <!-- 0 -->
      <g style="fill: #262626" transform="translate(56.956747 168.578766)scale(0.1 -0.1)">
       <defs>
        <path id="ArialMT-30" d="M 266 2259 
Q 266 3072 433 3567 
Q 600 4063 929 4331 
Q 1259 4600 1759 4600 
Q 2128 4600 2406 4451 
Q 2684 4303 2865 4023 
Q 3047 3744 3150 3342 
Q 3253 2941 3253 2259 
Q 3253 1453 3087 958 
Q 2922 463 2592 192 
Q 2263 -78 1759 -78 
Q 1097 -78 719 397 
Q 266 969 266 2259 
z
M 844 2259 
Q 844 1131 1108 757 
Q 1372 384 1759 384 
Q 2147 384 2411 759 
Q 2675 1134 2675 2259 
Q 2675 3391 2411 3762 
Q 2147 4134 1753 4134 
Q 1366 4134 1134 3806 
Q 844 3388 844 2259 
z
" transform="scale(0.015625)"/>
       </defs>
       <use xlink:href="#ArialMT-30"/>
      </g>
     </g>
    </g>
    <g id="xtick_2">
     <g id="line2d_2">
      <path d="M 112.100852 154.420954 
L 112.100852 21.789375 
" clip-path="url(#p7f067597da)" style="fill: none; stroke: #ffffff; stroke-width: 0.8; stroke-linecap: round"/>
     </g>
     <g id="text_2">
      <!-- 5 -->
      <g style="fill: #262626" transform="translate(109.320384 168.578766)scale(0.1 -0.1)">
       <defs>
        <path id="ArialMT-35" d="M 266 1200 
L 856 1250 
Q 922 819 1161 601 
Q 1400 384 1738 384 
Q 2144 384 2425 690 
Q 2706 997 2706 1503 
Q 2706 1984 2436 2262 
Q 2166 2541 1728 2541 
Q 1456 2541 1237 2417 
Q 1019 2294 894 2097 
L 366 2166 
L 809 4519 
L 3088 4519 
L 3088 3981 
L 1259 3981 
L 1013 2750 
Q 1425 3038 1878 3038 
Q 2478 3038 2890 2622 
Q 3303 2206 3303 1553 
Q 3303 931 2941 478 
Q 2500 -78 1738 -78 
Q 1113 -78 717 272 
Q 322 622 266 1200 
z
" transform="scale(0.015625)"/>
       </defs>
       <use xlink:href="#ArialMT-35"/>
      </g>
     </g>
    </g>
    <g id="xtick_3">
     <g id="line2d_3">
      <path d="M 164.464489 154.420954 
L 164.464489 21.789375 
" clip-path="url(#p7f067597da)" style="fill: none; stroke: #ffffff; stroke-width: 0.8; stroke-linecap: round"/>
     </g>
     <g id="text_3">
      <!-- 10 -->
      <g style="fill: #262626" transform="translate(158.903551 168.578766)scale(0.1 -0.1)">
       <defs>
        <path id="ArialMT-31" d="M 2384 0 
L 1822 0 
L 1822 3584 
Q 1619 3391 1289 3197 
Q 959 3003 697 2906 
L 697 3450 
Q 1169 3672 1522 3987 
Q 1875 4303 2022 4600 
L 2384 4600 
L 2384 0 
z
" transform="scale(0.015625)"/>
       </defs>
       <use xlink:href="#ArialMT-31"/>
       <use xlink:href="#ArialMT-30" x="55.615234"/>
      </g>
     </g>
    </g>
    <g id="xtick_4">
     <g id="line2d_4">
      <path d="M 216.828125 154.420954 
L 216.828125 21.789375 
" clip-path="url(#p7f067597da)" style="fill: none; stroke: #ffffff; stroke-width: 0.8; stroke-linecap: round"/>
     </g>
     <g id="text_4">
      <!-- 15 -->
      <g style="fill: #262626" transform="translate(211.267188 168.578766)scale(0.1 -0.1)">
       <use xlink:href="#ArialMT-31"/>
       <use xlink:href="#ArialMT-35" x="55.615234"/>
      </g>
     </g>
    </g>
    <g id="xtick_5">
     <g id="line2d_5">
      <path d="M 269.191761 154.420954 
L 269.191761 21.789375 
" clip-path="url(#p7f067597da)" style="fill: none; stroke: #ffffff; stroke-width: 0.8; stroke-linecap: round"/>
     </g>
     <g id="text_5">
      <!-- 20 -->
      <g style="fill: #262626" transform="translate(263.630824 168.578766)scale(0.1 -0.1)">
       <defs>
        <path id="ArialMT-32" d="M 3222 541 
L 3222 0 
L 194 0 
Q 188 203 259 391 
Q 375 700 629 1000 
Q 884 1300 1366 1694 
Q 2113 2306 2375 2664 
Q 2638 3022 2638 3341 
Q 2638 3675 2398 3904 
Q 2159 4134 1775 4134 
Q 1369 4134 1125 3890 
Q 881 3647 878 3216 
L 300 3275 
Q 359 3922 746 4261 
Q 1134 4600 1788 4600 
Q 2447 4600 2831 4234 
Q 3216 3869 3216 3328 
Q 3216 3053 3103 2787 
Q 2991 2522 2730 2228 
Q 2469 1934 1863 1422 
Q 1356 997 1212 845 
Q 1069 694 975 541 
L 3222 541 
z
" transform="scale(0.015625)"/>
       </defs>
       <use xlink:href="#ArialMT-32"/>
       <use xlink:href="#ArialMT-30" x="55.615234"/>
      </g>
     </g>
    </g>
    <g id="xtick_6">
     <g id="line2d_6">
      <path d="M 321.555398 154.420954 
L 321.555398 21.789375 
" clip-path="url(#p7f067597da)" style="fill: none; stroke: #ffffff; stroke-width: 0.8; stroke-linecap: round"/>
     </g>
     <g id="text_6">
      <!-- 25 -->
      <g style="fill: #262626" transform="translate(315.99446 168.578766)scale(0.1 -0.1)">
       <use xlink:href="#ArialMT-32"/>
       <use xlink:href="#ArialMT-35" x="55.615234"/>
      </g>
     </g>
    </g>
    <g id="xtick_7">
     <g id="line2d_7">
      <path d="M 373.919034 154.420954 
L 373.919034 21.789375 
" clip-path="url(#p7f067597da)" style="fill: none; stroke: #ffffff; stroke-width: 0.8; stroke-linecap: round"/>
     </g>
     <g id="text_7">
      <!-- 30 -->
      <g style="fill: #262626" transform="translate(368.358097 168.578766)scale(0.1 -0.1)">
       <defs>
        <path id="ArialMT-33" d="M 269 1209 
L 831 1284 
Q 928 806 1161 595 
Q 1394 384 1728 384 
Q 2125 384 2398 659 
Q 2672 934 2672 1341 
Q 2672 1728 2419 1979 
Q 2166 2231 1775 2231 
Q 1616 2231 1378 2169 
L 1441 2663 
Q 1497 2656 1531 2656 
Q 1891 2656 2178 2843 
Q 2466 3031 2466 3422 
Q 2466 3731 2256 3934 
Q 2047 4138 1716 4138 
Q 1388 4138 1169 3931 
Q 950 3725 888 3313 
L 325 3413 
Q 428 3978 793 4289 
Q 1159 4600 1703 4600 
Q 2078 4600 2393 4439 
Q 2709 4278 2876 4000 
Q 3044 3722 3044 3409 
Q 3044 3113 2884 2869 
Q 2725 2625 2413 2481 
Q 2819 2388 3044 2092 
Q 3269 1797 3269 1353 
Q 3269 753 2831 336 
Q 2394 -81 1725 -81 
Q 1122 -81 723 278 
Q 325 638 269 1209 
z
" transform="scale(0.015625)"/>
       </defs>
       <use xlink:href="#ArialMT-33"/>
       <use xlink:href="#ArialMT-30" x="55.615234"/>
      </g>
     </g>
    </g>
    <g id="text_8">
     <!-- generation -->
     <g style="fill: #262626" transform="translate(193.2 181.724079)scale(0.1 -0.1)">
      <defs>
       <path id="ArialMT-67" d="M 319 -275 
L 866 -356 
Q 900 -609 1056 -725 
Q 1266 -881 1628 -881 
Q 2019 -881 2231 -725 
Q 2444 -569 2519 -288 
Q 2563 -116 2559 434 
Q 2191 0 1641 0 
Q 956 0 581 494 
Q 206 988 206 1678 
Q 206 2153 378 2554 
Q 550 2956 876 3175 
Q 1203 3394 1644 3394 
Q 2231 3394 2613 2919 
L 2613 3319 
L 3131 3319 
L 3131 450 
Q 3131 -325 2973 -648 
Q 2816 -972 2473 -1159 
Q 2131 -1347 1631 -1347 
Q 1038 -1347 672 -1080 
Q 306 -813 319 -275 
z
M 784 1719 
Q 784 1066 1043 766 
Q 1303 466 1694 466 
Q 2081 466 2343 764 
Q 2606 1063 2606 1700 
Q 2606 2309 2336 2618 
Q 2066 2928 1684 2928 
Q 1309 2928 1046 2623 
Q 784 2319 784 1719 
z
" transform="scale(0.015625)"/>
       <path id="ArialMT-65" d="M 2694 1069 
L 3275 997 
Q 3138 488 2766 206 
Q 2394 -75 1816 -75 
Q 1088 -75 661 373 
Q 234 822 234 1631 
Q 234 2469 665 2931 
Q 1097 3394 1784 3394 
Q 2450 3394 2872 2941 
Q 3294 2488 3294 1666 
Q 3294 1616 3291 1516 
L 816 1516 
Q 847 969 1125 678 
Q 1403 388 1819 388 
Q 2128 388 2347 550 
Q 2566 713 2694 1069 
z
M 847 1978 
L 2700 1978 
Q 2663 2397 2488 2606 
Q 2219 2931 1791 2931 
Q 1403 2931 1139 2672 
Q 875 2413 847 1978 
z
" transform="scale(0.015625)"/>
       <path id="ArialMT-6e" d="M 422 0 
L 422 3319 
L 928 3319 
L 928 2847 
Q 1294 3394 1984 3394 
Q 2284 3394 2536 3286 
Q 2788 3178 2913 3003 
Q 3038 2828 3088 2588 
Q 3119 2431 3119 2041 
L 3119 0 
L 2556 0 
L 2556 2019 
Q 2556 2363 2490 2533 
Q 2425 2703 2258 2804 
Q 2091 2906 1866 2906 
Q 1506 2906 1245 2678 
Q 984 2450 984 1813 
L 984 0 
L 422 0 
z
" transform="scale(0.015625)"/>
       <path id="ArialMT-72" d="M 416 0 
L 416 3319 
L 922 3319 
L 922 2816 
Q 1116 3169 1280 3281 
Q 1444 3394 1641 3394 
Q 1925 3394 2219 3213 
L 2025 2691 
Q 1819 2813 1613 2813 
Q 1428 2813 1281 2702 
Q 1134 2591 1072 2394 
Q 978 2094 978 1738 
L 978 0 
L 416 0 
z
" transform="scale(0.015625)"/>
       <path id="ArialMT-61" d="M 2588 409 
Q 2275 144 1986 34 
Q 1697 -75 1366 -75 
Q 819 -75 525 192 
Q 231 459 231 875 
Q 231 1119 342 1320 
Q 453 1522 633 1644 
Q 813 1766 1038 1828 
Q 1203 1872 1538 1913 
Q 2219 1994 2541 2106 
Q 2544 2222 2544 2253 
Q 2544 2597 2384 2738 
Q 2169 2928 1744 2928 
Q 1347 2928 1158 2789 
Q 969 2650 878 2297 
L 328 2372 
Q 403 2725 575 2942 
Q 747 3159 1072 3276 
Q 1397 3394 1825 3394 
Q 2250 3394 2515 3294 
Q 2781 3194 2906 3042 
Q 3031 2891 3081 2659 
Q 3109 2516 3109 2141 
L 3109 1391 
Q 3109 606 3145 398 
Q 3181 191 3288 0 
L 2700 0 
Q 2613 175 2588 409 
z
M 2541 1666 
Q 2234 1541 1622 1453 
Q 1275 1403 1131 1340 
Q 988 1278 909 1158 
Q 831 1038 831 891 
Q 831 666 1001 516 
Q 1172 366 1500 366 
Q 1825 366 2078 508 
Q 2331 650 2450 897 
Q 2541 1088 2541 1459 
L 2541 1666 
z
" transform="scale(0.015625)"/>
       <path id="ArialMT-74" d="M 1650 503 
L 1731 6 
Q 1494 -44 1306 -44 
Q 1000 -44 831 53 
Q 663 150 594 308 
Q 525 466 525 972 
L 525 2881 
L 113 2881 
L 113 3319 
L 525 3319 
L 525 4141 
L 1084 4478 
L 1084 3319 
L 1650 3319 
L 1650 2881 
L 1084 2881 
L 1084 941 
Q 1084 700 1114 631 
Q 1144 563 1211 522 
Q 1278 481 1403 481 
Q 1497 481 1650 503 
z
" transform="scale(0.015625)"/>
       <path id="ArialMT-69" d="M 425 3934 
L 425 4581 
L 988 4581 
L 988 3934 
L 425 3934 
z
M 425 0 
L 425 3319 
L 988 3319 
L 988 0 
L 425 0 
z
" transform="scale(0.015625)"/>
       <path id="ArialMT-6f" d="M 213 1659 
Q 213 2581 725 3025 
Q 1153 3394 1769 3394 
Q 2453 3394 2887 2945 
Q 3322 2497 3322 1706 
Q 3322 1066 3130 698 
Q 2938 331 2570 128 
Q 2203 -75 1769 -75 
Q 1072 -75 642 372 
Q 213 819 213 1659 
z
M 791 1659 
Q 791 1022 1069 705 
Q 1347 388 1769 388 
Q 2188 388 2466 706 
Q 2744 1025 2744 1678 
Q 2744 2294 2464 2611 
Q 2184 2928 1769 2928 
Q 1347 2928 1069 2612 
Q 791 2297 791 1659 
z
" transform="scale(0.015625)"/>
      </defs>
      <use xlink:href="#ArialMT-67"/>
      <use xlink:href="#ArialMT-65" x="55.615234"/>
      <use xlink:href="#ArialMT-6e" x="111.230469"/>
      <use xlink:href="#ArialMT-65" x="166.845703"/>
      <use xlink:href="#ArialMT-72" x="222.460938"/>
      <use xlink:href="#ArialMT-61" x="255.761719"/>
      <use xlink:href="#ArialMT-74" x="311.376953"/>
      <use xlink:href="#ArialMT-69" x="339.160156"/>
      <use xlink:href="#ArialMT-6f" x="361.376953"/>
      <use xlink:href="#ArialMT-6e" x="416.992188"/>
     </g>
    </g>
   </g>
   <g id="matplotlib.axis_2">
    <g id="ytick_1">
     <g id="line2d_8">
      <path d="M 44.028125 141.177168 
L 389.628125 141.177168 
" clip-path="url(#p7f067597da)" style="fill: none; stroke: #ffffff; stroke-width: 0.8; stroke-linecap: round"/>
     </g>
     <g id="text_9">
      <!-- 91 -->
      <g style="fill: #262626" transform="translate(25.90625 144.756074)scale(0.1 -0.1)">
       <defs>
        <path id="ArialMT-39" d="M 350 1059 
L 891 1109 
Q 959 728 1153 556 
Q 1347 384 1650 384 
Q 1909 384 2104 503 
Q 2300 622 2425 820 
Q 2550 1019 2634 1356 
Q 2719 1694 2719 2044 
Q 2719 2081 2716 2156 
Q 2547 1888 2255 1720 
Q 1963 1553 1622 1553 
Q 1053 1553 659 1965 
Q 266 2378 266 3053 
Q 266 3750 677 4175 
Q 1088 4600 1706 4600 
Q 2153 4600 2523 4359 
Q 2894 4119 3086 3673 
Q 3278 3228 3278 2384 
Q 3278 1506 3087 986 
Q 2897 466 2520 194 
Q 2144 -78 1638 -78 
Q 1100 -78 759 220 
Q 419 519 350 1059 
z
M 2653 3081 
Q 2653 3566 2395 3850 
Q 2138 4134 1775 4134 
Q 1400 4134 1122 3828 
Q 844 3522 844 3034 
Q 844 2597 1108 2323 
Q 1372 2050 1759 2050 
Q 2150 2050 2401 2323 
Q 2653 2597 2653 3081 
z
" transform="scale(0.015625)"/>
       </defs>
       <use xlink:href="#ArialMT-39"/>
       <use xlink:href="#ArialMT-31" x="55.615234"/>
      </g>
     </g>
    </g>
    <g id="ytick_2">
     <g id="line2d_9">
      <path d="M 44.028125 107.080435 
L 389.628125 107.080435 
" clip-path="url(#p7f067597da)" style="fill: none; stroke: #ffffff; stroke-width: 0.8; stroke-linecap: round"/>
     </g>
     <g id="text_10">
      <!-- 92 -->
      <g style="fill: #262626" transform="translate(25.90625 110.659341)scale(0.1 -0.1)">
       <use xlink:href="#ArialMT-39"/>
       <use xlink:href="#ArialMT-32" x="55.615234"/>
      </g>
     </g>
    </g>
    <g id="ytick_3">
     <g id="line2d_10">
      <path d="M 44.028125 72.983701 
L 389.628125 72.983701 
" clip-path="url(#p7f067597da)" style="fill: none; stroke: #ffffff; stroke-width: 0.8; stroke-linecap: round"/>
     </g>
     <g id="text_11">
      <!-- 93 -->
      <g style="fill: #262626" transform="translate(25.90625 76.562608)scale(0.1 -0.1)">
       <use xlink:href="#ArialMT-39"/>
       <use xlink:href="#ArialMT-33" x="55.615234"/>
      </g>
     </g>
    </g>
    <g id="ytick_4">
     <g id="line2d_11">
      <path d="M 44.028125 38.886968 
L 389.628125 38.886968 
" clip-path="url(#p7f067597da)" style="fill: none; stroke: #ffffff; stroke-width: 0.8; stroke-linecap: round"/>
     </g>
     <g id="text_12">
      <!-- 94 -->
      <g style="fill: #262626" transform="translate(25.90625 42.465874)scale(0.1 -0.1)">
       <defs>
        <path id="ArialMT-34" d="M 2069 0 
L 2069 1097 
L 81 1097 
L 81 1613 
L 2172 4581 
L 2631 4581 
L 2631 1613 
L 3250 1613 
L 3250 1097 
L 2631 1097 
L 2631 0 
L 2069 0 
z
M 2069 1613 
L 2069 3678 
L 634 1613 
L 2069 1613 
z
" transform="scale(0.015625)"/>
       </defs>
       <use xlink:href="#ArialMT-39"/>
       <use xlink:href="#ArialMT-34" x="55.615234"/>
      </g>
     </g>
    </g>
    <g id="text_13">
     <!-- fitness -->
     <g style="fill: #262626" transform="translate(19.91875 102.555164)rotate(-90)scale(0.1 -0.1)">
      <defs>
       <path id="ArialMT-66" d="M 556 0 
L 556 2881 
L 59 2881 
L 59 3319 
L 556 3319 
L 556 3672 
Q 556 4006 616 4169 
Q 697 4388 901 4523 
Q 1106 4659 1475 4659 
Q 1713 4659 2000 4603 
L 1916 4113 
Q 1741 4144 1584 4144 
Q 1328 4144 1222 4034 
Q 1116 3925 1116 3625 
L 1116 3319 
L 1763 3319 
L 1763 2881 
L 1116 2881 
L 1116 0 
L 556 0 
z
" transform="scale(0.015625)"/>
       <path id="ArialMT-73" d="M 197 991 
L 753 1078 
Q 800 744 1014 566 
Q 1228 388 1613 388 
Q 2000 388 2187 545 
Q 2375 703 2375 916 
Q 2375 1106 2209 1216 
Q 2094 1291 1634 1406 
Q 1016 1563 777 1677 
Q 538 1791 414 1992 
Q 291 2194 291 2438 
Q 291 2659 392 2848 
Q 494 3038 669 3163 
Q 800 3259 1026 3326 
Q 1253 3394 1513 3394 
Q 1903 3394 2198 3281 
Q 2494 3169 2634 2976 
Q 2775 2784 2828 2463 
L 2278 2388 
Q 2241 2644 2061 2787 
Q 1881 2931 1553 2931 
Q 1166 2931 1000 2803 
Q 834 2675 834 2503 
Q 834 2394 903 2306 
Q 972 2216 1119 2156 
Q 1203 2125 1616 2013 
Q 2213 1853 2448 1751 
Q 2684 1650 2818 1456 
Q 2953 1263 2953 975 
Q 2953 694 2789 445 
Q 2625 197 2315 61 
Q 2006 -75 1616 -75 
Q 969 -75 630 194 
Q 291 463 197 991 
z
" transform="scale(0.015625)"/>
      </defs>
      <use xlink:href="#ArialMT-66"/>
      <use xlink:href="#ArialMT-69" x="27.783203"/>
      <use xlink:href="#ArialMT-74" x="50"/>
      <use xlink:href="#ArialMT-6e" x="77.783203"/>
      <use xlink:href="#ArialMT-65" x="133.398438"/>
      <use xlink:href="#ArialMT-73" x="189.013672"/>
      <use xlink:href="#ArialMT-73" x="239.013672"/>
     </g>
    </g>
   </g>
   <g id="PolyCollection_1">
    <defs>
     <path id="mc4120aa956" d="M 59.737216 -475.789234 
L 59.737216 -414.004942 
L 70.209943 -448.822184 
L 80.68267 -450.47918 
L 91.155398 -451.679964 
L 101.628125 -459.644575 
L 112.100852 -460.120088 
L 122.57358 -460.120088 
L 133.046307 -461.220566 
L 143.519034 -461.220566 
L 153.991761 -466.264144 
L 164.464489 -466.804005 
L 174.937216 -470.277414 
L 185.409943 -471.090547 
L 195.88267 -472.588446 
L 206.355398 -472.901514 
L 216.828125 -472.901514 
L 227.300852 -472.901514 
L 237.77358 -479.102332 
L 248.246307 -479.102332 
L 258.719034 -487.115056 
L 269.191761 -489.42298 
L 279.664489 -491.373884 
L 290.137216 -491.650838 
L 300.609943 -491.650838 
L 311.08267 -493.49198 
L 321.555398 -493.49198 
L 332.028125 -493.49198 
L 342.500852 -494.117361 
L 352.97358 -494.117361 
L 363.446307 -494.189373 
L 373.919034 -494.432185 
L 373.919034 -528.299607 
L 373.919034 -528.299607 
L 363.446307 -526.436896 
L 352.97358 -526.068797 
L 342.500852 -526.068797 
L 332.028125 -525.290907 
L 321.555398 -525.290907 
L 311.08267 -525.290907 
L 300.609943 -525.773936 
L 290.137216 -525.773936 
L 279.664489 -524.261736 
L 269.191761 -523.876502 
L 258.719034 -522.958293 
L 248.246307 -518.956073 
L 237.77358 -518.956073 
L 227.300852 -521.065283 
L 216.828125 -521.065283 
L 206.355398 -521.065283 
L 195.88267 -520.08243 
L 185.409943 -516.943445 
L 174.937216 -509.923302 
L 164.464489 -502.6571 
L 153.991761 -502.130784 
L 143.519034 -500.937609 
L 133.046307 -500.937609 
L 122.57358 -501.18336 
L 112.100852 -501.18336 
L 101.628125 -500.908739 
L 91.155398 -498.203386 
L 80.68267 -477.875503 
L 70.209943 -473.921317 
L 59.737216 -475.789234 
z
" style="stroke: #ff0000; stroke-opacity: 0.2"/>
    </defs>
    <g clip-path="url(#p7f067597da)">
     <use xlink:href="#mc4120aa956" x="0" y="562.397188" style="fill: #ff0000; fill-opacity: 0.2; stroke: #ff0000; stroke-opacity: 0.2"/>
    </g>
   </g>
   <g id="PolyCollection_2">
    <defs>
     <path id="m07aa27d46a" d="M 59.737216 -469.675906 
L 59.737216 -414.52252 
L 70.209943 -447.28569 
L 80.68267 -451.919518 
L 91.155398 -459.566768 
L 101.628125 -459.700736 
L 112.100852 -467.609153 
L 122.57358 -471.291442 
L 133.046307 -481.307364 
L 143.519034 -486.916324 
L 153.991761 -489.475265 
L 164.464489 -490.148951 
L 174.937216 -490.148951 
L 185.409943 -491.507407 
L 195.88267 -491.507407 
L 206.355398 -494.869698 
L 216.828125 -494.869698 
L 227.300852 -494.876428 
L 237.77358 -495.286147 
L 248.246307 -495.286147 
L 258.719034 -494.885961 
L 269.191761 -494.885961 
L 279.664489 -494.77041 
L 290.137216 -494.77041 
L 300.609943 -494.77041 
L 311.08267 -495.421645 
L 321.555398 -495.421645 
L 332.028125 -495.421645 
L 342.500852 -495.48266 
L 352.97358 -494.615675 
L 363.446307 -494.143416 
L 373.919034 -497.358123 
L 373.919034 -534.579104 
L 373.919034 -534.579104 
L 363.446307 -534.32827 
L 352.97358 -531.128273 
L 342.500852 -526.16968 
L 332.028125 -525.622197 
L 321.555398 -525.622197 
L 311.08267 -525.622197 
L 300.609943 -524.909562 
L 290.137216 -524.909562 
L 279.664489 -524.909562 
L 269.191761 -522.066273 
L 258.719034 -522.066273 
L 248.246307 -518.675106 
L 237.77358 -518.675106 
L 227.300852 -517.720956 
L 216.828125 -516.98974 
L 206.355398 -516.98974 
L 195.88267 -517.844075 
L 185.409943 -517.844075 
L 174.937216 -518.173621 
L 164.464489 -518.173621 
L 153.991761 -517.483438 
L 143.519034 -514.632516 
L 133.046307 -512.938928 
L 122.57358 -508.815647 
L 112.100852 -507.390003 
L 101.628125 -491.170347 
L 91.155398 -488.785637 
L 80.68267 -481.599427 
L 70.209943 -474.145864 
L 59.737216 -469.675906 
z
" style="stroke: #4169e1; stroke-opacity: 0.2"/>
    </defs>
    <g clip-path="url(#p7f067597da)">
     <use xlink:href="#m07aa27d46a" x="0" y="562.397188" style="fill: #4169e1; fill-opacity: 0.2; stroke: #4169e1; stroke-opacity: 0.2"/>
    </g>
   </g>
   <g id="line2d_12">
    <path d="M 59.737216 117.5001 
L 70.209943 101.025437 
L 80.68267 98.219846 
L 91.155398 87.455512 
L 101.628125 82.120531 
L 112.100852 81.745464 
L 122.57358 81.745464 
L 133.046307 81.3181 
L 143.519034 81.3181 
L 153.991761 78.199724 
L 164.464489 77.666635 
L 174.937216 72.296829 
L 185.409943 68.380191 
L 195.88267 66.06175 
L 206.355398 65.413789 
L 216.828125 65.413789 
L 227.300852 65.413789 
L 237.77358 63.367985 
L 248.246307 63.367985 
L 258.719034 57.360513 
L 269.191761 55.747447 
L 279.664489 54.579377 
L 290.137216 53.684801 
L 300.609943 53.684801 
L 311.08267 53.005744 
L 321.555398 53.005744 
L 332.028125 53.005744 
L 342.500852 52.304108 
L 352.97358 52.304108 
L 363.446307 52.084053 
L 373.919034 51.031292 
" clip-path="url(#p7f067597da)" style="fill: none; stroke: #ff0000; stroke-width: 1.5; stroke-linecap: round"/>
   </g>
   <g id="line2d_13">
    <path d="M 59.737216 120.297975 
L 70.209943 101.681411 
L 80.68267 95.637715 
L 91.155398 88.220985 
L 101.628125 86.961646 
L 112.100852 74.89761 
L 122.57358 72.343643 
L 133.046307 65.274041 
L 143.519034 61.622768 
L 153.991761 58.917836 
L 164.464489 58.235902 
L 174.937216 58.235902 
L 185.409943 57.721447 
L 195.88267 57.721447 
L 206.355398 56.467469 
L 216.828125 56.467469 
L 227.300852 56.098496 
L 237.77358 55.416561 
L 248.246307 55.416561 
L 258.719034 53.921071 
L 269.191761 53.921071 
L 279.664489 52.557201 
L 290.137216 52.557201 
L 300.609943 52.557201 
L 311.08267 51.875267 
L 321.555398 51.875267 
L 332.028125 51.875267 
L 342.500852 51.571018 
L 352.97358 49.525214 
L 363.446307 48.161344 
L 373.919034 46.428574 
" clip-path="url(#p7f067597da)" style="fill: none; stroke: #4169e1; stroke-width: 1.5; stroke-linecap: round"/>
   </g>
   <g id="patch_3">
    <path d="M 44.028125 154.420954 
L 44.028125 21.789375 
" style="fill: none; stroke: #ffffff; stroke-width: 0.8; stroke-linejoin: miter; stroke-linecap: square"/>
   </g>
   <g id="patch_4">
    <path d="M 389.628125 154.420954 
L 389.628125 21.789375 
" style="fill: none; stroke: #ffffff; stroke-width: 0.8; stroke-linejoin: miter; stroke-linecap: square"/>
   </g>
   <g id="patch_5">
    <path d="M 44.028125 154.420954 
L 389.628125 154.420954 
" style="fill: none; stroke: #ffffff; stroke-width: 0.8; stroke-linejoin: miter; stroke-linecap: square"/>
   </g>
   <g id="patch_6">
    <path d="M 44.028125 21.789375 
L 389.628125 21.789375 
" style="fill: none; stroke: #ffffff; stroke-width: 0.8; stroke-linejoin: miter; stroke-linecap: square"/>
   </g>
   <g id="text_14">
    <!-- enemy: Airman -->
    <g style="fill: #262626" transform="translate(176.812813 15.789375)scale(0.12 -0.12)">
     <defs>
      <path id="ArialMT-6d" d="M 422 0 
L 422 3319 
L 925 3319 
L 925 2853 
Q 1081 3097 1340 3245 
Q 1600 3394 1931 3394 
Q 2300 3394 2536 3241 
Q 2772 3088 2869 2813 
Q 3263 3394 3894 3394 
Q 4388 3394 4653 3120 
Q 4919 2847 4919 2278 
L 4919 0 
L 4359 0 
L 4359 2091 
Q 4359 2428 4304 2576 
Q 4250 2725 4106 2815 
Q 3963 2906 3769 2906 
Q 3419 2906 3187 2673 
Q 2956 2441 2956 1928 
L 2956 0 
L 2394 0 
L 2394 2156 
Q 2394 2531 2256 2718 
Q 2119 2906 1806 2906 
Q 1569 2906 1367 2781 
Q 1166 2656 1075 2415 
Q 984 2175 984 1722 
L 984 0 
L 422 0 
z
" transform="scale(0.015625)"/>
      <path id="ArialMT-79" d="M 397 -1278 
L 334 -750 
Q 519 -800 656 -800 
Q 844 -800 956 -737 
Q 1069 -675 1141 -563 
Q 1194 -478 1313 -144 
Q 1328 -97 1363 -6 
L 103 3319 
L 709 3319 
L 1400 1397 
Q 1534 1031 1641 628 
Q 1738 1016 1872 1384 
L 2581 3319 
L 3144 3319 
L 1881 -56 
Q 1678 -603 1566 -809 
Q 1416 -1088 1222 -1217 
Q 1028 -1347 759 -1347 
Q 597 -1347 397 -1278 
z
" transform="scale(0.015625)"/>
      <path id="ArialMT-3a" d="M 578 2678 
L 578 3319 
L 1219 3319 
L 1219 2678 
L 578 2678 
z
M 578 0 
L 578 641 
L 1219 641 
L 1219 0 
L 578 0 
z
" transform="scale(0.015625)"/>
      <path id="ArialMT-20" transform="scale(0.015625)"/>
      <path id="ArialMT-41" d="M -9 0 
L 1750 4581 
L 2403 4581 
L 4278 0 
L 3588 0 
L 3053 1388 
L 1138 1388 
L 634 0 
L -9 0 
z
M 1313 1881 
L 2866 1881 
L 2388 3150 
Q 2169 3728 2063 4100 
Q 1975 3659 1816 3225 
L 1313 1881 
z
" transform="scale(0.015625)"/>
     </defs>
     <use xlink:href="#ArialMT-65"/>
     <use xlink:href="#ArialMT-6e" x="55.615234"/>
     <use xlink:href="#ArialMT-65" x="111.230469"/>
     <use xlink:href="#ArialMT-6d" x="166.845703"/>
     <use xlink:href="#ArialMT-79" x="250.146484"/>
     <use xlink:href="#ArialMT-3a" x="300.146484"/>
     <use xlink:href="#ArialMT-20" x="327.929688"/>
     <use xlink:href="#ArialMT-41" x="350.212891"/>
     <use xlink:href="#ArialMT-69" x="416.912109"/>
     <use xlink:href="#ArialMT-72" x="439.128906"/>
     <use xlink:href="#ArialMT-6d" x="472.429688"/>
     <use xlink:href="#ArialMT-61" x="555.730469"/>
     <use xlink:href="#ArialMT-6e" x="611.345703"/>
    </g>
   </g>
  </g>
  <g id="axes_2">
   <g id="patch_7">
    <path d="M 44.028125 340.105164 
L 389.628125 340.105164 
L 389.628125 207.473586 
L 44.028125 207.473586 
z
" style="fill: #e6e6e6"/>
   </g>
   <g id="matplotlib.axis_3">
    <g id="xtick_8">
     <g id="line2d_14">
      <path d="M 59.737216 340.105164 
L 59.737216 207.473586 
" clip-path="url(#pb89088f900)" style="fill: none; stroke: #ffffff; stroke-width: 0.8; stroke-linecap: round"/>
     </g>
     <g id="text_15">
      <!-- 0 -->
      <g style="fill: #262626" transform="translate(56.956747 354.262977)scale(0.1 -0.1)">
       <use xlink:href="#ArialMT-30"/>
      </g>
     </g>
    </g>
    <g id="xtick_9">
     <g id="line2d_15">
      <path d="M 112.100852 340.105164 
L 112.100852 207.473586 
" clip-path="url(#pb89088f900)" style="fill: none; stroke: #ffffff; stroke-width: 0.8; stroke-linecap: round"/>
     </g>
     <g id="text_16">
      <!-- 5 -->
      <g style="fill: #262626" transform="translate(109.320384 354.262977)scale(0.1 -0.1)">
       <use xlink:href="#ArialMT-35"/>
      </g>
     </g>
    </g>
    <g id="xtick_10">
     <g id="line2d_16">
      <path d="M 164.464489 340.105164 
L 164.464489 207.473586 
" clip-path="url(#pb89088f900)" style="fill: none; stroke: #ffffff; stroke-width: 0.8; stroke-linecap: round"/>
     </g>
     <g id="text_17">
      <!-- 10 -->
      <g style="fill: #262626" transform="translate(158.903551 354.262977)scale(0.1 -0.1)">
       <use xlink:href="#ArialMT-31"/>
       <use xlink:href="#ArialMT-30" x="55.615234"/>
      </g>
     </g>
    </g>
    <g id="xtick_11">
     <g id="line2d_17">
      <path d="M 216.828125 340.105164 
L 216.828125 207.473586 
" clip-path="url(#pb89088f900)" style="fill: none; stroke: #ffffff; stroke-width: 0.8; stroke-linecap: round"/>
     </g>
     <g id="text_18">
      <!-- 15 -->
      <g style="fill: #262626" transform="translate(211.267188 354.262977)scale(0.1 -0.1)">
       <use xlink:href="#ArialMT-31"/>
       <use xlink:href="#ArialMT-35" x="55.615234"/>
      </g>
     </g>
    </g>
    <g id="xtick_12">
     <g id="line2d_18">
      <path d="M 269.191761 340.105164 
L 269.191761 207.473586 
" clip-path="url(#pb89088f900)" style="fill: none; stroke: #ffffff; stroke-width: 0.8; stroke-linecap: round"/>
     </g>
     <g id="text_19">
      <!-- 20 -->
      <g style="fill: #262626" transform="translate(263.630824 354.262977)scale(0.1 -0.1)">
       <use xlink:href="#ArialMT-32"/>
       <use xlink:href="#ArialMT-30" x="55.615234"/>
      </g>
     </g>
    </g>
    <g id="xtick_13">
     <g id="line2d_19">
      <path d="M 321.555398 340.105164 
L 321.555398 207.473586 
" clip-path="url(#pb89088f900)" style="fill: none; stroke: #ffffff; stroke-width: 0.8; stroke-linecap: round"/>
     </g>
     <g id="text_20">
      <!-- 25 -->
      <g style="fill: #262626" transform="translate(315.99446 354.262977)scale(0.1 -0.1)">
       <use xlink:href="#ArialMT-32"/>
       <use xlink:href="#ArialMT-35" x="55.615234"/>
      </g>
     </g>
    </g>
    <g id="xtick_14">
     <g id="line2d_20">
      <path d="M 373.919034 340.105164 
L 373.919034 207.473586 
" clip-path="url(#pb89088f900)" style="fill: none; stroke: #ffffff; stroke-width: 0.8; stroke-linecap: round"/>
     </g>
     <g id="text_21">
      <!-- 30 -->
      <g style="fill: #262626" transform="translate(368.358097 354.262977)scale(0.1 -0.1)">
       <use xlink:href="#ArialMT-33"/>
       <use xlink:href="#ArialMT-30" x="55.615234"/>
      </g>
     </g>
    </g>
    <g id="text_22">
     <!-- generation -->
     <g style="fill: #262626" transform="translate(193.2 367.408289)scale(0.1 -0.1)">
      <use xlink:href="#ArialMT-67"/>
      <use xlink:href="#ArialMT-65" x="55.615234"/>
      <use xlink:href="#ArialMT-6e" x="111.230469"/>
      <use xlink:href="#ArialMT-65" x="166.845703"/>
      <use xlink:href="#ArialMT-72" x="222.460938"/>
      <use xlink:href="#ArialMT-61" x="255.761719"/>
      <use xlink:href="#ArialMT-74" x="311.376953"/>
      <use xlink:href="#ArialMT-69" x="339.160156"/>
      <use xlink:href="#ArialMT-6f" x="361.376953"/>
      <use xlink:href="#ArialMT-6e" x="416.992188"/>
     </g>
    </g>
   </g>
   <g id="matplotlib.axis_4">
    <g id="ytick_5">
     <g id="line2d_21">
      <path d="M 44.028125 337.700266 
L 389.628125 337.700266 
" clip-path="url(#pb89088f900)" style="fill: none; stroke: #ffffff; stroke-width: 0.8; stroke-linecap: round"/>
     </g>
     <g id="text_23">
      <!-- 20 -->
      <g style="fill: #262626" transform="translate(25.90625 341.279173)scale(0.1 -0.1)">
       <use xlink:href="#ArialMT-32"/>
       <use xlink:href="#ArialMT-30" x="55.615234"/>
      </g>
     </g>
    </g>
    <g id="ytick_6">
     <g id="line2d_22">
      <path d="M 44.028125 307.221096 
L 389.628125 307.221096 
" clip-path="url(#pb89088f900)" style="fill: none; stroke: #ffffff; stroke-width: 0.8; stroke-linecap: round"/>
     </g>
     <g id="text_24">
      <!-- 40 -->
      <g style="fill: #262626" transform="translate(25.90625 310.800002)scale(0.1 -0.1)">
       <use xlink:href="#ArialMT-34"/>
       <use xlink:href="#ArialMT-30" x="55.615234"/>
      </g>
     </g>
    </g>
    <g id="ytick_7">
     <g id="line2d_23">
      <path d="M 44.028125 276.741925 
L 389.628125 276.741925 
" clip-path="url(#pb89088f900)" style="fill: none; stroke: #ffffff; stroke-width: 0.8; stroke-linecap: round"/>
     </g>
     <g id="text_25">
      <!-- 60 -->
      <g style="fill: #262626" transform="translate(25.90625 280.320831)scale(0.1 -0.1)">
       <defs>
        <path id="ArialMT-36" d="M 3184 3459 
L 2625 3416 
Q 2550 3747 2413 3897 
Q 2184 4138 1850 4138 
Q 1581 4138 1378 3988 
Q 1113 3794 959 3422 
Q 806 3050 800 2363 
Q 1003 2672 1297 2822 
Q 1591 2972 1913 2972 
Q 2475 2972 2870 2558 
Q 3266 2144 3266 1488 
Q 3266 1056 3080 686 
Q 2894 316 2569 119 
Q 2244 -78 1831 -78 
Q 1128 -78 684 439 
Q 241 956 241 2144 
Q 241 3472 731 4075 
Q 1159 4600 1884 4600 
Q 2425 4600 2770 4297 
Q 3116 3994 3184 3459 
z
M 888 1484 
Q 888 1194 1011 928 
Q 1134 663 1356 523 
Q 1578 384 1822 384 
Q 2178 384 2434 671 
Q 2691 959 2691 1453 
Q 2691 1928 2437 2201 
Q 2184 2475 1800 2475 
Q 1419 2475 1153 2201 
Q 888 1928 888 1484 
z
" transform="scale(0.015625)"/>
       </defs>
       <use xlink:href="#ArialMT-36"/>
       <use xlink:href="#ArialMT-30" x="55.615234"/>
      </g>
     </g>
    </g>
    <g id="ytick_8">
     <g id="line2d_24">
      <path d="M 44.028125 246.262754 
L 389.628125 246.262754 
" clip-path="url(#pb89088f900)" style="fill: none; stroke: #ffffff; stroke-width: 0.8; stroke-linecap: round"/>
     </g>
     <g id="text_26">
      <!-- 80 -->
      <g style="fill: #262626" transform="translate(25.90625 249.841661)scale(0.1 -0.1)">
       <defs>
        <path id="ArialMT-38" d="M 1131 2484 
Q 781 2613 612 2850 
Q 444 3088 444 3419 
Q 444 3919 803 4259 
Q 1163 4600 1759 4600 
Q 2359 4600 2725 4251 
Q 3091 3903 3091 3403 
Q 3091 3084 2923 2848 
Q 2756 2613 2416 2484 
Q 2838 2347 3058 2040 
Q 3278 1734 3278 1309 
Q 3278 722 2862 322 
Q 2447 -78 1769 -78 
Q 1091 -78 675 323 
Q 259 725 259 1325 
Q 259 1772 486 2073 
Q 713 2375 1131 2484 
z
M 1019 3438 
Q 1019 3113 1228 2906 
Q 1438 2700 1772 2700 
Q 2097 2700 2305 2904 
Q 2513 3109 2513 3406 
Q 2513 3716 2298 3927 
Q 2084 4138 1766 4138 
Q 1444 4138 1231 3931 
Q 1019 3725 1019 3438 
z
M 838 1322 
Q 838 1081 952 856 
Q 1066 631 1291 507 
Q 1516 384 1775 384 
Q 2178 384 2440 643 
Q 2703 903 2703 1303 
Q 2703 1709 2433 1975 
Q 2163 2241 1756 2241 
Q 1359 2241 1098 1978 
Q 838 1716 838 1322 
z
" transform="scale(0.015625)"/>
       </defs>
       <use xlink:href="#ArialMT-38"/>
       <use xlink:href="#ArialMT-30" x="55.615234"/>
      </g>
     </g>
    </g>
    <g id="ytick_9">
     <g id="line2d_25">
      <path d="M 44.028125 215.783584 
L 389.628125 215.783584 
" clip-path="url(#pb89088f900)" style="fill: none; stroke: #ffffff; stroke-width: 0.8; stroke-linecap: round"/>
     </g>
     <g id="text_27">
      <!-- 100 -->
      <g style="fill: #262626" transform="translate(20.345313 219.36249)scale(0.1 -0.1)">
       <use xlink:href="#ArialMT-31"/>
       <use xlink:href="#ArialMT-30" x="55.615234"/>
       <use xlink:href="#ArialMT-30" x="111.230469"/>
      </g>
     </g>
    </g>
    <g id="text_28">
     <!-- fitness -->
     <g style="fill: #262626" transform="translate(14.357813 288.239375)rotate(-90)scale(0.1 -0.1)">
      <use xlink:href="#ArialMT-66"/>
      <use xlink:href="#ArialMT-69" x="27.783203"/>
      <use xlink:href="#ArialMT-74" x="50"/>
      <use xlink:href="#ArialMT-6e" x="77.783203"/>
      <use xlink:href="#ArialMT-65" x="133.398438"/>
      <use xlink:href="#ArialMT-73" x="189.013672"/>
      <use xlink:href="#ArialMT-73" x="239.013672"/>
     </g>
    </g>
   </g>
   <g id="PolyCollection_3">
    <defs>
     <path id="md7e4c4fe7f" d="M 59.737216 -257.043439 
L 59.737216 -232.077797 
L 70.209943 -239.244562 
L 80.68267 -248.901022 
L 91.155398 -252.970079 
L 101.628125 -252.981634 
L 112.100852 -252.775849 
L 122.57358 -255.157547 
L 133.046307 -255.142498 
L 143.519034 -260.265103 
L 153.991761 -261.38447 
L 164.464489 -265.719948 
L 174.937216 -265.730746 
L 185.409943 -269.238254 
L 195.88267 -279.55905 
L 206.355398 -281.111416 
L 216.828125 -281.111416 
L 227.300852 -287.391442 
L 237.77358 -287.437529 
L 248.246307 -287.511403 
L 258.719034 -287.689572 
L 269.191761 -289.916371 
L 279.664489 -290.031059 
L 290.137216 -290.034831 
L 300.609943 -292.395241 
L 311.08267 -292.395241 
L 321.555398 -292.395241 
L 332.028125 -292.395241 
L 342.500852 -292.395241 
L 352.97358 -292.527018 
L 363.446307 -292.527018 
L 373.919034 -292.551179 
L 373.919034 -348.894894 
L 373.919034 -348.894894 
L 363.446307 -348.845904 
L 352.97358 -348.845904 
L 342.500852 -348.593853 
L 332.028125 -348.593853 
L 321.555398 -348.593853 
L 311.08267 -348.593853 
L 300.609943 -348.593853 
L 290.137216 -346.186719 
L 279.664489 -346.172548 
L 269.191761 -345.903199 
L 258.719034 -345.413471 
L 248.246307 -344.9383 
L 237.77358 -344.97439 
L 227.300852 -344.85513 
L 216.828125 -344.400504 
L 206.355398 -344.400504 
L 195.88267 -342.209733 
L 185.409943 -341.474133 
L 174.937216 -341.741701 
L 164.464489 -341.661061 
L 153.991761 -335.744099 
L 143.519034 -332.062116 
L 133.046307 -324.8824 
L 122.57358 -324.664982 
L 112.100852 -318.185705 
L 101.628125 -314.402383 
L 91.155398 -314.248464 
L 80.68267 -304.054392 
L 70.209943 -260.466404 
L 59.737216 -257.043439 
z
" style="stroke: #ff0000; stroke-opacity: 0.2"/>
    </defs>
    <g clip-path="url(#pb89088f900)">
     <use xlink:href="#md7e4c4fe7f" x="0" y="562.397188" style="fill: #ff0000; fill-opacity: 0.2; stroke: #ff0000; stroke-opacity: 0.2"/>
    </g>
   </g>
   <g id="PolyCollection_4">
    <defs>
     <path id="mfa3bbba084" d="M 59.737216 -252.452401 
L 59.737216 -228.320731 
L 70.209943 -240.938732 
L 80.68267 -251.970478 
L 91.155398 -269.352713 
L 101.628125 -269.352713 
L 112.100852 -271.405912 
L 122.57358 -275.490434 
L 133.046307 -275.522424 
L 143.519034 -288.502074 
L 153.991761 -288.598459 
L 164.464489 -288.751426 
L 174.937216 -288.873988 
L 185.409943 -288.981373 
L 195.88267 -289.071929 
L 206.355398 -289.071929 
L 216.828125 -289.071929 
L 227.300852 -289.071929 
L 237.77358 -289.071929 
L 248.246307 -289.071929 
L 258.719034 -289.071929 
L 269.191761 -307.737726 
L 279.664489 -307.737726 
L 290.137216 -307.86815 
L 300.609943 -308.144293 
L 311.08267 -308.210516 
L 321.555398 -308.234127 
L 332.028125 -308.575259 
L 342.500852 -308.575259 
L 352.97358 -308.667357 
L 363.446307 -314.354723 
L 373.919034 -314.354723 
L 373.919034 -336.747908 
L 373.919034 -336.747908 
L 363.446307 -336.747908 
L 352.97358 -339.668735 
L 342.500852 -339.371952 
L 332.028125 -339.371952 
L 321.555398 -338.913614 
L 311.08267 -338.806357 
L 300.609943 -338.579929 
L 290.137216 -337.969439 
L 279.664489 -337.581782 
L 269.191761 -337.581782 
L 258.719034 -341.928232 
L 248.246307 -341.928232 
L 237.77358 -341.928232 
L 227.300852 -341.928232 
L 216.828125 -341.928232 
L 206.355398 -341.928232 
L 195.88267 -341.928232 
L 185.409943 -341.656466 
L 174.937216 -341.344715 
L 164.464489 -340.964305 
L 153.991761 -340.461238 
L 143.519034 -340.198472 
L 133.046307 -338.469448 
L 122.57358 -338.331571 
L 112.100852 -339.025682 
L 101.628125 -333.587652 
L 91.155398 -333.587652 
L 80.68267 -322.502486 
L 70.209943 -302.450024 
L 59.737216 -252.452401 
z
" style="stroke: #4169e1; stroke-opacity: 0.2"/>
    </defs>
    <g clip-path="url(#pb89088f900)">
     <use xlink:href="#mfa3bbba084" x="0" y="562.397188" style="fill: #4169e1; fill-opacity: 0.2; stroke: #4169e1; stroke-opacity: 0.2"/>
    </g>
   </g>
   <g id="line2d_26">
    <path d="M 59.737216 317.83657 
L 70.209943 312.541705 
L 80.68267 285.919481 
L 91.155398 278.787916 
L 101.628125 278.705179 
L 112.100852 276.916411 
L 122.57358 272.485923 
L 133.046307 272.384738 
L 143.519034 266.233578 
L 153.991761 263.832903 
L 164.464489 258.706683 
L 174.937216 258.660964 
L 185.409943 257.040994 
L 195.88267 251.512796 
L 206.355398 249.641228 
L 216.828125 249.641228 
L 227.300852 246.273901 
L 237.77358 246.191228 
L 248.246307 246.172336 
L 258.719034 245.845666 
L 269.191761 244.487403 
L 279.664489 244.295384 
L 290.137216 244.286412 
L 300.609943 241.902641 
L 311.08267 241.902641 
L 321.555398 241.902641 
L 332.028125 241.902641 
L 342.500852 241.902641 
L 352.97358 241.710726 
L 363.446307 241.710726 
L 373.919034 241.674151 
" clip-path="url(#pb89088f900)" style="fill: none; stroke: #ff0000; stroke-width: 1.5; stroke-linecap: round"/>
   </g>
   <g id="line2d_27">
    <path d="M 59.737216 322.010621 
L 70.209943 290.70281 
L 80.68267 275.160705 
L 91.155398 260.927005 
L 101.628125 260.927005 
L 112.100852 257.181391 
L 122.57358 255.486185 
L 133.046307 255.401251 
L 143.519034 248.046915 
L 153.991761 247.867339 
L 164.464489 247.539322 
L 174.937216 247.287836 
L 185.409943 247.078268 
L 195.88267 246.897107 
L 206.355398 246.897107 
L 216.828125 246.897107 
L 227.300852 246.897107 
L 237.77358 246.897107 
L 248.246307 246.897107 
L 258.719034 246.897107 
L 269.191761 239.737434 
L 279.664489 239.737434 
L 290.137216 239.478393 
L 300.609943 239.035077 
L 311.08267 238.888751 
L 321.555398 238.823317 
L 332.028125 238.423582 
L 342.500852 238.423582 
L 352.97358 238.229141 
L 363.446307 236.845872 
L 373.919034 236.845872 
" clip-path="url(#pb89088f900)" style="fill: none; stroke: #4169e1; stroke-width: 1.5; stroke-linecap: round"/>
   </g>
   <g id="patch_8">
    <path d="M 44.028125 340.105164 
L 44.028125 207.473586 
" style="fill: none; stroke: #ffffff; stroke-width: 0.8; stroke-linejoin: miter; stroke-linecap: square"/>
   </g>
   <g id="patch_9">
    <path d="M 389.628125 340.105164 
L 389.628125 207.473586 
" style="fill: none; stroke: #ffffff; stroke-width: 0.8; stroke-linejoin: miter; stroke-linecap: square"/>
   </g>
   <g id="patch_10">
    <path d="M 44.028125 340.105164 
L 389.628125 340.105164 
" style="fill: none; stroke: #ffffff; stroke-width: 0.8; stroke-linejoin: miter; stroke-linecap: square"/>
   </g>
   <g id="patch_11">
    <path d="M 44.028125 207.473586 
L 389.628125 207.473586 
" style="fill: none; stroke: #ffffff; stroke-width: 0.8; stroke-linejoin: miter; stroke-linecap: square"/>
   </g>
   <g id="text_29">
    <!-- enemy: Heatman -->
    <g style="fill: #262626" transform="translate(171.142812 201.473586)scale(0.12 -0.12)">
     <defs>
      <path id="ArialMT-48" d="M 513 0 
L 513 4581 
L 1119 4581 
L 1119 2700 
L 3500 2700 
L 3500 4581 
L 4106 4581 
L 4106 0 
L 3500 0 
L 3500 2159 
L 1119 2159 
L 1119 0 
L 513 0 
z
" transform="scale(0.015625)"/>
     </defs>
     <use xlink:href="#ArialMT-65"/>
     <use xlink:href="#ArialMT-6e" x="55.615234"/>
     <use xlink:href="#ArialMT-65" x="111.230469"/>
     <use xlink:href="#ArialMT-6d" x="166.845703"/>
     <use xlink:href="#ArialMT-79" x="250.146484"/>
     <use xlink:href="#ArialMT-3a" x="300.146484"/>
     <use xlink:href="#ArialMT-20" x="327.929688"/>
     <use xlink:href="#ArialMT-48" x="355.712891"/>
     <use xlink:href="#ArialMT-65" x="427.929688"/>
     <use xlink:href="#ArialMT-61" x="483.544922"/>
     <use xlink:href="#ArialMT-74" x="539.160156"/>
     <use xlink:href="#ArialMT-6d" x="566.943359"/>
     <use xlink:href="#ArialMT-61" x="650.244141"/>
     <use xlink:href="#ArialMT-6e" x="705.859375"/>
    </g>
   </g>
  </g>
  <g id="axes_3">
   <g id="patch_12">
    <path d="M 44.028125 525.789375 
L 389.628125 525.789375 
L 389.628125 393.157796 
L 44.028125 393.157796 
z
" style="fill: #e6e6e6"/>
   </g>
   <g id="matplotlib.axis_5">
    <g id="xtick_15">
     <g id="line2d_28">
      <path d="M 59.737216 525.789375 
L 59.737216 393.157796 
" clip-path="url(#pd6743fbff0)" style="fill: none; stroke: #ffffff; stroke-width: 0.8; stroke-linecap: round"/>
     </g>
     <g id="text_30">
      <!-- 0 -->
      <g style="fill: #262626" transform="translate(56.956747 539.947188)scale(0.1 -0.1)">
       <use xlink:href="#ArialMT-30"/>
      </g>
     </g>
    </g>
    <g id="xtick_16">
     <g id="line2d_29">
      <path d="M 112.100852 525.789375 
L 112.100852 393.157796 
" clip-path="url(#pd6743fbff0)" style="fill: none; stroke: #ffffff; stroke-width: 0.8; stroke-linecap: round"/>
     </g>
     <g id="text_31">
      <!-- 5 -->
      <g style="fill: #262626" transform="translate(109.320384 539.947188)scale(0.1 -0.1)">
       <use xlink:href="#ArialMT-35"/>
      </g>
     </g>
    </g>
    <g id="xtick_17">
     <g id="line2d_30">
      <path d="M 164.464489 525.789375 
L 164.464489 393.157796 
" clip-path="url(#pd6743fbff0)" style="fill: none; stroke: #ffffff; stroke-width: 0.8; stroke-linecap: round"/>
     </g>
     <g id="text_32">
      <!-- 10 -->
      <g style="fill: #262626" transform="translate(158.903551 539.947188)scale(0.1 -0.1)">
       <use xlink:href="#ArialMT-31"/>
       <use xlink:href="#ArialMT-30" x="55.615234"/>
      </g>
     </g>
    </g>
    <g id="xtick_18">
     <g id="line2d_31">
      <path d="M 216.828125 525.789375 
L 216.828125 393.157796 
" clip-path="url(#pd6743fbff0)" style="fill: none; stroke: #ffffff; stroke-width: 0.8; stroke-linecap: round"/>
     </g>
     <g id="text_33">
      <!-- 15 -->
      <g style="fill: #262626" transform="translate(211.267188 539.947188)scale(0.1 -0.1)">
       <use xlink:href="#ArialMT-31"/>
       <use xlink:href="#ArialMT-35" x="55.615234"/>
      </g>
     </g>
    </g>
    <g id="xtick_19">
     <g id="line2d_32">
      <path d="M 269.191761 525.789375 
L 269.191761 393.157796 
" clip-path="url(#pd6743fbff0)" style="fill: none; stroke: #ffffff; stroke-width: 0.8; stroke-linecap: round"/>
     </g>
     <g id="text_34">
      <!-- 20 -->
      <g style="fill: #262626" transform="translate(263.630824 539.947188)scale(0.1 -0.1)">
       <use xlink:href="#ArialMT-32"/>
       <use xlink:href="#ArialMT-30" x="55.615234"/>
      </g>
     </g>
    </g>
    <g id="xtick_20">
     <g id="line2d_33">
      <path d="M 321.555398 525.789375 
L 321.555398 393.157796 
" clip-path="url(#pd6743fbff0)" style="fill: none; stroke: #ffffff; stroke-width: 0.8; stroke-linecap: round"/>
     </g>
     <g id="text_35">
      <!-- 25 -->
      <g style="fill: #262626" transform="translate(315.99446 539.947188)scale(0.1 -0.1)">
       <use xlink:href="#ArialMT-32"/>
       <use xlink:href="#ArialMT-35" x="55.615234"/>
      </g>
     </g>
    </g>
    <g id="xtick_21">
     <g id="line2d_34">
      <path d="M 373.919034 525.789375 
L 373.919034 393.157796 
" clip-path="url(#pd6743fbff0)" style="fill: none; stroke: #ffffff; stroke-width: 0.8; stroke-linecap: round"/>
     </g>
     <g id="text_36">
      <!-- 30 -->
      <g style="fill: #262626" transform="translate(368.358097 539.947188)scale(0.1 -0.1)">
       <use xlink:href="#ArialMT-33"/>
       <use xlink:href="#ArialMT-30" x="55.615234"/>
      </g>
     </g>
    </g>
    <g id="text_37">
     <!-- generation -->
     <g style="fill: #262626" transform="translate(193.2 553.0925)scale(0.1 -0.1)">
      <use xlink:href="#ArialMT-67"/>
      <use xlink:href="#ArialMT-65" x="55.615234"/>
      <use xlink:href="#ArialMT-6e" x="111.230469"/>
      <use xlink:href="#ArialMT-65" x="166.845703"/>
      <use xlink:href="#ArialMT-72" x="222.460938"/>
      <use xlink:href="#ArialMT-61" x="255.761719"/>
      <use xlink:href="#ArialMT-74" x="311.376953"/>
      <use xlink:href="#ArialMT-69" x="339.160156"/>
      <use xlink:href="#ArialMT-6f" x="361.376953"/>
      <use xlink:href="#ArialMT-6e" x="416.992188"/>
     </g>
    </g>
   </g>
   <g id="matplotlib.axis_6">
    <g id="ytick_10">
     <g id="line2d_35">
      <path d="M 44.028125 502.691755 
L 389.628125 502.691755 
" clip-path="url(#pd6743fbff0)" style="fill: none; stroke: #ffffff; stroke-width: 0.8; stroke-linecap: round"/>
     </g>
     <g id="text_38">
      <!-- 20 -->
      <g style="fill: #262626" transform="translate(25.90625 506.270661)scale(0.1 -0.1)">
       <use xlink:href="#ArialMT-32"/>
       <use xlink:href="#ArialMT-30" x="55.615234"/>
      </g>
     </g>
    </g>
    <g id="ytick_11">
     <g id="line2d_36">
      <path d="M 44.028125 473.495584 
L 389.628125 473.495584 
" clip-path="url(#pd6743fbff0)" style="fill: none; stroke: #ffffff; stroke-width: 0.8; stroke-linecap: round"/>
     </g>
     <g id="text_39">
      <!-- 40 -->
      <g style="fill: #262626" transform="translate(25.90625 477.074491)scale(0.1 -0.1)">
       <use xlink:href="#ArialMT-34"/>
       <use xlink:href="#ArialMT-30" x="55.615234"/>
      </g>
     </g>
    </g>
    <g id="ytick_12">
     <g id="line2d_37">
      <path d="M 44.028125 444.299414 
L 389.628125 444.299414 
" clip-path="url(#pd6743fbff0)" style="fill: none; stroke: #ffffff; stroke-width: 0.8; stroke-linecap: round"/>
     </g>
     <g id="text_40">
      <!-- 60 -->
      <g style="fill: #262626" transform="translate(25.90625 447.87832)scale(0.1 -0.1)">
       <use xlink:href="#ArialMT-36"/>
       <use xlink:href="#ArialMT-30" x="55.615234"/>
      </g>
     </g>
    </g>
    <g id="ytick_13">
     <g id="line2d_38">
      <path d="M 44.028125 415.103243 
L 389.628125 415.103243 
" clip-path="url(#pd6743fbff0)" style="fill: none; stroke: #ffffff; stroke-width: 0.8; stroke-linecap: round"/>
     </g>
     <g id="text_41">
      <!-- 80 -->
      <g style="fill: #262626" transform="translate(25.90625 418.68215)scale(0.1 -0.1)">
       <use xlink:href="#ArialMT-38"/>
       <use xlink:href="#ArialMT-30" x="55.615234"/>
      </g>
     </g>
    </g>
    <g id="text_42">
     <!-- fitness -->
     <g style="fill: #262626" transform="translate(19.91875 473.923586)rotate(-90)scale(0.1 -0.1)">
      <use xlink:href="#ArialMT-66"/>
      <use xlink:href="#ArialMT-69" x="27.783203"/>
      <use xlink:href="#ArialMT-74" x="50"/>
      <use xlink:href="#ArialMT-6e" x="77.783203"/>
      <use xlink:href="#ArialMT-65" x="133.398438"/>
      <use xlink:href="#ArialMT-73" x="189.013672"/>
      <use xlink:href="#ArialMT-73" x="239.013672"/>
     </g>
    </g>
   </g>
   <g id="PolyCollection_5">
    <defs>
     <path id="m08d98cbb34" d="M 59.737216 -114.927595 
L 59.737216 -48.327645 
L 70.209943 -62.841308 
L 80.68267 -62.841308 
L 91.155398 -66.180687 
L 101.628125 -70.780049 
L 112.100852 -89.802191 
L 122.57358 -91.811567 
L 133.046307 -107.747778 
L 143.519034 -107.766012 
L 153.991761 -107.660099 
L 164.464489 -108.817217 
L 174.937216 -109.289691 
L 185.409943 -109.289691 
L 195.88267 -116.030775 
L 206.355398 -116.65519 
L 216.828125 -121.812542 
L 227.300852 -121.815309 
L 237.77358 -121.866913 
L 248.246307 -126.88656 
L 258.719034 -126.88656 
L 269.191761 -127.225683 
L 279.664489 -127.225683 
L 290.137216 -127.256374 
L 300.609943 -139.433569 
L 311.08267 -139.433569 
L 321.555398 -139.434843 
L 332.028125 -139.434843 
L 342.500852 -139.683437 
L 352.97358 -141.821535 
L 363.446307 -141.821535 
L 373.919034 -141.821535 
L 373.919034 -162.652593 
L 373.919034 -162.652593 
L 363.446307 -162.652593 
L 352.97358 -162.652593 
L 342.500852 -161.200887 
L 332.028125 -161.243349 
L 321.555398 -161.243349 
L 311.08267 -161.243328 
L 300.609943 -161.243328 
L 290.137216 -163.111687 
L 279.664489 -163.12176 
L 269.191761 -163.12176 
L 258.719034 -163.210683 
L 248.246307 -163.210683 
L 237.77358 -163.02804 
L 227.300852 -162.81182 
L 216.828125 -162.809465 
L 206.355398 -160.233325 
L 195.88267 -157.191815 
L 185.409943 -158.932376 
L 174.937216 -158.932376 
L 164.464489 -156.221951 
L 153.991761 -154.77865 
L 143.519034 -153.356563 
L 133.046307 -153.355061 
L 122.57358 -145.688504 
L 112.100852 -144.89486 
L 101.628125 -136.886746 
L 91.155398 -123.042935 
L 80.68267 -120.933646 
L 70.209943 -120.933646 
L 59.737216 -114.927595 
z
" style="stroke: #ff0000; stroke-opacity: 0.2"/>
    </defs>
    <g clip-path="url(#pd6743fbff0)">
     <use xlink:href="#m08d98cbb34" x="0" y="562.397188" style="fill: #ff0000; fill-opacity: 0.2; stroke: #ff0000; stroke-opacity: 0.2"/>
    </g>
   </g>
   <g id="PolyCollection_6">
    <defs>
     <path id="m1300110795" d="M 59.737216 -91.771604 
L 59.737216 -42.636521 
L 70.209943 -67.260307 
L 80.68267 -90.898015 
L 91.155398 -99.594636 
L 101.628125 -97.264445 
L 112.100852 -99.292442 
L 122.57358 -108.667579 
L 133.046307 -113.708415 
L 143.519034 -113.328009 
L 153.991761 -118.116332 
L 164.464489 -122.603556 
L 174.937216 -122.603556 
L 185.409943 -127.457132 
L 195.88267 -127.457132 
L 206.355398 -131.011165 
L 216.828125 -132.265143 
L 227.300852 -132.265143 
L 237.77358 -132.272446 
L 248.246307 -132.277747 
L 258.719034 -132.301271 
L 269.191761 -132.302325 
L 279.664489 -132.302325 
L 290.137216 -132.302325 
L 300.609943 -132.302325 
L 311.08267 -132.302325 
L 321.555398 -133.761819 
L 332.028125 -133.761819 
L 342.500852 -136.270147 
L 352.97358 -136.270147 
L 363.446307 -136.270147 
L 373.919034 -136.300504 
L 373.919034 -162.573762 
L 373.919034 -162.573762 
L 363.446307 -162.473169 
L 352.97358 -162.473169 
L 342.500852 -162.473169 
L 332.028125 -162.68493 
L 321.555398 -162.68493 
L 311.08267 -160.956949 
L 300.609943 -160.956949 
L 290.137216 -160.956949 
L 279.664489 -160.956949 
L 269.191761 -160.956949 
L 258.719034 -160.957166 
L 248.246307 -160.724651 
L 237.77358 -160.684505 
L 227.300852 -160.686009 
L 216.828125 -160.686009 
L 206.355398 -158.781705 
L 195.88267 -159.736079 
L 185.409943 -159.736079 
L 174.937216 -156.311385 
L 164.464489 -156.311385 
L 153.991761 -148.331472 
L 143.519034 -147.632353 
L 133.046307 -143.881296 
L 122.57358 -143.441947 
L 112.100852 -137.733471 
L 101.628125 -137.169381 
L 91.155398 -123.6858 
L 80.68267 -124.368956 
L 70.209943 -116.554094 
L 59.737216 -91.771604 
z
" style="stroke: #4169e1; stroke-opacity: 0.2"/>
    </defs>
    <g clip-path="url(#pd6743fbff0)">
     <use xlink:href="#m1300110795" x="0" y="562.397188" style="fill: #4169e1; fill-opacity: 0.2; stroke: #4169e1; stroke-opacity: 0.2"/>
    </g>
   </g>
   <g id="line2d_39">
    <path d="M 59.737216 480.769567 
L 70.209943 470.509711 
L 80.68267 470.509711 
L 91.155398 467.785377 
L 101.628125 458.56379 
L 112.100852 445.048662 
L 122.57358 443.647152 
L 133.046307 431.845768 
L 143.519034 431.8359 
L 153.991761 431.177813 
L 164.464489 429.877603 
L 174.937216 428.286154 
L 185.409943 428.286154 
L 195.88267 425.785893 
L 206.355398 423.95293 
L 216.828125 420.086184 
L 227.300852 420.083623 
L 237.77358 419.949711 
L 248.246307 417.348566 
L 258.719034 417.348566 
L 269.191761 417.223466 
L 279.664489 417.223466 
L 290.137216 417.213157 
L 300.609943 412.058739 
L 311.08267 412.058739 
L 321.555398 412.058091 
L 332.028125 412.058091 
L 342.500852 411.955026 
L 352.97358 410.160124 
L 363.446307 410.160124 
L 373.919034 410.160124 
" clip-path="url(#pd6743fbff0)" style="fill: none; stroke: #ff0000; stroke-width: 1.5; stroke-linecap: round"/>
   </g>
   <g id="line2d_40">
    <path d="M 59.737216 495.193125 
L 70.209943 470.489987 
L 80.68267 454.763702 
L 91.155398 450.756969 
L 101.628125 445.180274 
L 112.100852 443.884231 
L 122.57358 436.342425 
L 133.046307 433.602332 
L 143.519034 431.917007 
L 153.991761 429.173286 
L 164.464489 422.939717 
L 174.937216 422.939717 
L 185.409943 418.800582 
L 195.88267 418.800582 
L 206.355398 417.500752 
L 216.828125 415.921611 
L 227.300852 415.921611 
L 237.77358 415.918712 
L 248.246307 415.895989 
L 258.719034 415.767969 
L 269.191761 415.76755 
L 279.664489 415.76755 
L 290.137216 415.76755 
L 300.609943 415.76755 
L 311.08267 415.76755 
L 321.555398 414.173813 
L 332.028125 414.173813 
L 342.500852 413.02553 
L 352.97358 413.02553 
L 363.446307 413.02553 
L 373.919034 412.960054 
" clip-path="url(#pd6743fbff0)" style="fill: none; stroke: #4169e1; stroke-width: 1.5; stroke-linecap: round"/>
   </g>
   <g id="patch_13">
    <path d="M 44.028125 525.789375 
L 44.028125 393.157796 
" style="fill: none; stroke: #ffffff; stroke-width: 0.8; stroke-linejoin: miter; stroke-linecap: square"/>
   </g>
   <g id="patch_14">
    <path d="M 389.628125 525.789375 
L 389.628125 393.157796 
" style="fill: none; stroke: #ffffff; stroke-width: 0.8; stroke-linejoin: miter; stroke-linecap: square"/>
   </g>
   <g id="patch_15">
    <path d="M 44.028125 525.789375 
L 389.628125 525.789375 
" style="fill: none; stroke: #ffffff; stroke-width: 0.8; stroke-linejoin: miter; stroke-linecap: square"/>
   </g>
   <g id="patch_16">
    <path d="M 44.028125 393.157796 
L 389.628125 393.157796 
" style="fill: none; stroke: #ffffff; stroke-width: 0.8; stroke-linejoin: miter; stroke-linecap: square"/>
   </g>
   <g id="text_43">
    <!-- enemy: Crashman -->
    <g style="fill: #262626" transform="translate(167.811875 387.157796)scale(0.12 -0.12)">
     <defs>
      <path id="ArialMT-43" d="M 3763 1606 
L 4369 1453 
Q 4178 706 3683 314 
Q 3188 -78 2472 -78 
Q 1731 -78 1267 223 
Q 803 525 561 1097 
Q 319 1669 319 2325 
Q 319 3041 592 3573 
Q 866 4106 1370 4382 
Q 1875 4659 2481 4659 
Q 3169 4659 3637 4309 
Q 4106 3959 4291 3325 
L 3694 3184 
Q 3534 3684 3231 3912 
Q 2928 4141 2469 4141 
Q 1941 4141 1586 3887 
Q 1231 3634 1087 3207 
Q 944 2781 944 2328 
Q 944 1744 1114 1308 
Q 1284 872 1643 656 
Q 2003 441 2422 441 
Q 2931 441 3284 734 
Q 3638 1028 3763 1606 
z
" transform="scale(0.015625)"/>
      <path id="ArialMT-68" d="M 422 0 
L 422 4581 
L 984 4581 
L 984 2938 
Q 1378 3394 1978 3394 
Q 2347 3394 2619 3248 
Q 2891 3103 3008 2847 
Q 3125 2591 3125 2103 
L 3125 0 
L 2563 0 
L 2563 2103 
Q 2563 2525 2380 2717 
Q 2197 2909 1863 2909 
Q 1613 2909 1392 2779 
Q 1172 2650 1078 2428 
Q 984 2206 984 1816 
L 984 0 
L 422 0 
z
" transform="scale(0.015625)"/>
     </defs>
     <use xlink:href="#ArialMT-65"/>
     <use xlink:href="#ArialMT-6e" x="55.615234"/>
     <use xlink:href="#ArialMT-65" x="111.230469"/>
     <use xlink:href="#ArialMT-6d" x="166.845703"/>
     <use xlink:href="#ArialMT-79" x="250.146484"/>
     <use xlink:href="#ArialMT-3a" x="300.146484"/>
     <use xlink:href="#ArialMT-20" x="327.929688"/>
     <use xlink:href="#ArialMT-43" x="355.712891"/>
     <use xlink:href="#ArialMT-72" x="427.929688"/>
     <use xlink:href="#ArialMT-61" x="461.230469"/>
     <use xlink:href="#ArialMT-73" x="516.845703"/>
     <use xlink:href="#ArialMT-68" x="566.845703"/>
     <use xlink:href="#ArialMT-6d" x="622.460938"/>
     <use xlink:href="#ArialMT-61" x="705.761719"/>
     <use xlink:href="#ArialMT-6e" x="761.376953"/>
    </g>
   </g>
   <g id="legend_1">
    <g id="patch_17">
     <path d="M 258.008438 518.789375 
L 379.828125 518.789375 
Q 382.628125 518.789375 382.628125 515.989375 
L 382.628125 477.618438 
Q 382.628125 474.818438 379.828125 474.818438 
L 258.008438 474.818438 
Q 255.208438 474.818438 255.208438 477.618438 
L 255.208438 515.989375 
Q 255.208438 518.789375 258.008438 518.789375 
z
" style="fill: #ffffff; opacity: 0.8; stroke: #cccccc; stroke-linejoin: miter"/>
    </g>
    <g id="line2d_41">
     <path d="M 260.808438 485.539375 
L 274.808438 485.539375 
L 288.808438 485.539375 
" style="fill: none; stroke: #ff0000; stroke-width: 1.5; stroke-linecap: round"/>
    </g>
    <g id="text_44">
     <!-- Dynamic EA -->
     <g style="fill: #262626" transform="translate(300.008438 490.439375)scale(0.14 -0.14)">
      <defs>
       <path id="ArialMT-44" d="M 494 0 
L 494 4581 
L 2072 4581 
Q 2606 4581 2888 4516 
Q 3281 4425 3559 4188 
Q 3922 3881 4101 3404 
Q 4281 2928 4281 2316 
Q 4281 1794 4159 1391 
Q 4038 988 3847 723 
Q 3656 459 3429 307 
Q 3203 156 2883 78 
Q 2563 0 2147 0 
L 494 0 
z
M 1100 541 
L 2078 541 
Q 2531 541 2789 625 
Q 3047 709 3200 863 
Q 3416 1078 3536 1442 
Q 3656 1806 3656 2325 
Q 3656 3044 3420 3430 
Q 3184 3816 2847 3947 
Q 2603 4041 2063 4041 
L 1100 4041 
L 1100 541 
z
" transform="scale(0.015625)"/>
       <path id="ArialMT-63" d="M 2588 1216 
L 3141 1144 
Q 3050 572 2676 248 
Q 2303 -75 1759 -75 
Q 1078 -75 664 370 
Q 250 816 250 1647 
Q 250 2184 428 2587 
Q 606 2991 970 3192 
Q 1334 3394 1763 3394 
Q 2303 3394 2647 3120 
Q 2991 2847 3088 2344 
L 2541 2259 
Q 2463 2594 2264 2762 
Q 2066 2931 1784 2931 
Q 1359 2931 1093 2626 
Q 828 2322 828 1663 
Q 828 994 1084 691 
Q 1341 388 1753 388 
Q 2084 388 2306 591 
Q 2528 794 2588 1216 
z
" transform="scale(0.015625)"/>
       <path id="ArialMT-45" d="M 506 0 
L 506 4581 
L 3819 4581 
L 3819 4041 
L 1113 4041 
L 1113 2638 
L 3647 2638 
L 3647 2100 
L 1113 2100 
L 1113 541 
L 3925 541 
L 3925 0 
L 506 0 
z
" transform="scale(0.015625)"/>
      </defs>
      <use xlink:href="#ArialMT-44"/>
      <use xlink:href="#ArialMT-79" x="72.216797"/>
      <use xlink:href="#ArialMT-6e" x="122.216797"/>
      <use xlink:href="#ArialMT-61" x="177.832031"/>
      <use xlink:href="#ArialMT-6d" x="233.447266"/>
      <use xlink:href="#ArialMT-69" x="316.748047"/>
      <use xlink:href="#ArialMT-63" x="338.964844"/>
      <use xlink:href="#ArialMT-20" x="388.964844"/>
      <use xlink:href="#ArialMT-45" x="416.748047"/>
      <use xlink:href="#ArialMT-41" x="483.447266"/>
     </g>
    </g>
    <g id="line2d_42">
     <path d="M 260.808438 505.506875 
L 274.808438 505.506875 
L 288.808438 505.506875 
" style="fill: none; stroke: #4169e1; stroke-width: 1.5; stroke-linecap: round"/>
    </g>
    <g id="text_45">
     <!-- Static EA -->
     <g style="fill: #262626" transform="translate(300.008438 510.406875)scale(0.14 -0.14)">
      <defs>
       <path id="ArialMT-53" d="M 288 1472 
L 859 1522 
Q 900 1178 1048 958 
Q 1197 738 1509 602 
Q 1822 466 2213 466 
Q 2559 466 2825 569 
Q 3091 672 3220 851 
Q 3350 1031 3350 1244 
Q 3350 1459 3225 1620 
Q 3100 1781 2813 1891 
Q 2628 1963 1997 2114 
Q 1366 2266 1113 2400 
Q 784 2572 623 2826 
Q 463 3081 463 3397 
Q 463 3744 659 4045 
Q 856 4347 1234 4503 
Q 1613 4659 2075 4659 
Q 2584 4659 2973 4495 
Q 3363 4331 3572 4012 
Q 3781 3694 3797 3291 
L 3216 3247 
Q 3169 3681 2898 3903 
Q 2628 4125 2100 4125 
Q 1550 4125 1298 3923 
Q 1047 3722 1047 3438 
Q 1047 3191 1225 3031 
Q 1400 2872 2139 2705 
Q 2878 2538 3153 2413 
Q 3553 2228 3743 1945 
Q 3934 1663 3934 1294 
Q 3934 928 3725 604 
Q 3516 281 3123 101 
Q 2731 -78 2241 -78 
Q 1619 -78 1198 103 
Q 778 284 539 648 
Q 300 1013 288 1472 
z
" transform="scale(0.015625)"/>
      </defs>
      <use xlink:href="#ArialMT-53"/>
      <use xlink:href="#ArialMT-74" x="66.699219"/>
      <use xlink:href="#ArialMT-61" x="94.482422"/>
      <use xlink:href="#ArialMT-74" x="150.097656"/>
      <use xlink:href="#ArialMT-69" x="177.880859"/>
      <use xlink:href="#ArialMT-63" x="200.097656"/>
      <use xlink:href="#ArialMT-20" x="250.097656"/>
      <use xlink:href="#ArialMT-45" x="277.880859"/>
      <use xlink:href="#ArialMT-41" x="344.580078"/>
     </g>
    </g>
   </g>
  </g>
 </g>
 <defs>
  <clipPath id="p7f067597da">
   <rect x="44.028125" y="21.789375" width="345.6" height="132.631579"/>
  </clipPath>
  <clipPath id="pb89088f900">
   <rect x="44.028125" y="207.473586" width="345.6" height="132.631579"/>
  </clipPath>
  <clipPath id="pd6743fbff0">
   <rect x="44.028125" y="393.157796" width="345.6" height="132.631579"/>
  </clipPath>
 </defs>
</svg>
