<?xml version="1.0" encoding="utf-8" standalone="no"?>
<!DOCTYPE svg PUBLIC "-//W3C//DTD SVG 1.1//EN"
  "http://www.w3.org/Graphics/SVG/1.1/DTD/svg11.dtd">
<svg xmlns:xlink="http://www.w3.org/1999/xlink" width="396.828125pt" height="562.397188pt" viewBox="0 0 396.828125 562.397188" xmlns="http://www.w3.org/2000/svg" version="1.1">
 <metadata>
  <rdf:RDF xmlns:dc="http://purl.org/dc/elements/1.1/" xmlns:cc="http://creativecommons.org/ns#" xmlns:rdf="http://www.w3.org/1999/02/22-rdf-syntax-ns#">
   <cc:Work>
    <dc:type rdf:resource="http://purl.org/dc/dcmitype/StillImage"/>
    <dc:date>2022-10-02T11:01:26.004168</dc:date>
    <dc:format>image/svg+xml</dc:format>
    <dc:creator>
     <cc:Agent>
      <dc:title>Matplotlib v3.5.2, https://matplotlib.org/</dc:title>
     </cc:Agent>
    </dc:creator>
   </cc:Work>
  </rdf:RDF>
 </metadata>
 <defs>
  <style type="text/css">*{stroke-linejoin: round; stroke-linecap: butt}</style>
 </defs>
 <g id="figure_1">
  <g id="patch_1">
   <path d="M 0 562.397188 
L 396.828125 562.397188 
L 396.828125 0 
L 0 0 
z
" style="fill: #ffffff"/>
  </g>
  <g id="axes_1">
   <g id="patch_2">
    <path d="M 44.028125 154.420954 
L 389.628125 154.420954 
L 389.628125 21.789375 
L 44.028125 21.789375 
z
" style="fill: #e6e6e6"/>
   </g>
   <g id="matplotlib.axis_1">
    <g id="xtick_1">
     <g id="line2d_1">
      <path d="M 59.737216 154.420954 
L 59.737216 21.789375 
" clip-path="url(#p9c5067ec7c)" style="fill: none; stroke: #ffffff; stroke-width: 0.8; stroke-linecap: round"/>
     </g>
     <g id="text_1">
      <!-- 0 -->
      <g style="fill: #262626" transform="translate(56.956747 168.578766)scale(0.1 -0.1)">
       <defs>
        <path id="ArialMT-30" d="M 266 2259 
Q 266 3072 433 3567 
Q 600 4063 929 4331 
Q 1259 4600 1759 4600 
Q 2128 4600 2406 4451 
Q 2684 4303 2865 4023 
Q 3047 3744 3150 3342 
Q 3253 2941 3253 2259 
Q 3253 1453 3087 958 
Q 2922 463 2592 192 
Q 2263 -78 1759 -78 
Q 1097 -78 719 397 
Q 266 969 266 2259 
z
M 844 2259 
Q 844 1131 1108 757 
Q 1372 384 1759 384 
Q 2147 384 2411 759 
Q 2675 1134 2675 2259 
Q 2675 3391 2411 3762 
Q 2147 4134 1753 4134 
Q 1366 4134 1134 3806 
Q 844 3388 844 2259 
z
" transform="scale(0.015625)"/>
       </defs>
       <use xlink:href="#ArialMT-30"/>
      </g>
     </g>
    </g>
    <g id="xtick_2">
     <g id="line2d_2">
      <path d="M 112.100852 154.420954 
L 112.100852 21.789375 
" clip-path="url(#p9c5067ec7c)" style="fill: none; stroke: #ffffff; stroke-width: 0.8; stroke-linecap: round"/>
     </g>
     <g id="text_2">
      <!-- 5 -->
      <g style="fill: #262626" transform="translate(109.320384 168.578766)scale(0.1 -0.1)">
       <defs>
        <path id="ArialMT-35" d="M 266 1200 
L 856 1250 
Q 922 819 1161 601 
Q 1400 384 1738 384 
Q 2144 384 2425 690 
Q 2706 997 2706 1503 
Q 2706 1984 2436 2262 
Q 2166 2541 1728 2541 
Q 1456 2541 1237 2417 
Q 1019 2294 894 2097 
L 366 2166 
L 809 4519 
L 3088 4519 
L 3088 3981 
L 1259 3981 
L 1013 2750 
Q 1425 3038 1878 3038 
Q 2478 3038 2890 2622 
Q 3303 2206 3303 1553 
Q 3303 931 2941 478 
Q 2500 -78 1738 -78 
Q 1113 -78 717 272 
Q 322 622 266 1200 
z
" transform="scale(0.015625)"/>
       </defs>
       <use xlink:href="#ArialMT-35"/>
      </g>
     </g>
    </g>
    <g id="xtick_3">
     <g id="line2d_3">
      <path d="M 164.464489 154.420954 
L 164.464489 21.789375 
" clip-path="url(#p9c5067ec7c)" style="fill: none; stroke: #ffffff; stroke-width: 0.8; stroke-linecap: round"/>
     </g>
     <g id="text_3">
      <!-- 10 -->
      <g style="fill: #262626" transform="translate(158.903551 168.578766)scale(0.1 -0.1)">
       <defs>
        <path id="ArialMT-31" d="M 2384 0 
L 1822 0 
L 1822 3584 
Q 1619 3391 1289 3197 
Q 959 3003 697 2906 
L 697 3450 
Q 1169 3672 1522 3987 
Q 1875 4303 2022 4600 
L 2384 4600 
L 2384 0 
z
" transform="scale(0.015625)"/>
       </defs>
       <use xlink:href="#ArialMT-31"/>
       <use xlink:href="#ArialMT-30" x="55.615234"/>
      </g>
     </g>
    </g>
    <g id="xtick_4">
     <g id="line2d_4">
      <path d="M 216.828125 154.420954 
L 216.828125 21.789375 
" clip-path="url(#p9c5067ec7c)" style="fill: none; stroke: #ffffff; stroke-width: 0.8; stroke-linecap: round"/>
     </g>
     <g id="text_4">
      <!-- 15 -->
      <g style="fill: #262626" transform="translate(211.267188 168.578766)scale(0.1 -0.1)">
       <use xlink:href="#ArialMT-31"/>
       <use xlink:href="#ArialMT-35" x="55.615234"/>
      </g>
     </g>
    </g>
    <g id="xtick_5">
     <g id="line2d_5">
      <path d="M 269.191761 154.420954 
L 269.191761 21.789375 
" clip-path="url(#p9c5067ec7c)" style="fill: none; stroke: #ffffff; stroke-width: 0.8; stroke-linecap: round"/>
     </g>
     <g id="text_5">
      <!-- 20 -->
      <g style="fill: #262626" transform="translate(263.630824 168.578766)scale(0.1 -0.1)">
       <defs>
        <path id="ArialMT-32" d="M 3222 541 
L 3222 0 
L 194 0 
Q 188 203 259 391 
Q 375 700 629 1000 
Q 884 1300 1366 1694 
Q 2113 2306 2375 2664 
Q 2638 3022 2638 3341 
Q 2638 3675 2398 3904 
Q 2159 4134 1775 4134 
Q 1369 4134 1125 3890 
Q 881 3647 878 3216 
L 300 3275 
Q 359 3922 746 4261 
Q 1134 4600 1788 4600 
Q 2447 4600 2831 4234 
Q 3216 3869 3216 3328 
Q 3216 3053 3103 2787 
Q 2991 2522 2730 2228 
Q 2469 1934 1863 1422 
Q 1356 997 1212 845 
Q 1069 694 975 541 
L 3222 541 
z
" transform="scale(0.015625)"/>
       </defs>
       <use xlink:href="#ArialMT-32"/>
       <use xlink:href="#ArialMT-30" x="55.615234"/>
      </g>
     </g>
    </g>
    <g id="xtick_6">
     <g id="line2d_6">
      <path d="M 321.555398 154.420954 
L 321.555398 21.789375 
" clip-path="url(#p9c5067ec7c)" style="fill: none; stroke: #ffffff; stroke-width: 0.8; stroke-linecap: round"/>
     </g>
     <g id="text_6">
      <!-- 25 -->
      <g style="fill: #262626" transform="translate(315.99446 168.578766)scale(0.1 -0.1)">
       <use xlink:href="#ArialMT-32"/>
       <use xlink:href="#ArialMT-35" x="55.615234"/>
      </g>
     </g>
    </g>
    <g id="xtick_7">
     <g id="line2d_7">
      <path d="M 373.919034 154.420954 
L 373.919034 21.789375 
" clip-path="url(#p9c5067ec7c)" style="fill: none; stroke: #ffffff; stroke-width: 0.8; stroke-linecap: round"/>
     </g>
     <g id="text_7">
      <!-- 30 -->
      <g style="fill: #262626" transform="translate(368.358097 168.578766)scale(0.1 -0.1)">
       <defs>
        <path id="ArialMT-33" d="M 269 1209 
L 831 1284 
Q 928 806 1161 595 
Q 1394 384 1728 384 
Q 2125 384 2398 659 
Q 2672 934 2672 1341 
Q 2672 1728 2419 1979 
Q 2166 2231 1775 2231 
Q 1616 2231 1378 2169 
L 1441 2663 
Q 1497 2656 1531 2656 
Q 1891 2656 2178 2843 
Q 2466 3031 2466 3422 
Q 2466 3731 2256 3934 
Q 2047 4138 1716 4138 
Q 1388 4138 1169 3931 
Q 950 3725 888 3313 
L 325 3413 
Q 428 3978 793 4289 
Q 1159 4600 1703 4600 
Q 2078 4600 2393 4439 
Q 2709 4278 2876 4000 
Q 3044 3722 3044 3409 
Q 3044 3113 2884 2869 
Q 2725 2625 2413 2481 
Q 2819 2388 3044 2092 
Q 3269 1797 3269 1353 
Q 3269 753 2831 336 
Q 2394 -81 1725 -81 
Q 1122 -81 723 278 
Q 325 638 269 1209 
z
" transform="scale(0.015625)"/>
       </defs>
       <use xlink:href="#ArialMT-33"/>
       <use xlink:href="#ArialMT-30" x="55.615234"/>
      </g>
     </g>
    </g>
    <g id="text_8">
     <!-- generation -->
     <g style="fill: #262626" transform="translate(193.2 181.724079)scale(0.1 -0.1)">
      <defs>
       <path id="ArialMT-67" d="M 319 -275 
L 866 -356 
Q 900 -609 1056 -725 
Q 1266 -881 1628 -881 
Q 2019 -881 2231 -725 
Q 2444 -569 2519 -288 
Q 2563 -116 2559 434 
Q 2191 0 1641 0 
Q 956 0 581 494 
Q 206 988 206 1678 
Q 206 2153 378 2554 
Q 550 2956 876 3175 
Q 1203 3394 1644 3394 
Q 2231 3394 2613 2919 
L 2613 3319 
L 3131 3319 
L 3131 450 
Q 3131 -325 2973 -648 
Q 2816 -972 2473 -1159 
Q 2131 -1347 1631 -1347 
Q 1038 -1347 672 -1080 
Q 306 -813 319 -275 
z
M 784 1719 
Q 784 1066 1043 766 
Q 1303 466 1694 466 
Q 2081 466 2343 764 
Q 2606 1063 2606 1700 
Q 2606 2309 2336 2618 
Q 2066 2928 1684 2928 
Q 1309 2928 1046 2623 
Q 784 2319 784 1719 
z
" transform="scale(0.015625)"/>
       <path id="ArialMT-65" d="M 2694 1069 
L 3275 997 
Q 3138 488 2766 206 
Q 2394 -75 1816 -75 
Q 1088 -75 661 373 
Q 234 822 234 1631 
Q 234 2469 665 2931 
Q 1097 3394 1784 3394 
Q 2450 3394 2872 2941 
Q 3294 2488 3294 1666 
Q 3294 1616 3291 1516 
L 816 1516 
Q 847 969 1125 678 
Q 1403 388 1819 388 
Q 2128 388 2347 550 
Q 2566 713 2694 1069 
z
M 847 1978 
L 2700 1978 
Q 2663 2397 2488 2606 
Q 2219 2931 1791 2931 
Q 1403 2931 1139 2672 
Q 875 2413 847 1978 
z
" transform="scale(0.015625)"/>
       <path id="ArialMT-6e" d="M 422 0 
L 422 3319 
L 928 3319 
L 928 2847 
Q 1294 3394 1984 3394 
Q 2284 3394 2536 3286 
Q 2788 3178 2913 3003 
Q 3038 2828 3088 2588 
Q 3119 2431 3119 2041 
L 3119 0 
L 2556 0 
L 2556 2019 
Q 2556 2363 2490 2533 
Q 2425 2703 2258 2804 
Q 2091 2906 1866 2906 
Q 1506 2906 1245 2678 
Q 984 2450 984 1813 
L 984 0 
L 422 0 
z
" transform="scale(0.015625)"/>
       <path id="ArialMT-72" d="M 416 0 
L 416 3319 
L 922 3319 
L 922 2816 
Q 1116 3169 1280 3281 
Q 1444 3394 1641 3394 
Q 1925 3394 2219 3213 
L 2025 2691 
Q 1819 2813 1613 2813 
Q 1428 2813 1281 2702 
Q 1134 2591 1072 2394 
Q 978 2094 978 1738 
L 978 0 
L 416 0 
z
" transform="scale(0.015625)"/>
       <path id="ArialMT-61" d="M 2588 409 
Q 2275 144 1986 34 
Q 1697 -75 1366 -75 
Q 819 -75 525 192 
Q 231 459 231 875 
Q 231 1119 342 1320 
Q 453 1522 633 1644 
Q 813 1766 1038 1828 
Q 1203 1872 1538 1913 
Q 2219 1994 2541 2106 
Q 2544 2222 2544 2253 
Q 2544 2597 2384 2738 
Q 2169 2928 1744 2928 
Q 1347 2928 1158 2789 
Q 969 2650 878 2297 
L 328 2372 
Q 403 2725 575 2942 
Q 747 3159 1072 3276 
Q 1397 3394 1825 3394 
Q 2250 3394 2515 3294 
Q 2781 3194 2906 3042 
Q 3031 2891 3081 2659 
Q 3109 2516 3109 2141 
L 3109 1391 
Q 3109 606 3145 398 
Q 3181 191 3288 0 
L 2700 0 
Q 2613 175 2588 409 
z
M 2541 1666 
Q 2234 1541 1622 1453 
Q 1275 1403 1131 1340 
Q 988 1278 909 1158 
Q 831 1038 831 891 
Q 831 666 1001 516 
Q 1172 366 1500 366 
Q 1825 366 2078 508 
Q 2331 650 2450 897 
Q 2541 1088 2541 1459 
L 2541 1666 
z
" transform="scale(0.015625)"/>
       <path id="ArialMT-74" d="M 1650 503 
L 1731 6 
Q 1494 -44 1306 -44 
Q 1000 -44 831 53 
Q 663 150 594 308 
Q 525 466 525 972 
L 525 2881 
L 113 2881 
L 113 3319 
L 525 3319 
L 525 4141 
L 1084 4478 
L 1084 3319 
L 1650 3319 
L 1650 2881 
L 1084 2881 
L 1084 941 
Q 1084 700 1114 631 
Q 1144 563 1211 522 
Q 1278 481 1403 481 
Q 1497 481 1650 503 
z
" transform="scale(0.015625)"/>
       <path id="ArialMT-69" d="M 425 3934 
L 425 4581 
L 988 4581 
L 988 3934 
L 425 3934 
z
M 425 0 
L 425 3319 
L 988 3319 
L 988 0 
L 425 0 
z
" transform="scale(0.015625)"/>
       <path id="ArialMT-6f" d="M 213 1659 
Q 213 2581 725 3025 
Q 1153 3394 1769 3394 
Q 2453 3394 2887 2945 
Q 3322 2497 3322 1706 
Q 3322 1066 3130 698 
Q 2938 331 2570 128 
Q 2203 -75 1769 -75 
Q 1072 -75 642 372 
Q 213 819 213 1659 
z
M 791 1659 
Q 791 1022 1069 705 
Q 1347 388 1769 388 
Q 2188 388 2466 706 
Q 2744 1025 2744 1678 
Q 2744 2294 2464 2611 
Q 2184 2928 1769 2928 
Q 1347 2928 1069 2612 
Q 791 2297 791 1659 
z
" transform="scale(0.015625)"/>
      </defs>
      <use xlink:href="#ArialMT-67"/>
      <use xlink:href="#ArialMT-65" x="55.615234"/>
      <use xlink:href="#ArialMT-6e" x="111.230469"/>
      <use xlink:href="#ArialMT-65" x="166.845703"/>
      <use xlink:href="#ArialMT-72" x="222.460938"/>
      <use xlink:href="#ArialMT-61" x="255.761719"/>
      <use xlink:href="#ArialMT-74" x="311.376953"/>
      <use xlink:href="#ArialMT-69" x="339.160156"/>
      <use xlink:href="#ArialMT-6f" x="361.376953"/>
      <use xlink:href="#ArialMT-6e" x="416.992188"/>
     </g>
    </g>
   </g>
   <g id="matplotlib.axis_2">
    <g id="ytick_1">
     <g id="line2d_8">
      <path d="M 44.028125 153.351516 
L 389.628125 153.351516 
" clip-path="url(#p9c5067ec7c)" style="fill: none; stroke: #ffffff; stroke-width: 0.8; stroke-linecap: round"/>
     </g>
     <g id="text_9">
      <!-- 0 -->
      <g style="fill: #262626" transform="translate(31.467188 156.930422)scale(0.1 -0.1)">
       <use xlink:href="#ArialMT-30"/>
      </g>
     </g>
    </g>
    <g id="ytick_2">
     <g id="line2d_9">
      <path d="M 44.028125 130.635111 
L 389.628125 130.635111 
" clip-path="url(#p9c5067ec7c)" style="fill: none; stroke: #ffffff; stroke-width: 0.8; stroke-linecap: round"/>
     </g>
     <g id="text_10">
      <!-- 20 -->
      <g style="fill: #262626" transform="translate(25.90625 134.214017)scale(0.1 -0.1)">
       <use xlink:href="#ArialMT-32"/>
       <use xlink:href="#ArialMT-30" x="55.615234"/>
      </g>
     </g>
    </g>
    <g id="ytick_3">
     <g id="line2d_10">
      <path d="M 44.028125 107.918705 
L 389.628125 107.918705 
" clip-path="url(#p9c5067ec7c)" style="fill: none; stroke: #ffffff; stroke-width: 0.8; stroke-linecap: round"/>
     </g>
     <g id="text_11">
      <!-- 40 -->
      <g style="fill: #262626" transform="translate(25.90625 111.497611)scale(0.1 -0.1)">
       <defs>
        <path id="ArialMT-34" d="M 2069 0 
L 2069 1097 
L 81 1097 
L 81 1613 
L 2172 4581 
L 2631 4581 
L 2631 1613 
L 3250 1613 
L 3250 1097 
L 2631 1097 
L 2631 0 
L 2069 0 
z
M 2069 1613 
L 2069 3678 
L 634 1613 
L 2069 1613 
z
" transform="scale(0.015625)"/>
       </defs>
       <use xlink:href="#ArialMT-34"/>
       <use xlink:href="#ArialMT-30" x="55.615234"/>
      </g>
     </g>
    </g>
    <g id="ytick_4">
     <g id="line2d_11">
      <path d="M 44.028125 85.2023 
L 389.628125 85.2023 
" clip-path="url(#p9c5067ec7c)" style="fill: none; stroke: #ffffff; stroke-width: 0.8; stroke-linecap: round"/>
     </g>
     <g id="text_12">
      <!-- 60 -->
      <g style="fill: #262626" transform="translate(25.90625 88.781206)scale(0.1 -0.1)">
       <defs>
        <path id="ArialMT-36" d="M 3184 3459 
L 2625 3416 
Q 2550 3747 2413 3897 
Q 2184 4138 1850 4138 
Q 1581 4138 1378 3988 
Q 1113 3794 959 3422 
Q 806 3050 800 2363 
Q 1003 2672 1297 2822 
Q 1591 2972 1913 2972 
Q 2475 2972 2870 2558 
Q 3266 2144 3266 1488 
Q 3266 1056 3080 686 
Q 2894 316 2569 119 
Q 2244 -78 1831 -78 
Q 1128 -78 684 439 
Q 241 956 241 2144 
Q 241 3472 731 4075 
Q 1159 4600 1884 4600 
Q 2425 4600 2770 4297 
Q 3116 3994 3184 3459 
z
M 888 1484 
Q 888 1194 1011 928 
Q 1134 663 1356 523 
Q 1578 384 1822 384 
Q 2178 384 2434 671 
Q 2691 959 2691 1453 
Q 2691 1928 2437 2201 
Q 2184 2475 1800 2475 
Q 1419 2475 1153 2201 
Q 888 1928 888 1484 
z
" transform="scale(0.015625)"/>
       </defs>
       <use xlink:href="#ArialMT-36"/>
       <use xlink:href="#ArialMT-30" x="55.615234"/>
      </g>
     </g>
    </g>
    <g id="ytick_5">
     <g id="line2d_12">
      <path d="M 44.028125 62.485894 
L 389.628125 62.485894 
" clip-path="url(#p9c5067ec7c)" style="fill: none; stroke: #ffffff; stroke-width: 0.8; stroke-linecap: round"/>
     </g>
     <g id="text_13">
      <!-- 80 -->
      <g style="fill: #262626" transform="translate(25.90625 66.0648)scale(0.1 -0.1)">
       <defs>
        <path id="ArialMT-38" d="M 1131 2484 
Q 781 2613 612 2850 
Q 444 3088 444 3419 
Q 444 3919 803 4259 
Q 1163 4600 1759 4600 
Q 2359 4600 2725 4251 
Q 3091 3903 3091 3403 
Q 3091 3084 2923 2848 
Q 2756 2613 2416 2484 
Q 2838 2347 3058 2040 
Q 3278 1734 3278 1309 
Q 3278 722 2862 322 
Q 2447 -78 1769 -78 
Q 1091 -78 675 323 
Q 259 725 259 1325 
Q 259 1772 486 2073 
Q 713 2375 1131 2484 
z
M 1019 3438 
Q 1019 3113 1228 2906 
Q 1438 2700 1772 2700 
Q 2097 2700 2305 2904 
Q 2513 3109 2513 3406 
Q 2513 3716 2298 3927 
Q 2084 4138 1766 4138 
Q 1444 4138 1231 3931 
Q 1019 3725 1019 3438 
z
M 838 1322 
Q 838 1081 952 856 
Q 1066 631 1291 507 
Q 1516 384 1775 384 
Q 2178 384 2440 643 
Q 2703 903 2703 1303 
Q 2703 1709 2433 1975 
Q 2163 2241 1756 2241 
Q 1359 2241 1098 1978 
Q 838 1716 838 1322 
z
" transform="scale(0.015625)"/>
       </defs>
       <use xlink:href="#ArialMT-38"/>
       <use xlink:href="#ArialMT-30" x="55.615234"/>
      </g>
     </g>
    </g>
    <g id="ytick_6">
     <g id="line2d_13">
      <path d="M 44.028125 39.769488 
L 389.628125 39.769488 
" clip-path="url(#p9c5067ec7c)" style="fill: none; stroke: #ffffff; stroke-width: 0.8; stroke-linecap: round"/>
     </g>
     <g id="text_14">
      <!-- 100 -->
      <g style="fill: #262626" transform="translate(20.345313 43.348395)scale(0.1 -0.1)">
       <use xlink:href="#ArialMT-31"/>
       <use xlink:href="#ArialMT-30" x="55.615234"/>
       <use xlink:href="#ArialMT-30" x="111.230469"/>
      </g>
     </g>
    </g>
    <g id="text_15">
     <!-- fitness -->
     <g style="fill: #262626" transform="translate(14.357813 102.555164)rotate(-90)scale(0.1 -0.1)">
      <defs>
       <path id="ArialMT-66" d="M 556 0 
L 556 2881 
L 59 2881 
L 59 3319 
L 556 3319 
L 556 3672 
Q 556 4006 616 4169 
Q 697 4388 901 4523 
Q 1106 4659 1475 4659 
Q 1713 4659 2000 4603 
L 1916 4113 
Q 1741 4144 1584 4144 
Q 1328 4144 1222 4034 
Q 1116 3925 1116 3625 
L 1116 3319 
L 1763 3319 
L 1763 2881 
L 1116 2881 
L 1116 0 
L 556 0 
z
" transform="scale(0.015625)"/>
       <path id="ArialMT-73" d="M 197 991 
L 753 1078 
Q 800 744 1014 566 
Q 1228 388 1613 388 
Q 2000 388 2187 545 
Q 2375 703 2375 916 
Q 2375 1106 2209 1216 
Q 2094 1291 1634 1406 
Q 1016 1563 777 1677 
Q 538 1791 414 1992 
Q 291 2194 291 2438 
Q 291 2659 392 2848 
Q 494 3038 669 3163 
Q 800 3259 1026 3326 
Q 1253 3394 1513 3394 
Q 1903 3394 2198 3281 
Q 2494 3169 2634 2976 
Q 2775 2784 2828 2463 
L 2278 2388 
Q 2241 2644 2061 2787 
Q 1881 2931 1553 2931 
Q 1166 2931 1000 2803 
Q 834 2675 834 2503 
Q 834 2394 903 2306 
Q 972 2216 1119 2156 
Q 1203 2125 1616 2013 
Q 2213 1853 2448 1751 
Q 2684 1650 2818 1456 
Q 2953 1263 2953 975 
Q 2953 694 2789 445 
Q 2625 197 2315 61 
Q 2006 -75 1616 -75 
Q 969 -75 630 194 
Q 291 463 197 991 
z
" transform="scale(0.015625)"/>
      </defs>
      <use xlink:href="#ArialMT-66"/>
      <use xlink:href="#ArialMT-69" x="27.783203"/>
      <use xlink:href="#ArialMT-74" x="50"/>
      <use xlink:href="#ArialMT-6e" x="77.783203"/>
      <use xlink:href="#ArialMT-65" x="133.398438"/>
      <use xlink:href="#ArialMT-73" x="189.013672"/>
      <use xlink:href="#ArialMT-73" x="239.013672"/>
     </g>
    </g>
   </g>
   <g id="PolyCollection_1">
    <defs>
     <path id="mfdcc8ba3ec" d="M 59.737216 -426.494186 
L 59.737216 -415.58279 
L 70.209943 -414.004942 
L 80.68267 -441.889655 
L 91.155398 -453.10698 
L 101.628125 -464.546321 
L 112.100852 -466.653084 
L 122.57358 -466.342616 
L 133.046307 -464.09881 
L 143.519034 -464.29171 
L 153.991761 -458.90299 
L 164.464489 -460.080638 
L 174.937216 -460.777995 
L 185.409943 -462.187499 
L 195.88267 -463.127642 
L 206.355398 -465.346897 
L 216.828125 -466.142636 
L 227.300852 -467.301305 
L 237.77358 -511.043272 
L 248.246307 -509.779046 
L 258.719034 -511.367327 
L 269.191761 -505.576244 
L 279.664489 -507.372537 
L 290.137216 -501.189295 
L 300.609943 -510.789959 
L 311.08267 -511.420089 
L 321.555398 -511.635099 
L 332.028125 -511.880397 
L 342.500852 -509.610165 
L 352.97358 -509.353374 
L 363.446307 -511.063777 
L 373.919034 -508.265485 
L 373.919034 -515.37289 
L 373.919034 -515.37289 
L 363.446307 -514.080822 
L 352.97358 -514.602742 
L 342.500852 -514.378484 
L 332.028125 -513.71347 
L 321.555398 -513.781362 
L 311.08267 -514.055949 
L 300.609943 -514.005456 
L 290.137216 -517.441059 
L 279.664489 -513.854385 
L 269.191761 -515.443747 
L 258.719034 -513.62553 
L 248.246307 -513.480484 
L 237.77358 -513.701133 
L 227.300852 -534.579104 
L 216.828125 -533.629524 
L 206.355398 -531.96536 
L 195.88267 -530.354187 
L 185.409943 -529.024699 
L 174.937216 -531.36934 
L 164.464489 -529.111603 
L 153.991761 -530.888424 
L 143.519034 -530.711462 
L 133.046307 -530.333042 
L 122.57358 -532.359245 
L 112.100852 -533.353649 
L 101.628125 -529.860443 
L 91.155398 -524.413323 
L 80.68267 -515.986936 
L 70.209943 -496.936791 
L 59.737216 -426.494186 
z
" style="stroke: #ff0000; stroke-opacity: 0.2"/>
    </defs>
    <g clip-path="url(#p9c5067ec7c)">
     <use xlink:href="#mfdcc8ba3ec" x="0" y="562.397188" style="fill: #ff0000; fill-opacity: 0.2; stroke: #ff0000; stroke-opacity: 0.2"/>
    </g>
   </g>
   <g id="PolyCollection_2">
    <defs>
     <path id="m1021469af7" d="M 59.737216 -423.537008 
L 59.737216 -415.600651 
L 70.209943 -437.80797 
L 80.68267 -453.30374 
L 91.155398 -474.273085 
L 101.628125 -489.630533 
L 112.100852 -508.633428 
L 122.57358 -498.184752 
L 133.046307 -500.886479 
L 143.519034 -503.439828 
L 153.991761 -503.963287 
L 164.464489 -501.984883 
L 174.937216 -508.089746 
L 185.409943 -501.771919 
L 195.88267 -509.782006 
L 206.355398 -507.904835 
L 216.828125 -509.494162 
L 227.300852 -509.804024 
L 237.77358 -511.263522 
L 248.246307 -511.168387 
L 258.719034 -510.547783 
L 269.191761 -511.468916 
L 279.664489 -511.164984 
L 290.137216 -510.80099 
L 300.609943 -510.044248 
L 311.08267 -510.636178 
L 321.555398 -511.469653 
L 332.028125 -511.570354 
L 342.500852 -511.439195 
L 352.97358 -499.765648 
L 363.446307 -510.046889 
L 373.919034 -508.233272 
L 373.919034 -515.642933 
L 373.919034 -515.642933 
L 363.446307 -514.451826 
L 352.97358 -519.007483 
L 342.500852 -514.219897 
L 332.028125 -514.306708 
L 321.555398 -514.104794 
L 311.08267 -513.886233 
L 300.609943 -513.859956 
L 290.137216 -513.384181 
L 279.664489 -514.140763 
L 269.191761 -514.279714 
L 258.719034 -513.915973 
L 248.246307 -514.075904 
L 237.77358 -514.131131 
L 227.300852 -513.474832 
L 216.828125 -513.968057 
L 206.355398 -514.599007 
L 195.88267 -514.099082 
L 185.409943 -515.094644 
L 174.937216 -514.43455 
L 164.464489 -515.452966 
L 153.991761 -514.02386 
L 143.519034 -515.194885 
L 133.046307 -516.585642 
L 122.57358 -516.959114 
L 112.100852 -513.269962 
L 101.628125 -515.439492 
L 91.155398 -523.274362 
L 80.68267 -503.104345 
L 70.209943 -480.416117 
L 59.737216 -423.537008 
z
" style="stroke: #4169e1; stroke-opacity: 0.2"/>
    </defs>
    <g clip-path="url(#p9c5067ec7c)">
     <use xlink:href="#m1021469af7" x="0" y="562.397188" style="fill: #4169e1; fill-opacity: 0.2; stroke: #4169e1; stroke-opacity: 0.2"/>
    </g>
   </g>
   <g id="line2d_14">
    <path d="M 59.737216 141.3587 
L 70.209943 106.926321 
L 80.68267 83.458892 
L 91.155398 73.637036 
L 101.628125 65.193806 
L 112.100852 62.393821 
L 122.57358 63.046257 
L 133.046307 65.181262 
L 143.519034 64.895601 
L 153.991761 67.50148 
L 164.464489 67.801067 
L 174.937216 66.32352 
L 185.409943 66.791088 
L 195.88267 65.656273 
L 206.355398 63.741059 
L 216.828125 62.511107 
L 227.300852 61.456983 
L 237.77358 50.024985 
L 248.246307 50.767423 
L 258.719034 49.900759 
L 269.191761 51.887192 
L 279.664489 51.783726 
L 290.137216 53.08201 
L 300.609943 49.99948 
L 311.08267 49.659169 
L 321.555398 49.688957 
L 332.028125 49.600254 
L 342.500852 50.402863 
L 352.97358 50.419129 
L 363.446307 49.824888 
L 373.919034 50.578 
" clip-path="url(#p9c5067ec7c)" style="fill: none; stroke: #ff0000; stroke-width: 1.5; stroke-linecap: round"/>
   </g>
   <g id="line2d_15">
    <path d="M 59.737216 142.828358 
L 70.209943 103.285144 
L 80.68267 84.193145 
L 91.155398 63.623464 
L 101.628125 59.862175 
L 112.100852 51.445493 
L 122.57358 54.825254 
L 133.046307 53.661127 
L 143.519034 53.079831 
L 153.991761 53.403614 
L 164.464489 53.678263 
L 174.937216 51.13504 
L 185.409943 53.963906 
L 195.88267 50.456643 
L 206.355398 51.145266 
L 216.828125 50.666078 
L 227.300852 50.757759 
L 237.77358 49.699861 
L 248.246307 49.775042 
L 258.719034 50.165309 
L 269.191761 49.522872 
L 279.664489 49.744314 
L 290.137216 50.304602 
L 300.609943 50.445086 
L 311.08267 50.135982 
L 321.555398 49.609964 
L 332.028125 49.458656 
L 342.500852 49.567642 
L 352.97358 53.010622 
L 363.446307 50.14783 
L 373.919034 50.459085 
" clip-path="url(#p9c5067ec7c)" style="fill: none; stroke: #4169e1; stroke-width: 1.5; stroke-linecap: round"/>
   </g>
   <g id="patch_3">
    <path d="M 44.028125 154.420954 
L 44.028125 21.789375 
" style="fill: none; stroke: #ffffff; stroke-width: 0.8; stroke-linejoin: miter; stroke-linecap: square"/>
   </g>
   <g id="patch_4">
    <path d="M 389.628125 154.420954 
L 389.628125 21.789375 
" style="fill: none; stroke: #ffffff; stroke-width: 0.8; stroke-linejoin: miter; stroke-linecap: square"/>
   </g>
   <g id="patch_5">
    <path d="M 44.028125 154.420954 
L 389.628125 154.420954 
" style="fill: none; stroke: #ffffff; stroke-width: 0.8; stroke-linejoin: miter; stroke-linecap: square"/>
   </g>
   <g id="patch_6">
    <path d="M 44.028125 21.789375 
L 389.628125 21.789375 
" style="fill: none; stroke: #ffffff; stroke-width: 0.8; stroke-linejoin: miter; stroke-linecap: square"/>
   </g>
   <g id="text_16">
    <!-- enemy: Airman -->
    <g style="fill: #262626" transform="translate(176.812813 15.789375)scale(0.12 -0.12)">
     <defs>
      <path id="ArialMT-6d" d="M 422 0 
L 422 3319 
L 925 3319 
L 925 2853 
Q 1081 3097 1340 3245 
Q 1600 3394 1931 3394 
Q 2300 3394 2536 3241 
Q 2772 3088 2869 2813 
Q 3263 3394 3894 3394 
Q 4388 3394 4653 3120 
Q 4919 2847 4919 2278 
L 4919 0 
L 4359 0 
L 4359 2091 
Q 4359 2428 4304 2576 
Q 4250 2725 4106 2815 
Q 3963 2906 3769 2906 
Q 3419 2906 3187 2673 
Q 2956 2441 2956 1928 
L 2956 0 
L 2394 0 
L 2394 2156 
Q 2394 2531 2256 2718 
Q 2119 2906 1806 2906 
Q 1569 2906 1367 2781 
Q 1166 2656 1075 2415 
Q 984 2175 984 1722 
L 984 0 
L 422 0 
z
" transform="scale(0.015625)"/>
      <path id="ArialMT-79" d="M 397 -1278 
L 334 -750 
Q 519 -800 656 -800 
Q 844 -800 956 -737 
Q 1069 -675 1141 -563 
Q 1194 -478 1313 -144 
Q 1328 -97 1363 -6 
L 103 3319 
L 709 3319 
L 1400 1397 
Q 1534 1031 1641 628 
Q 1738 1016 1872 1384 
L 2581 3319 
L 3144 3319 
L 1881 -56 
Q 1678 -603 1566 -809 
Q 1416 -1088 1222 -1217 
Q 1028 -1347 759 -1347 
Q 597 -1347 397 -1278 
z
" transform="scale(0.015625)"/>
      <path id="ArialMT-3a" d="M 578 2678 
L 578 3319 
L 1219 3319 
L 1219 2678 
L 578 2678 
z
M 578 0 
L 578 641 
L 1219 641 
L 1219 0 
L 578 0 
z
" transform="scale(0.015625)"/>
      <path id="ArialMT-20" transform="scale(0.015625)"/>
      <path id="ArialMT-41" d="M -9 0 
L 1750 4581 
L 2403 4581 
L 4278 0 
L 3588 0 
L 3053 1388 
L 1138 1388 
L 634 0 
L -9 0 
z
M 1313 1881 
L 2866 1881 
L 2388 3150 
Q 2169 3728 2063 4100 
Q 1975 3659 1816 3225 
L 1313 1881 
z
" transform="scale(0.015625)"/>
     </defs>
     <use xlink:href="#ArialMT-65"/>
     <use xlink:href="#ArialMT-6e" x="55.615234"/>
     <use xlink:href="#ArialMT-65" x="111.230469"/>
     <use xlink:href="#ArialMT-6d" x="166.845703"/>
     <use xlink:href="#ArialMT-79" x="250.146484"/>
     <use xlink:href="#ArialMT-3a" x="300.146484"/>
     <use xlink:href="#ArialMT-20" x="327.929688"/>
     <use xlink:href="#ArialMT-41" x="350.212891"/>
     <use xlink:href="#ArialMT-69" x="416.912109"/>
     <use xlink:href="#ArialMT-72" x="439.128906"/>
     <use xlink:href="#ArialMT-6d" x="472.429688"/>
     <use xlink:href="#ArialMT-61" x="555.730469"/>
     <use xlink:href="#ArialMT-6e" x="611.345703"/>
    </g>
   </g>
  </g>
  <g id="axes_2">
   <g id="patch_7">
    <path d="M 44.028125 340.105164 
L 389.628125 340.105164 
L 389.628125 207.473586 
L 44.028125 207.473586 
z
" style="fill: #e6e6e6"/>
   </g>
   <g id="matplotlib.axis_3">
    <g id="xtick_8">
     <g id="line2d_16">
      <path d="M 59.737216 340.105164 
L 59.737216 207.473586 
" clip-path="url(#pd57b987625)" style="fill: none; stroke: #ffffff; stroke-width: 0.8; stroke-linecap: round"/>
     </g>
     <g id="text_17">
      <!-- 0 -->
      <g style="fill: #262626" transform="translate(56.956747 354.262977)scale(0.1 -0.1)">
       <use xlink:href="#ArialMT-30"/>
      </g>
     </g>
    </g>
    <g id="xtick_9">
     <g id="line2d_17">
      <path d="M 112.100852 340.105164 
L 112.100852 207.473586 
" clip-path="url(#pd57b987625)" style="fill: none; stroke: #ffffff; stroke-width: 0.8; stroke-linecap: round"/>
     </g>
     <g id="text_18">
      <!-- 5 -->
      <g style="fill: #262626" transform="translate(109.320384 354.262977)scale(0.1 -0.1)">
       <use xlink:href="#ArialMT-35"/>
      </g>
     </g>
    </g>
    <g id="xtick_10">
     <g id="line2d_18">
      <path d="M 164.464489 340.105164 
L 164.464489 207.473586 
" clip-path="url(#pd57b987625)" style="fill: none; stroke: #ffffff; stroke-width: 0.8; stroke-linecap: round"/>
     </g>
     <g id="text_19">
      <!-- 10 -->
      <g style="fill: #262626" transform="translate(158.903551 354.262977)scale(0.1 -0.1)">
       <use xlink:href="#ArialMT-31"/>
       <use xlink:href="#ArialMT-30" x="55.615234"/>
      </g>
     </g>
    </g>
    <g id="xtick_11">
     <g id="line2d_19">
      <path d="M 216.828125 340.105164 
L 216.828125 207.473586 
" clip-path="url(#pd57b987625)" style="fill: none; stroke: #ffffff; stroke-width: 0.8; stroke-linecap: round"/>
     </g>
     <g id="text_20">
      <!-- 15 -->
      <g style="fill: #262626" transform="translate(211.267188 354.262977)scale(0.1 -0.1)">
       <use xlink:href="#ArialMT-31"/>
       <use xlink:href="#ArialMT-35" x="55.615234"/>
      </g>
     </g>
    </g>
    <g id="xtick_12">
     <g id="line2d_20">
      <path d="M 269.191761 340.105164 
L 269.191761 207.473586 
" clip-path="url(#pd57b987625)" style="fill: none; stroke: #ffffff; stroke-width: 0.8; stroke-linecap: round"/>
     </g>
     <g id="text_21">
      <!-- 20 -->
      <g style="fill: #262626" transform="translate(263.630824 354.262977)scale(0.1 -0.1)">
       <use xlink:href="#ArialMT-32"/>
       <use xlink:href="#ArialMT-30" x="55.615234"/>
      </g>
     </g>
    </g>
    <g id="xtick_13">
     <g id="line2d_21">
      <path d="M 321.555398 340.105164 
L 321.555398 207.473586 
" clip-path="url(#pd57b987625)" style="fill: none; stroke: #ffffff; stroke-width: 0.8; stroke-linecap: round"/>
     </g>
     <g id="text_22">
      <!-- 25 -->
      <g style="fill: #262626" transform="translate(315.99446 354.262977)scale(0.1 -0.1)">
       <use xlink:href="#ArialMT-32"/>
       <use xlink:href="#ArialMT-35" x="55.615234"/>
      </g>
     </g>
    </g>
    <g id="xtick_14">
     <g id="line2d_22">
      <path d="M 373.919034 340.105164 
L 373.919034 207.473586 
" clip-path="url(#pd57b987625)" style="fill: none; stroke: #ffffff; stroke-width: 0.8; stroke-linecap: round"/>
     </g>
     <g id="text_23">
      <!-- 30 -->
      <g style="fill: #262626" transform="translate(368.358097 354.262977)scale(0.1 -0.1)">
       <use xlink:href="#ArialMT-33"/>
       <use xlink:href="#ArialMT-30" x="55.615234"/>
      </g>
     </g>
    </g>
    <g id="text_24">
     <!-- generation -->
     <g style="fill: #262626" transform="translate(193.2 367.408289)scale(0.1 -0.1)">
      <use xlink:href="#ArialMT-67"/>
      <use xlink:href="#ArialMT-65" x="55.615234"/>
      <use xlink:href="#ArialMT-6e" x="111.230469"/>
      <use xlink:href="#ArialMT-65" x="166.845703"/>
      <use xlink:href="#ArialMT-72" x="222.460938"/>
      <use xlink:href="#ArialMT-61" x="255.761719"/>
      <use xlink:href="#ArialMT-74" x="311.376953"/>
      <use xlink:href="#ArialMT-69" x="339.160156"/>
      <use xlink:href="#ArialMT-6f" x="361.376953"/>
      <use xlink:href="#ArialMT-6e" x="416.992188"/>
     </g>
    </g>
   </g>
   <g id="matplotlib.axis_4">
    <g id="ytick_7">
     <g id="line2d_23">
      <path d="M 44.028125 329.385379 
L 389.628125 329.385379 
" clip-path="url(#pd57b987625)" style="fill: none; stroke: #ffffff; stroke-width: 0.8; stroke-linecap: round"/>
     </g>
     <g id="text_25">
      <!-- 0 -->
      <g style="fill: #262626" transform="translate(31.467188 332.964285)scale(0.1 -0.1)">
       <use xlink:href="#ArialMT-30"/>
      </g>
     </g>
    </g>
    <g id="ytick_8">
     <g id="line2d_24">
      <path d="M 44.028125 289.242464 
L 389.628125 289.242464 
" clip-path="url(#pd57b987625)" style="fill: none; stroke: #ffffff; stroke-width: 0.8; stroke-linecap: round"/>
     </g>
     <g id="text_26">
      <!-- 20 -->
      <g style="fill: #262626" transform="translate(25.90625 292.821371)scale(0.1 -0.1)">
       <use xlink:href="#ArialMT-32"/>
       <use xlink:href="#ArialMT-30" x="55.615234"/>
      </g>
     </g>
    </g>
    <g id="ytick_9">
     <g id="line2d_25">
      <path d="M 44.028125 249.09955 
L 389.628125 249.09955 
" clip-path="url(#pd57b987625)" style="fill: none; stroke: #ffffff; stroke-width: 0.8; stroke-linecap: round"/>
     </g>
     <g id="text_27">
      <!-- 40 -->
      <g style="fill: #262626" transform="translate(25.90625 252.678456)scale(0.1 -0.1)">
       <use xlink:href="#ArialMT-34"/>
       <use xlink:href="#ArialMT-30" x="55.615234"/>
      </g>
     </g>
    </g>
    <g id="ytick_10">
     <g id="line2d_26">
      <path d="M 44.028125 208.956635 
L 389.628125 208.956635 
" clip-path="url(#pd57b987625)" style="fill: none; stroke: #ffffff; stroke-width: 0.8; stroke-linecap: round"/>
     </g>
     <g id="text_28">
      <!-- 60 -->
      <g style="fill: #262626" transform="translate(25.90625 212.535541)scale(0.1 -0.1)">
       <use xlink:href="#ArialMT-36"/>
       <use xlink:href="#ArialMT-30" x="55.615234"/>
      </g>
     </g>
    </g>
    <g id="text_29">
     <!-- fitness -->
     <g style="fill: #262626" transform="translate(19.91875 288.239375)rotate(-90)scale(0.1 -0.1)">
      <use xlink:href="#ArialMT-66"/>
      <use xlink:href="#ArialMT-69" x="27.783203"/>
      <use xlink:href="#ArialMT-74" x="50"/>
      <use xlink:href="#ArialMT-6e" x="77.783203"/>
      <use xlink:href="#ArialMT-65" x="133.398438"/>
      <use xlink:href="#ArialMT-73" x="189.013672"/>
      <use xlink:href="#ArialMT-73" x="239.013672"/>
     </g>
    </g>
   </g>
   <g id="PolyCollection_3">
    <defs>
     <path id="m96862d0fc6" d="M 59.737216 -235.252579 
L 59.737216 -230.999855 
L 70.209943 -255.172837 
L 80.68267 -266.054027 
L 91.155398 -272.80175 
L 101.628125 -272.794682 
L 112.100852 -263.080661 
L 122.57358 -264.714157 
L 133.046307 -273.256912 
L 143.519034 -269.955318 
L 153.991761 -269.825677 
L 164.464489 -268.350336 
L 174.937216 -272.120247 
L 185.409943 -263.359655 
L 195.88267 -269.187427 
L 206.355398 -267.273834 
L 216.828125 -267.317945 
L 227.300852 -268.629015 
L 237.77358 -263.989786 
L 248.246307 -265.173287 
L 258.719034 -265.68488 
L 269.191761 -266.403619 
L 279.664489 -269.74941 
L 290.137216 -267.18086 
L 300.609943 -271.129792 
L 311.08267 -264.307114 
L 321.555398 -271.538638 
L 332.028125 -268.928548 
L 342.500852 -274.140907 
L 352.97358 -270.908846 
L 363.446307 -273.744621 
L 373.919034 -274.685109 
L 373.919034 -346.67892 
L 373.919034 -346.67892 
L 363.446307 -340.360225 
L 352.97358 -348.894894 
L 342.500852 -333.76386 
L 332.028125 -340.479374 
L 321.555398 -337.18651 
L 311.08267 -340.126819 
L 300.609943 -335.56919 
L 290.137216 -333.469539 
L 279.664489 -334.566955 
L 269.191761 -333.524573 
L 258.719034 -331.627654 
L 248.246307 -322.536265 
L 237.77358 -321.916091 
L 227.300852 -323.973534 
L 216.828125 -330.221331 
L 206.355398 -326.306317 
L 195.88267 -324.142684 
L 185.409943 -317.881018 
L 174.937216 -314.44804 
L 164.464489 -324.232963 
L 153.991761 -310.179399 
L 143.519034 -304.958452 
L 133.046307 -299.589543 
L 122.57358 -312.01246 
L 112.100852 -311.567683 
L 101.628125 -289.350217 
L 91.155398 -288.399723 
L 80.68267 -286.01321 
L 70.209943 -273.93199 
L 59.737216 -235.252579 
z
" style="stroke: #ff0000; stroke-opacity: 0.2"/>
    </defs>
    <g clip-path="url(#pd57b987625)">
     <use xlink:href="#m96862d0fc6" x="0" y="562.397188" style="fill: #ff0000; fill-opacity: 0.2; stroke: #ff0000; stroke-opacity: 0.2"/>
    </g>
   </g>
   <g id="PolyCollection_4">
    <defs>
     <path id="m75d254eb99" d="M 59.737216 -234.679928 
L 59.737216 -228.320731 
L 70.209943 -240.51035 
L 80.68267 -252.631655 
L 91.155398 -270.13119 
L 101.628125 -276.263831 
L 112.100852 -273.098942 
L 122.57358 -271.797114 
L 133.046307 -273.087863 
L 143.519034 -275.543353 
L 153.991761 -276.270954 
L 164.464489 -275.715604 
L 174.937216 -273.716109 
L 185.409943 -272.086244 
L 195.88267 -275.338477 
L 206.355398 -272.407244 
L 216.828125 -272.90187 
L 227.300852 -270.373467 
L 237.77358 -270.755296 
L 248.246307 -269.633956 
L 258.719034 -260.924958 
L 269.191761 -267.303122 
L 279.664489 -269.786912 
L 290.137216 -272.274156 
L 300.609943 -267.413848 
L 311.08267 -265.048697 
L 321.555398 -265.172978 
L 332.028125 -265.850221 
L 342.500852 -260.407573 
L 352.97358 -264.974722 
L 363.446307 -267.711189 
L 373.919034 -265.389775 
L 373.919034 -344.615599 
L 373.919034 -344.615599 
L 363.446307 -333.569271 
L 352.97358 -337.471071 
L 342.500852 -341.530252 
L 332.028125 -330.62045 
L 321.555398 -323.459504 
L 311.08267 -318.628217 
L 300.609943 -321.915502 
L 290.137216 -311.887792 
L 279.664489 -314.099933 
L 269.191761 -322.222036 
L 258.719034 -326.116748 
L 248.246307 -330.055678 
L 237.77358 -312.123434 
L 227.300852 -316.715129 
L 216.828125 -317.540994 
L 206.355398 -306.764161 
L 195.88267 -310.118538 
L 185.409943 -312.178133 
L 174.937216 -305.498578 
L 164.464489 -302.523108 
L 153.991761 -295.510453 
L 143.519034 -298.062101 
L 133.046307 -285.659053 
L 122.57358 -289.793744 
L 112.100852 -291.004416 
L 101.628125 -289.101789 
L 91.155398 -287.938634 
L 80.68267 -282.128277 
L 70.209943 -274.584497 
L 59.737216 -234.679928 
z
" style="stroke: #4169e1; stroke-opacity: 0.2"/>
    </defs>
    <g clip-path="url(#pd57b987625)">
     <use xlink:href="#m75d254eb99" x="0" y="562.397188" style="fill: #4169e1; fill-opacity: 0.2; stroke: #4169e1; stroke-opacity: 0.2"/>
    </g>
   </g>
   <g id="line2d_27">
    <path d="M 59.737216 329.270971 
L 70.209943 297.844774 
L 80.68267 286.363569 
L 91.155398 281.796451 
L 101.628125 281.324738 
L 112.100852 275.073016 
L 122.57358 274.033879 
L 133.046307 275.97396 
L 143.519034 274.940303 
L 153.991761 272.39465 
L 164.464489 266.105538 
L 174.937216 269.113044 
L 185.409943 271.776851 
L 195.88267 265.732132 
L 206.355398 265.607112 
L 216.828125 263.62755 
L 227.300852 266.095913 
L 237.77358 269.444249 
L 248.246307 268.542412 
L 258.719034 263.740921 
L 269.191761 262.433091 
L 279.664489 260.239005 
L 290.137216 262.071988 
L 300.609943 259.047696 
L 311.08267 260.180221 
L 321.555398 258.034613 
L 332.028125 257.693226 
L 342.500852 258.444804 
L 352.97358 252.495318 
L 363.446307 255.344764 
L 373.919034 251.715173 
" clip-path="url(#pd57b987625)" style="fill: none; stroke: #ff0000; stroke-width: 1.5; stroke-linecap: round"/>
   </g>
   <g id="line2d_28">
    <path d="M 59.737216 330.896858 
L 70.209943 304.849764 
L 80.68267 295.017221 
L 91.155398 283.362276 
L 101.628125 279.714378 
L 112.100852 280.345508 
L 122.57358 281.601759 
L 133.046307 283.023729 
L 143.519034 275.594461 
L 153.991761 276.506484 
L 164.464489 273.277832 
L 174.937216 272.789844 
L 185.409943 270.264999 
L 195.88267 269.66868 
L 206.355398 272.811485 
L 216.828125 267.175755 
L 227.300852 268.85289 
L 237.77358 270.957823 
L 248.246307 262.552371 
L 258.719034 268.876334 
L 269.191761 267.634609 
L 279.664489 270.453765 
L 290.137216 270.316214 
L 300.609943 267.732513 
L 311.08267 270.55873 
L 321.555398 268.080947 
L 332.028125 264.161852 
L 342.500852 261.428275 
L 352.97358 261.174291 
L 363.446307 261.756958 
L 373.919034 257.394501 
" clip-path="url(#pd57b987625)" style="fill: none; stroke: #4169e1; stroke-width: 1.5; stroke-linecap: round"/>
   </g>
   <g id="patch_8">
    <path d="M 44.028125 340.105164 
L 44.028125 207.473586 
" style="fill: none; stroke: #ffffff; stroke-width: 0.8; stroke-linejoin: miter; stroke-linecap: square"/>
   </g>
   <g id="patch_9">
    <path d="M 389.628125 340.105164 
L 389.628125 207.473586 
" style="fill: none; stroke: #ffffff; stroke-width: 0.8; stroke-linejoin: miter; stroke-linecap: square"/>
   </g>
   <g id="patch_10">
    <path d="M 44.028125 340.105164 
L 389.628125 340.105164 
" style="fill: none; stroke: #ffffff; stroke-width: 0.8; stroke-linejoin: miter; stroke-linecap: square"/>
   </g>
   <g id="patch_11">
    <path d="M 44.028125 207.473586 
L 389.628125 207.473586 
" style="fill: none; stroke: #ffffff; stroke-width: 0.8; stroke-linejoin: miter; stroke-linecap: square"/>
   </g>
   <g id="text_30">
    <!-- enemy: Heatman -->
    <g style="fill: #262626" transform="translate(171.142812 201.473586)scale(0.12 -0.12)">
     <defs>
      <path id="ArialMT-48" d="M 513 0 
L 513 4581 
L 1119 4581 
L 1119 2700 
L 3500 2700 
L 3500 4581 
L 4106 4581 
L 4106 0 
L 3500 0 
L 3500 2159 
L 1119 2159 
L 1119 0 
L 513 0 
z
" transform="scale(0.015625)"/>
     </defs>
     <use xlink:href="#ArialMT-65"/>
     <use xlink:href="#ArialMT-6e" x="55.615234"/>
     <use xlink:href="#ArialMT-65" x="111.230469"/>
     <use xlink:href="#ArialMT-6d" x="166.845703"/>
     <use xlink:href="#ArialMT-79" x="250.146484"/>
     <use xlink:href="#ArialMT-3a" x="300.146484"/>
     <use xlink:href="#ArialMT-20" x="327.929688"/>
     <use xlink:href="#ArialMT-48" x="355.712891"/>
     <use xlink:href="#ArialMT-65" x="427.929688"/>
     <use xlink:href="#ArialMT-61" x="483.544922"/>
     <use xlink:href="#ArialMT-74" x="539.160156"/>
     <use xlink:href="#ArialMT-6d" x="566.943359"/>
     <use xlink:href="#ArialMT-61" x="650.244141"/>
     <use xlink:href="#ArialMT-6e" x="705.859375"/>
    </g>
   </g>
  </g>
  <g id="axes_3">
   <g id="patch_12">
    <path d="M 44.028125 525.789375 
L 389.628125 525.789375 
L 389.628125 393.157796 
L 44.028125 393.157796 
z
" style="fill: #e6e6e6"/>
   </g>
   <g id="matplotlib.axis_5">
    <g id="xtick_15">
     <g id="line2d_29">
      <path d="M 59.737216 525.789375 
L 59.737216 393.157796 
" clip-path="url(#paab97be91d)" style="fill: none; stroke: #ffffff; stroke-width: 0.8; stroke-linecap: round"/>
     </g>
     <g id="text_31">
      <!-- 0 -->
      <g style="fill: #262626" transform="translate(56.956747 539.947188)scale(0.1 -0.1)">
       <use xlink:href="#ArialMT-30"/>
      </g>
     </g>
    </g>
    <g id="xtick_16">
     <g id="line2d_30">
      <path d="M 112.100852 525.789375 
L 112.100852 393.157796 
" clip-path="url(#paab97be91d)" style="fill: none; stroke: #ffffff; stroke-width: 0.8; stroke-linecap: round"/>
     </g>
     <g id="text_32">
      <!-- 5 -->
      <g style="fill: #262626" transform="translate(109.320384 539.947188)scale(0.1 -0.1)">
       <use xlink:href="#ArialMT-35"/>
      </g>
     </g>
    </g>
    <g id="xtick_17">
     <g id="line2d_31">
      <path d="M 164.464489 525.789375 
L 164.464489 393.157796 
" clip-path="url(#paab97be91d)" style="fill: none; stroke: #ffffff; stroke-width: 0.8; stroke-linecap: round"/>
     </g>
     <g id="text_33">
      <!-- 10 -->
      <g style="fill: #262626" transform="translate(158.903551 539.947188)scale(0.1 -0.1)">
       <use xlink:href="#ArialMT-31"/>
       <use xlink:href="#ArialMT-30" x="55.615234"/>
      </g>
     </g>
    </g>
    <g id="xtick_18">
     <g id="line2d_32">
      <path d="M 216.828125 525.789375 
L 216.828125 393.157796 
" clip-path="url(#paab97be91d)" style="fill: none; stroke: #ffffff; stroke-width: 0.8; stroke-linecap: round"/>
     </g>
     <g id="text_34">
      <!-- 15 -->
      <g style="fill: #262626" transform="translate(211.267188 539.947188)scale(0.1 -0.1)">
       <use xlink:href="#ArialMT-31"/>
       <use xlink:href="#ArialMT-35" x="55.615234"/>
      </g>
     </g>
    </g>
    <g id="xtick_19">
     <g id="line2d_33">
      <path d="M 269.191761 525.789375 
L 269.191761 393.157796 
" clip-path="url(#paab97be91d)" style="fill: none; stroke: #ffffff; stroke-width: 0.8; stroke-linecap: round"/>
     </g>
     <g id="text_35">
      <!-- 20 -->
      <g style="fill: #262626" transform="translate(263.630824 539.947188)scale(0.1 -0.1)">
       <use xlink:href="#ArialMT-32"/>
       <use xlink:href="#ArialMT-30" x="55.615234"/>
      </g>
     </g>
    </g>
    <g id="xtick_20">
     <g id="line2d_34">
      <path d="M 321.555398 525.789375 
L 321.555398 393.157796 
" clip-path="url(#paab97be91d)" style="fill: none; stroke: #ffffff; stroke-width: 0.8; stroke-linecap: round"/>
     </g>
     <g id="text_36">
      <!-- 25 -->
      <g style="fill: #262626" transform="translate(315.99446 539.947188)scale(0.1 -0.1)">
       <use xlink:href="#ArialMT-32"/>
       <use xlink:href="#ArialMT-35" x="55.615234"/>
      </g>
     </g>
    </g>
    <g id="xtick_21">
     <g id="line2d_35">
      <path d="M 373.919034 525.789375 
L 373.919034 393.157796 
" clip-path="url(#paab97be91d)" style="fill: none; stroke: #ffffff; stroke-width: 0.8; stroke-linecap: round"/>
     </g>
     <g id="text_37">
      <!-- 30 -->
      <g style="fill: #262626" transform="translate(368.358097 539.947188)scale(0.1 -0.1)">
       <use xlink:href="#ArialMT-33"/>
       <use xlink:href="#ArialMT-30" x="55.615234"/>
      </g>
     </g>
    </g>
    <g id="text_38">
     <!-- generation -->
     <g style="fill: #262626" transform="translate(193.2 553.0925)scale(0.1 -0.1)">
      <use xlink:href="#ArialMT-67"/>
      <use xlink:href="#ArialMT-65" x="55.615234"/>
      <use xlink:href="#ArialMT-6e" x="111.230469"/>
      <use xlink:href="#ArialMT-65" x="166.845703"/>
      <use xlink:href="#ArialMT-72" x="222.460938"/>
      <use xlink:href="#ArialMT-61" x="255.761719"/>
      <use xlink:href="#ArialMT-74" x="311.376953"/>
      <use xlink:href="#ArialMT-69" x="339.160156"/>
      <use xlink:href="#ArialMT-6f" x="361.376953"/>
      <use xlink:href="#ArialMT-6e" x="416.992188"/>
     </g>
    </g>
   </g>
   <g id="matplotlib.axis_6">
    <g id="ytick_11">
     <g id="line2d_36">
      <path d="M 44.028125 509.726192 
L 389.628125 509.726192 
" clip-path="url(#paab97be91d)" style="fill: none; stroke: #ffffff; stroke-width: 0.8; stroke-linecap: round"/>
     </g>
     <g id="text_39">
      <!-- 0 -->
      <g style="fill: #262626" transform="translate(31.467188 513.305098)scale(0.1 -0.1)">
       <use xlink:href="#ArialMT-30"/>
      </g>
     </g>
    </g>
    <g id="ytick_12">
     <g id="line2d_37">
      <path d="M 44.028125 484.883747 
L 389.628125 484.883747 
" clip-path="url(#paab97be91d)" style="fill: none; stroke: #ffffff; stroke-width: 0.8; stroke-linecap: round"/>
     </g>
     <g id="text_40">
      <!-- 10 -->
      <g style="fill: #262626" transform="translate(25.90625 488.462653)scale(0.1 -0.1)">
       <use xlink:href="#ArialMT-31"/>
       <use xlink:href="#ArialMT-30" x="55.615234"/>
      </g>
     </g>
    </g>
    <g id="ytick_13">
     <g id="line2d_38">
      <path d="M 44.028125 460.041302 
L 389.628125 460.041302 
" clip-path="url(#paab97be91d)" style="fill: none; stroke: #ffffff; stroke-width: 0.8; stroke-linecap: round"/>
     </g>
     <g id="text_41">
      <!-- 20 -->
      <g style="fill: #262626" transform="translate(25.90625 463.620209)scale(0.1 -0.1)">
       <use xlink:href="#ArialMT-32"/>
       <use xlink:href="#ArialMT-30" x="55.615234"/>
      </g>
     </g>
    </g>
    <g id="ytick_14">
     <g id="line2d_39">
      <path d="M 44.028125 435.198858 
L 389.628125 435.198858 
" clip-path="url(#paab97be91d)" style="fill: none; stroke: #ffffff; stroke-width: 0.8; stroke-linecap: round"/>
     </g>
     <g id="text_42">
      <!-- 30 -->
      <g style="fill: #262626" transform="translate(25.90625 438.777764)scale(0.1 -0.1)">
       <use xlink:href="#ArialMT-33"/>
       <use xlink:href="#ArialMT-30" x="55.615234"/>
      </g>
     </g>
    </g>
    <g id="ytick_15">
     <g id="line2d_40">
      <path d="M 44.028125 410.356413 
L 389.628125 410.356413 
" clip-path="url(#paab97be91d)" style="fill: none; stroke: #ffffff; stroke-width: 0.8; stroke-linecap: round"/>
     </g>
     <g id="text_43">
      <!-- 40 -->
      <g style="fill: #262626" transform="translate(25.90625 413.935319)scale(0.1 -0.1)">
       <use xlink:href="#ArialMT-34"/>
       <use xlink:href="#ArialMT-30" x="55.615234"/>
      </g>
     </g>
    </g>
    <g id="text_44">
     <!-- fitness -->
     <g style="fill: #262626" transform="translate(19.91875 473.923586)rotate(-90)scale(0.1 -0.1)">
      <use xlink:href="#ArialMT-66"/>
      <use xlink:href="#ArialMT-69" x="27.783203"/>
      <use xlink:href="#ArialMT-74" x="50"/>
      <use xlink:href="#ArialMT-6e" x="77.783203"/>
      <use xlink:href="#ArialMT-65" x="133.398438"/>
      <use xlink:href="#ArialMT-73" x="189.013672"/>
      <use xlink:href="#ArialMT-73" x="239.013672"/>
     </g>
    </g>
   </g>
   <g id="PolyCollection_5">
    <defs>
     <path id="m93dcdb942c" d="M 59.737216 -49.892921 
L 59.737216 -44.087573 
L 70.209943 -50.673646 
L 80.68267 -52.483016 
L 91.155398 -57.5187 
L 101.628125 -64.819563 
L 112.100852 -67.763014 
L 122.57358 -76.268108 
L 133.046307 -76.592285 
L 143.519034 -76.700371 
L 153.991761 -73.301907 
L 164.464489 -82.03098 
L 174.937216 -79.546989 
L 185.409943 -78.785587 
L 195.88267 -84.3419 
L 206.355398 -89.425146 
L 216.828125 -93.378265 
L 227.300852 -98.369277 
L 237.77358 -100.023611 
L 248.246307 -84.812836 
L 258.719034 -98.046977 
L 269.191761 -90.618529 
L 279.664489 -95.376035 
L 290.137216 -96.263238 
L 300.609943 -91.809453 
L 311.08267 -102.277799 
L 321.555398 -112.333161 
L 332.028125 -110.673582 
L 342.500852 -109.09277 
L 352.97358 -114.991049 
L 363.446307 -102.555025 
L 373.919034 -105.279279 
L 373.919034 -152.776147 
L 373.919034 -152.776147 
L 363.446307 -144.716954 
L 352.97358 -157.788004 
L 342.500852 -155.34855 
L 332.028125 -153.676492 
L 321.555398 -144.331747 
L 311.08267 -136.807533 
L 300.609943 -141.72258 
L 290.137216 -132.716984 
L 279.664489 -132.806512 
L 269.191761 -136.292158 
L 258.719034 -136.125183 
L 248.246307 -137.003006 
L 237.77358 -146.439167 
L 227.300852 -142.607147 
L 216.828125 -143.564959 
L 206.355398 -133.249814 
L 195.88267 -134.607125 
L 185.409943 -134.15465 
L 174.937216 -126.710531 
L 164.464489 -116.523791 
L 153.991761 -120.869543 
L 143.519034 -116.048266 
L 133.046307 -101.522028 
L 122.57358 -95.755285 
L 112.100852 -93.3481 
L 101.628125 -98.251431 
L 91.155398 -94.069412 
L 80.68267 -90.711486 
L 70.209943 -81.882921 
L 59.737216 -49.892921 
z
" style="stroke: #ff0000; stroke-opacity: 0.2"/>
    </defs>
    <g clip-path="url(#paab97be91d)">
     <use xlink:href="#m93dcdb942c" x="0" y="562.397188" style="fill: #ff0000; fill-opacity: 0.2; stroke: #ff0000; stroke-opacity: 0.2"/>
    </g>
   </g>
   <g id="PolyCollection_6">
    <defs>
     <path id="m02343ae46d" d="M 59.737216 -47.761746 
L 59.737216 -42.636521 
L 70.209943 -51.847804 
L 80.68267 -61.258374 
L 91.155398 -73.246622 
L 101.628125 -82.809863 
L 112.100852 -87.418697 
L 122.57358 -87.528374 
L 133.046307 -81.507269 
L 143.519034 -89.699266 
L 153.991761 -92.081477 
L 164.464489 -101.361626 
L 174.937216 -99.620908 
L 185.409943 -95.087826 
L 195.88267 -93.409971 
L 206.355398 -96.705291 
L 216.828125 -98.643756 
L 227.300852 -98.558122 
L 237.77358 -106.421528 
L 248.246307 -102.726969 
L 258.719034 -105.25119 
L 269.191761 -102.30464 
L 279.664489 -93.470319 
L 290.137216 -99.110942 
L 300.609943 -103.498716 
L 311.08267 -104.709571 
L 321.555398 -105.2781 
L 332.028125 -101.975739 
L 342.500852 -99.811188 
L 352.97358 -100.891707 
L 363.446307 -99.946633 
L 373.919034 -102.03122 
L 373.919034 -159.083986 
L 373.919034 -159.083986 
L 363.446307 -157.332778 
L 352.97358 -162.298234 
L 342.500852 -163.210683 
L 332.028125 -158.554772 
L 321.555398 -158.263644 
L 311.08267 -161.529482 
L 300.609943 -160.378631 
L 290.137216 -156.843108 
L 279.664489 -158.562617 
L 269.191761 -157.201116 
L 258.719034 -158.423451 
L 248.246307 -152.235186 
L 237.77358 -156.301928 
L 227.300852 -146.051994 
L 216.828125 -151.292468 
L 206.355398 -141.440769 
L 195.88267 -145.500533 
L 185.409943 -143.925405 
L 174.937216 -145.22581 
L 164.464489 -140.359519 
L 153.991761 -127.199458 
L 143.519034 -118.714847 
L 133.046307 -126.882257 
L 122.57358 -116.610901 
L 112.100852 -125.406236 
L 101.628125 -106.983216 
L 91.155398 -101.473122 
L 80.68267 -98.506135 
L 70.209943 -74.497049 
L 59.737216 -47.761746 
z
" style="stroke: #4169e1; stroke-opacity: 0.2"/>
    </defs>
    <g clip-path="url(#paab97be91d)">
     <use xlink:href="#m02343ae46d" x="0" y="562.397188" style="fill: #4169e1; fill-opacity: 0.2; stroke: #4169e1; stroke-opacity: 0.2"/>
    </g>
   </g>
   <g id="line2d_41">
    <path d="M 59.737216 515.406941 
L 70.209943 496.118904 
L 80.68267 490.799937 
L 91.155398 486.603131 
L 101.628125 480.86169 
L 112.100852 481.84163 
L 122.57358 476.385491 
L 133.046307 473.340031 
L 143.519034 466.022869 
L 153.991761 465.311463 
L 164.464489 463.119802 
L 174.937216 459.268427 
L 185.409943 455.927069 
L 195.88267 452.922675 
L 206.355398 451.059708 
L 216.828125 443.925575 
L 227.300852 441.908976 
L 237.77358 439.165799 
L 248.246307 451.489266 
L 258.719034 445.311108 
L 269.191761 448.941844 
L 279.664489 448.305914 
L 290.137216 447.907077 
L 300.609943 445.631171 
L 311.08267 442.854522 
L 321.555398 434.064733 
L 332.028125 430.222151 
L 342.500852 430.176528 
L 352.97358 426.007661 
L 363.446307 438.761198 
L 373.919034 433.369475 
" clip-path="url(#paab97be91d)" style="fill: none; stroke: #ff0000; stroke-width: 1.5; stroke-linecap: round"/>
   </g>
   <g id="line2d_42">
    <path d="M 59.737216 517.198054 
L 70.209943 499.224761 
L 80.68267 482.514933 
L 91.155398 475.037316 
L 101.628125 467.500648 
L 112.100852 455.984721 
L 122.57358 460.32755 
L 133.046307 458.202424 
L 143.519034 458.190131 
L 153.991761 452.75672 
L 164.464489 441.536615 
L 174.937216 439.973828 
L 185.409943 442.890572 
L 195.88267 442.941935 
L 206.355398 443.324157 
L 216.828125 437.429075 
L 227.300852 440.092129 
L 237.77358 431.035459 
L 248.246307 434.91611 
L 258.719034 430.559867 
L 269.191761 432.64431 
L 279.664489 436.380719 
L 290.137216 434.420163 
L 300.609943 430.458514 
L 311.08267 429.277661 
L 321.555398 430.626316 
L 332.028125 432.131932 
L 342.500852 430.886252 
L 352.97358 430.802217 
L 363.446307 433.757482 
L 373.919034 431.839585 
" clip-path="url(#paab97be91d)" style="fill: none; stroke: #4169e1; stroke-width: 1.5; stroke-linecap: round"/>
   </g>
   <g id="patch_13">
    <path d="M 44.028125 525.789375 
L 44.028125 393.157796 
" style="fill: none; stroke: #ffffff; stroke-width: 0.8; stroke-linejoin: miter; stroke-linecap: square"/>
   </g>
   <g id="patch_14">
    <path d="M 389.628125 525.789375 
L 389.628125 393.157796 
" style="fill: none; stroke: #ffffff; stroke-width: 0.8; stroke-linejoin: miter; stroke-linecap: square"/>
   </g>
   <g id="patch_15">
    <path d="M 44.028125 525.789375 
L 389.628125 525.789375 
" style="fill: none; stroke: #ffffff; stroke-width: 0.8; stroke-linejoin: miter; stroke-linecap: square"/>
   </g>
   <g id="patch_16">
    <path d="M 44.028125 393.157796 
L 389.628125 393.157796 
" style="fill: none; stroke: #ffffff; stroke-width: 0.8; stroke-linejoin: miter; stroke-linecap: square"/>
   </g>
   <g id="text_45">
    <!-- enemy: Crashman -->
    <g style="fill: #262626" transform="translate(167.811875 387.157796)scale(0.12 -0.12)">
     <defs>
      <path id="ArialMT-43" d="M 3763 1606 
L 4369 1453 
Q 4178 706 3683 314 
Q 3188 -78 2472 -78 
Q 1731 -78 1267 223 
Q 803 525 561 1097 
Q 319 1669 319 2325 
Q 319 3041 592 3573 
Q 866 4106 1370 4382 
Q 1875 4659 2481 4659 
Q 3169 4659 3637 4309 
Q 4106 3959 4291 3325 
L 3694 3184 
Q 3534 3684 3231 3912 
Q 2928 4141 2469 4141 
Q 1941 4141 1586 3887 
Q 1231 3634 1087 3207 
Q 944 2781 944 2328 
Q 944 1744 1114 1308 
Q 1284 872 1643 656 
Q 2003 441 2422 441 
Q 2931 441 3284 734 
Q 3638 1028 3763 1606 
z
" transform="scale(0.015625)"/>
      <path id="ArialMT-68" d="M 422 0 
L 422 4581 
L 984 4581 
L 984 2938 
Q 1378 3394 1978 3394 
Q 2347 3394 2619 3248 
Q 2891 3103 3008 2847 
Q 3125 2591 3125 2103 
L 3125 0 
L 2563 0 
L 2563 2103 
Q 2563 2525 2380 2717 
Q 2197 2909 1863 2909 
Q 1613 2909 1392 2779 
Q 1172 2650 1078 2428 
Q 984 2206 984 1816 
L 984 0 
L 422 0 
z
" transform="scale(0.015625)"/>
     </defs>
     <use xlink:href="#ArialMT-65"/>
     <use xlink:href="#ArialMT-6e" x="55.615234"/>
     <use xlink:href="#ArialMT-65" x="111.230469"/>
     <use xlink:href="#ArialMT-6d" x="166.845703"/>
     <use xlink:href="#ArialMT-79" x="250.146484"/>
     <use xlink:href="#ArialMT-3a" x="300.146484"/>
     <use xlink:href="#ArialMT-20" x="327.929688"/>
     <use xlink:href="#ArialMT-43" x="355.712891"/>
     <use xlink:href="#ArialMT-72" x="427.929688"/>
     <use xlink:href="#ArialMT-61" x="461.230469"/>
     <use xlink:href="#ArialMT-73" x="516.845703"/>
     <use xlink:href="#ArialMT-68" x="566.845703"/>
     <use xlink:href="#ArialMT-6d" x="622.460938"/>
     <use xlink:href="#ArialMT-61" x="705.761719"/>
     <use xlink:href="#ArialMT-6e" x="761.376953"/>
    </g>
   </g>
   <g id="legend_1">
    <g id="patch_17">
     <path d="M 258.008438 518.789375 
L 379.828125 518.789375 
Q 382.628125 518.789375 382.628125 515.989375 
L 382.628125 477.618438 
Q 382.628125 474.818438 379.828125 474.818438 
L 258.008438 474.818438 
Q 255.208438 474.818438 255.208438 477.618438 
L 255.208438 515.989375 
Q 255.208438 518.789375 258.008438 518.789375 
z
" style="fill: #ffffff; opacity: 0.8; stroke: #cccccc; stroke-linejoin: miter"/>
    </g>
    <g id="line2d_43">
     <path d="M 260.808438 485.539375 
L 274.808438 485.539375 
L 288.808438 485.539375 
" style="fill: none; stroke: #ff0000; stroke-width: 1.5; stroke-linecap: round"/>
    </g>
    <g id="text_46">
     <!-- Dynamic EA -->
     <g style="fill: #262626" transform="translate(300.008438 490.439375)scale(0.14 -0.14)">
      <defs>
       <path id="ArialMT-44" d="M 494 0 
L 494 4581 
L 2072 4581 
Q 2606 4581 2888 4516 
Q 3281 4425 3559 4188 
Q 3922 3881 4101 3404 
Q 4281 2928 4281 2316 
Q 4281 1794 4159 1391 
Q 4038 988 3847 723 
Q 3656 459 3429 307 
Q 3203 156 2883 78 
Q 2563 0 2147 0 
L 494 0 
z
M 1100 541 
L 2078 541 
Q 2531 541 2789 625 
Q 3047 709 3200 863 
Q 3416 1078 3536 1442 
Q 3656 1806 3656 2325 
Q 3656 3044 3420 3430 
Q 3184 3816 2847 3947 
Q 2603 4041 2063 4041 
L 1100 4041 
L 1100 541 
z
" transform="scale(0.015625)"/>
       <path id="ArialMT-63" d="M 2588 1216 
L 3141 1144 
Q 3050 572 2676 248 
Q 2303 -75 1759 -75 
Q 1078 -75 664 370 
Q 250 816 250 1647 
Q 250 2184 428 2587 
Q 606 2991 970 3192 
Q 1334 3394 1763 3394 
Q 2303 3394 2647 3120 
Q 2991 2847 3088 2344 
L 2541 2259 
Q 2463 2594 2264 2762 
Q 2066 2931 1784 2931 
Q 1359 2931 1093 2626 
Q 828 2322 828 1663 
Q 828 994 1084 691 
Q 1341 388 1753 388 
Q 2084 388 2306 591 
Q 2528 794 2588 1216 
z
" transform="scale(0.015625)"/>
       <path id="ArialMT-45" d="M 506 0 
L 506 4581 
L 3819 4581 
L 3819 4041 
L 1113 4041 
L 1113 2638 
L 3647 2638 
L 3647 2100 
L 1113 2100 
L 1113 541 
L 3925 541 
L 3925 0 
L 506 0 
z
" transform="scale(0.015625)"/>
      </defs>
      <use xlink:href="#ArialMT-44"/>
      <use xlink:href="#ArialMT-79" x="72.216797"/>
      <use xlink:href="#ArialMT-6e" x="122.216797"/>
      <use xlink:href="#ArialMT-61" x="177.832031"/>
      <use xlink:href="#ArialMT-6d" x="233.447266"/>
      <use xlink:href="#ArialMT-69" x="316.748047"/>
      <use xlink:href="#ArialMT-63" x="338.964844"/>
      <use xlink:href="#ArialMT-20" x="388.964844"/>
      <use xlink:href="#ArialMT-45" x="416.748047"/>
      <use xlink:href="#ArialMT-41" x="483.447266"/>
     </g>
    </g>
    <g id="line2d_44">
     <path d="M 260.808438 505.506875 
L 274.808438 505.506875 
L 288.808438 505.506875 
" style="fill: none; stroke: #4169e1; stroke-width: 1.5; stroke-linecap: round"/>
    </g>
    <g id="text_47">
     <!-- Static EA -->
     <g style="fill: #262626" transform="translate(300.008438 510.406875)scale(0.14 -0.14)">
      <defs>
       <path id="ArialMT-53" d="M 288 1472 
L 859 1522 
Q 900 1178 1048 958 
Q 1197 738 1509 602 
Q 1822 466 2213 466 
Q 2559 466 2825 569 
Q 3091 672 3220 851 
Q 3350 1031 3350 1244 
Q 3350 1459 3225 1620 
Q 3100 1781 2813 1891 
Q 2628 1963 1997 2114 
Q 1366 2266 1113 2400 
Q 784 2572 623 2826 
Q 463 3081 463 3397 
Q 463 3744 659 4045 
Q 856 4347 1234 4503 
Q 1613 4659 2075 4659 
Q 2584 4659 2973 4495 
Q 3363 4331 3572 4012 
Q 3781 3694 3797 3291 
L 3216 3247 
Q 3169 3681 2898 3903 
Q 2628 4125 2100 4125 
Q 1550 4125 1298 3923 
Q 1047 3722 1047 3438 
Q 1047 3191 1225 3031 
Q 1400 2872 2139 2705 
Q 2878 2538 3153 2413 
Q 3553 2228 3743 1945 
Q 3934 1663 3934 1294 
Q 3934 928 3725 604 
Q 3516 281 3123 101 
Q 2731 -78 2241 -78 
Q 1619 -78 1198 103 
Q 778 284 539 648 
Q 300 1013 288 1472 
z
" transform="scale(0.015625)"/>
      </defs>
      <use xlink:href="#ArialMT-53"/>
      <use xlink:href="#ArialMT-74" x="66.699219"/>
      <use xlink:href="#ArialMT-61" x="94.482422"/>
      <use xlink:href="#ArialMT-74" x="150.097656"/>
      <use xlink:href="#ArialMT-69" x="177.880859"/>
      <use xlink:href="#ArialMT-63" x="200.097656"/>
      <use xlink:href="#ArialMT-20" x="250.097656"/>
      <use xlink:href="#ArialMT-45" x="277.880859"/>
      <use xlink:href="#ArialMT-41" x="344.580078"/>
     </g>
    </g>
   </g>
  </g>
 </g>
 <defs>
  <clipPath id="p9c5067ec7c">
   <rect x="44.028125" y="21.789375" width="345.6" height="132.631579"/>
  </clipPath>
  <clipPath id="pd57b987625">
   <rect x="44.028125" y="207.473586" width="345.6" height="132.631579"/>
  </clipPath>
  <clipPath id="paab97be91d">
   <rect x="44.028125" y="393.157796" width="345.6" height="132.631579"/>
  </clipPath>
 </defs>
</svg>
