<?xml version="1.0" encoding="utf-8" standalone="no"?>
<!DOCTYPE svg PUBLIC "-//W3C//DTD SVG 1.1//EN"
  "http://www.w3.org/Graphics/SVG/1.1/DTD/svg11.dtd">
<svg xmlns:xlink="http://www.w3.org/1999/xlink" width="589.890625pt" height="407.815625pt" viewBox="0 0 589.890625 407.815625" xmlns="http://www.w3.org/2000/svg" version="1.1">
 <metadata>
  <rdf:RDF xmlns:dc="http://purl.org/dc/elements/1.1/" xmlns:cc="http://creativecommons.org/ns#" xmlns:rdf="http://www.w3.org/1999/02/22-rdf-syntax-ns#">
   <cc:Work>
    <dc:type rdf:resource="http://purl.org/dc/dcmitype/StillImage"/>
    <dc:date>2022-10-02T11:01:27.003992</dc:date>
    <dc:format>image/svg+xml</dc:format>
    <dc:creator>
     <cc:Agent>
      <dc:title>Matplotlib v3.5.2, https://matplotlib.org/</dc:title>
     </cc:Agent>
    </dc:creator>
   </cc:Work>
  </rdf:RDF>
 </metadata>
 <defs>
  <style type="text/css">*{stroke-linejoin: round; stroke-linecap: butt}</style>
 </defs>
 <g id="figure_1">
  <g id="patch_1">
   <path d="M 0 407.815625 
L 589.890625 407.815625 
L 589.890625 0 
L 0 0 
z
" style="fill: #ffffff"/>
  </g>
  <g id="axes_1">
   <g id="patch_2">
    <path d="M 64.290625 352.8 
L 582.690625 352.8 
L 582.690625 7.2 
L 64.290625 7.2 
z
" style="fill: #e6e6e6"/>
   </g>
   <g id="matplotlib.axis_1">
    <g id="xtick_1">
     <g id="line2d_1">
      <path d="M 87.854261 352.8 
L 87.854261 7.2 
" clip-path="url(#pf6aee33f0b)" style="fill: none; stroke: #ffffff; stroke-width: 0.8; stroke-linecap: round"/>
     </g>
     <g id="text_1">
      <!-- 0 -->
      <g style="fill: #262626" transform="translate(82.293324 374.115625)scale(0.2 -0.2)">
       <defs>
        <path id="ArialMT-30" d="M 266 2259 
Q 266 3072 433 3567 
Q 600 4063 929 4331 
Q 1259 4600 1759 4600 
Q 2128 4600 2406 4451 
Q 2684 4303 2865 4023 
Q 3047 3744 3150 3342 
Q 3253 2941 3253 2259 
Q 3253 1453 3087 958 
Q 2922 463 2592 192 
Q 2263 -78 1759 -78 
Q 1097 -78 719 397 
Q 266 969 266 2259 
z
M 844 2259 
Q 844 1131 1108 757 
Q 1372 384 1759 384 
Q 2147 384 2411 759 
Q 2675 1134 2675 2259 
Q 2675 3391 2411 3762 
Q 2147 4134 1753 4134 
Q 1366 4134 1134 3806 
Q 844 3388 844 2259 
z
" transform="scale(0.015625)"/>
       </defs>
       <use xlink:href="#ArialMT-30"/>
      </g>
     </g>
    </g>
    <g id="xtick_2">
     <g id="line2d_2">
      <path d="M 166.399716 352.8 
L 166.399716 7.2 
" clip-path="url(#pf6aee33f0b)" style="fill: none; stroke: #ffffff; stroke-width: 0.8; stroke-linecap: round"/>
     </g>
     <g id="text_2">
      <!-- 5 -->
      <g style="fill: #262626" transform="translate(160.838778 374.115625)scale(0.2 -0.2)">
       <defs>
        <path id="ArialMT-35" d="M 266 1200 
L 856 1250 
Q 922 819 1161 601 
Q 1400 384 1738 384 
Q 2144 384 2425 690 
Q 2706 997 2706 1503 
Q 2706 1984 2436 2262 
Q 2166 2541 1728 2541 
Q 1456 2541 1237 2417 
Q 1019 2294 894 2097 
L 366 2166 
L 809 4519 
L 3088 4519 
L 3088 3981 
L 1259 3981 
L 1013 2750 
Q 1425 3038 1878 3038 
Q 2478 3038 2890 2622 
Q 3303 2206 3303 1553 
Q 3303 931 2941 478 
Q 2500 -78 1738 -78 
Q 1113 -78 717 272 
Q 322 622 266 1200 
z
" transform="scale(0.015625)"/>
       </defs>
       <use xlink:href="#ArialMT-35"/>
      </g>
     </g>
    </g>
    <g id="xtick_3">
     <g id="line2d_3">
      <path d="M 244.94517 352.8 
L 244.94517 7.2 
" clip-path="url(#pf6aee33f0b)" style="fill: none; stroke: #ffffff; stroke-width: 0.8; stroke-linecap: round"/>
     </g>
     <g id="text_3">
      <!-- 10 -->
      <g style="fill: #262626" transform="translate(233.823295 374.115625)scale(0.2 -0.2)">
       <defs>
        <path id="ArialMT-31" d="M 2384 0 
L 1822 0 
L 1822 3584 
Q 1619 3391 1289 3197 
Q 959 3003 697 2906 
L 697 3450 
Q 1169 3672 1522 3987 
Q 1875 4303 2022 4600 
L 2384 4600 
L 2384 0 
z
" transform="scale(0.015625)"/>
       </defs>
       <use xlink:href="#ArialMT-31"/>
       <use xlink:href="#ArialMT-30" x="55.615234"/>
      </g>
     </g>
    </g>
    <g id="xtick_4">
     <g id="line2d_4">
      <path d="M 323.490625 352.8 
L 323.490625 7.2 
" clip-path="url(#pf6aee33f0b)" style="fill: none; stroke: #ffffff; stroke-width: 0.8; stroke-linecap: round"/>
     </g>
     <g id="text_4">
      <!-- 15 -->
      <g style="fill: #262626" transform="translate(312.36875 374.115625)scale(0.2 -0.2)">
       <use xlink:href="#ArialMT-31"/>
       <use xlink:href="#ArialMT-35" x="55.615234"/>
      </g>
     </g>
    </g>
    <g id="xtick_5">
     <g id="line2d_5">
      <path d="M 402.03608 352.8 
L 402.03608 7.2 
" clip-path="url(#pf6aee33f0b)" style="fill: none; stroke: #ffffff; stroke-width: 0.8; stroke-linecap: round"/>
     </g>
     <g id="text_5">
      <!-- 20 -->
      <g style="fill: #262626" transform="translate(390.914205 374.115625)scale(0.2 -0.2)">
       <defs>
        <path id="ArialMT-32" d="M 3222 541 
L 3222 0 
L 194 0 
Q 188 203 259 391 
Q 375 700 629 1000 
Q 884 1300 1366 1694 
Q 2113 2306 2375 2664 
Q 2638 3022 2638 3341 
Q 2638 3675 2398 3904 
Q 2159 4134 1775 4134 
Q 1369 4134 1125 3890 
Q 881 3647 878 3216 
L 300 3275 
Q 359 3922 746 4261 
Q 1134 4600 1788 4600 
Q 2447 4600 2831 4234 
Q 3216 3869 3216 3328 
Q 3216 3053 3103 2787 
Q 2991 2522 2730 2228 
Q 2469 1934 1863 1422 
Q 1356 997 1212 845 
Q 1069 694 975 541 
L 3222 541 
z
" transform="scale(0.015625)"/>
       </defs>
       <use xlink:href="#ArialMT-32"/>
       <use xlink:href="#ArialMT-30" x="55.615234"/>
      </g>
     </g>
    </g>
    <g id="xtick_6">
     <g id="line2d_6">
      <path d="M 480.581534 352.8 
L 480.581534 7.2 
" clip-path="url(#pf6aee33f0b)" style="fill: none; stroke: #ffffff; stroke-width: 0.8; stroke-linecap: round"/>
     </g>
     <g id="text_6">
      <!-- 25 -->
      <g style="fill: #262626" transform="translate(469.459659 374.115625)scale(0.2 -0.2)">
       <use xlink:href="#ArialMT-32"/>
       <use xlink:href="#ArialMT-35" x="55.615234"/>
      </g>
     </g>
    </g>
    <g id="xtick_7">
     <g id="line2d_7">
      <path d="M 559.126989 352.8 
L 559.126989 7.2 
" clip-path="url(#pf6aee33f0b)" style="fill: none; stroke: #ffffff; stroke-width: 0.8; stroke-linecap: round"/>
     </g>
     <g id="text_7">
      <!-- 30 -->
      <g style="fill: #262626" transform="translate(548.005114 374.115625)scale(0.2 -0.2)">
       <defs>
        <path id="ArialMT-33" d="M 269 1209 
L 831 1284 
Q 928 806 1161 595 
Q 1394 384 1728 384 
Q 2125 384 2398 659 
Q 2672 934 2672 1341 
Q 2672 1728 2419 1979 
Q 2166 2231 1775 2231 
Q 1616 2231 1378 2169 
L 1441 2663 
Q 1497 2656 1531 2656 
Q 1891 2656 2178 2843 
Q 2466 3031 2466 3422 
Q 2466 3731 2256 3934 
Q 2047 4138 1716 4138 
Q 1388 4138 1169 3931 
Q 950 3725 888 3313 
L 325 3413 
Q 428 3978 793 4289 
Q 1159 4600 1703 4600 
Q 2078 4600 2393 4439 
Q 2709 4278 2876 4000 
Q 3044 3722 3044 3409 
Q 3044 3113 2884 2869 
Q 2725 2625 2413 2481 
Q 2819 2388 3044 2092 
Q 3269 1797 3269 1353 
Q 3269 753 2831 336 
Q 2394 -81 1725 -81 
Q 1122 -81 723 278 
Q 325 638 269 1209 
z
" transform="scale(0.015625)"/>
       </defs>
       <use xlink:href="#ArialMT-33"/>
       <use xlink:href="#ArialMT-30" x="55.615234"/>
      </g>
     </g>
    </g>
    <g id="text_8">
     <!-- generation -->
     <g style="fill: #262626" transform="translate(276.234375 396.40625)scale(0.2 -0.2)">
      <defs>
       <path id="ArialMT-67" d="M 319 -275 
L 866 -356 
Q 900 -609 1056 -725 
Q 1266 -881 1628 -881 
Q 2019 -881 2231 -725 
Q 2444 -569 2519 -288 
Q 2563 -116 2559 434 
Q 2191 0 1641 0 
Q 956 0 581 494 
Q 206 988 206 1678 
Q 206 2153 378 2554 
Q 550 2956 876 3175 
Q 1203 3394 1644 3394 
Q 2231 3394 2613 2919 
L 2613 3319 
L 3131 3319 
L 3131 450 
Q 3131 -325 2973 -648 
Q 2816 -972 2473 -1159 
Q 2131 -1347 1631 -1347 
Q 1038 -1347 672 -1080 
Q 306 -813 319 -275 
z
M 784 1719 
Q 784 1066 1043 766 
Q 1303 466 1694 466 
Q 2081 466 2343 764 
Q 2606 1063 2606 1700 
Q 2606 2309 2336 2618 
Q 2066 2928 1684 2928 
Q 1309 2928 1046 2623 
Q 784 2319 784 1719 
z
" transform="scale(0.015625)"/>
       <path id="ArialMT-65" d="M 2694 1069 
L 3275 997 
Q 3138 488 2766 206 
Q 2394 -75 1816 -75 
Q 1088 -75 661 373 
Q 234 822 234 1631 
Q 234 2469 665 2931 
Q 1097 3394 1784 3394 
Q 2450 3394 2872 2941 
Q 3294 2488 3294 1666 
Q 3294 1616 3291 1516 
L 816 1516 
Q 847 969 1125 678 
Q 1403 388 1819 388 
Q 2128 388 2347 550 
Q 2566 713 2694 1069 
z
M 847 1978 
L 2700 1978 
Q 2663 2397 2488 2606 
Q 2219 2931 1791 2931 
Q 1403 2931 1139 2672 
Q 875 2413 847 1978 
z
" transform="scale(0.015625)"/>
       <path id="ArialMT-6e" d="M 422 0 
L 422 3319 
L 928 3319 
L 928 2847 
Q 1294 3394 1984 3394 
Q 2284 3394 2536 3286 
Q 2788 3178 2913 3003 
Q 3038 2828 3088 2588 
Q 3119 2431 3119 2041 
L 3119 0 
L 2556 0 
L 2556 2019 
Q 2556 2363 2490 2533 
Q 2425 2703 2258 2804 
Q 2091 2906 1866 2906 
Q 1506 2906 1245 2678 
Q 984 2450 984 1813 
L 984 0 
L 422 0 
z
" transform="scale(0.015625)"/>
       <path id="ArialMT-72" d="M 416 0 
L 416 3319 
L 922 3319 
L 922 2816 
Q 1116 3169 1280 3281 
Q 1444 3394 1641 3394 
Q 1925 3394 2219 3213 
L 2025 2691 
Q 1819 2813 1613 2813 
Q 1428 2813 1281 2702 
Q 1134 2591 1072 2394 
Q 978 2094 978 1738 
L 978 0 
L 416 0 
z
" transform="scale(0.015625)"/>
       <path id="ArialMT-61" d="M 2588 409 
Q 2275 144 1986 34 
Q 1697 -75 1366 -75 
Q 819 -75 525 192 
Q 231 459 231 875 
Q 231 1119 342 1320 
Q 453 1522 633 1644 
Q 813 1766 1038 1828 
Q 1203 1872 1538 1913 
Q 2219 1994 2541 2106 
Q 2544 2222 2544 2253 
Q 2544 2597 2384 2738 
Q 2169 2928 1744 2928 
Q 1347 2928 1158 2789 
Q 969 2650 878 2297 
L 328 2372 
Q 403 2725 575 2942 
Q 747 3159 1072 3276 
Q 1397 3394 1825 3394 
Q 2250 3394 2515 3294 
Q 2781 3194 2906 3042 
Q 3031 2891 3081 2659 
Q 3109 2516 3109 2141 
L 3109 1391 
Q 3109 606 3145 398 
Q 3181 191 3288 0 
L 2700 0 
Q 2613 175 2588 409 
z
M 2541 1666 
Q 2234 1541 1622 1453 
Q 1275 1403 1131 1340 
Q 988 1278 909 1158 
Q 831 1038 831 891 
Q 831 666 1001 516 
Q 1172 366 1500 366 
Q 1825 366 2078 508 
Q 2331 650 2450 897 
Q 2541 1088 2541 1459 
L 2541 1666 
z
" transform="scale(0.015625)"/>
       <path id="ArialMT-74" d="M 1650 503 
L 1731 6 
Q 1494 -44 1306 -44 
Q 1000 -44 831 53 
Q 663 150 594 308 
Q 525 466 525 972 
L 525 2881 
L 113 2881 
L 113 3319 
L 525 3319 
L 525 4141 
L 1084 4478 
L 1084 3319 
L 1650 3319 
L 1650 2881 
L 1084 2881 
L 1084 941 
Q 1084 700 1114 631 
Q 1144 563 1211 522 
Q 1278 481 1403 481 
Q 1497 481 1650 503 
z
" transform="scale(0.015625)"/>
       <path id="ArialMT-69" d="M 425 3934 
L 425 4581 
L 988 4581 
L 988 3934 
L 425 3934 
z
M 425 0 
L 425 3319 
L 988 3319 
L 988 0 
L 425 0 
z
" transform="scale(0.015625)"/>
       <path id="ArialMT-6f" d="M 213 1659 
Q 213 2581 725 3025 
Q 1153 3394 1769 3394 
Q 2453 3394 2887 2945 
Q 3322 2497 3322 1706 
Q 3322 1066 3130 698 
Q 2938 331 2570 128 
Q 2203 -75 1769 -75 
Q 1072 -75 642 372 
Q 213 819 213 1659 
z
M 791 1659 
Q 791 1022 1069 705 
Q 1347 388 1769 388 
Q 2188 388 2466 706 
Q 2744 1025 2744 1678 
Q 2744 2294 2464 2611 
Q 2184 2928 1769 2928 
Q 1347 2928 1069 2612 
Q 791 2297 791 1659 
z
" transform="scale(0.015625)"/>
      </defs>
      <use xlink:href="#ArialMT-67"/>
      <use xlink:href="#ArialMT-65" x="55.615234"/>
      <use xlink:href="#ArialMT-6e" x="111.230469"/>
      <use xlink:href="#ArialMT-65" x="166.845703"/>
      <use xlink:href="#ArialMT-72" x="222.460938"/>
      <use xlink:href="#ArialMT-61" x="255.761719"/>
      <use xlink:href="#ArialMT-74" x="311.376953"/>
      <use xlink:href="#ArialMT-69" x="339.160156"/>
      <use xlink:href="#ArialMT-6f" x="361.376953"/>
      <use xlink:href="#ArialMT-6e" x="416.992188"/>
     </g>
    </g>
   </g>
   <g id="matplotlib.axis_2">
    <g id="ytick_1">
     <g id="line2d_8">
      <path d="M 64.290625 313.591096 
L 582.690625 313.591096 
" clip-path="url(#pf6aee33f0b)" style="fill: none; stroke: #ffffff; stroke-width: 0.8; stroke-linecap: round"/>
     </g>
     <g id="text_9">
      <!-- 1.0 -->
      <g style="fill: #262626" transform="translate(29.490625 320.748908)scale(0.2 -0.2)">
       <defs>
        <path id="ArialMT-2e" d="M 581 0 
L 581 641 
L 1222 641 
L 1222 0 
L 581 0 
z
" transform="scale(0.015625)"/>
       </defs>
       <use xlink:href="#ArialMT-31"/>
       <use xlink:href="#ArialMT-2e" x="55.615234"/>
       <use xlink:href="#ArialMT-30" x="83.398438"/>
      </g>
     </g>
    </g>
    <g id="ytick_2">
     <g id="line2d_9">
      <path d="M 64.290625 250.513895 
L 582.690625 250.513895 
" clip-path="url(#pf6aee33f0b)" style="fill: none; stroke: #ffffff; stroke-width: 0.8; stroke-linecap: round"/>
     </g>
     <g id="text_10">
      <!-- 1.1 -->
      <g style="fill: #262626" transform="translate(29.490625 257.671708)scale(0.2 -0.2)">
       <use xlink:href="#ArialMT-31"/>
       <use xlink:href="#ArialMT-2e" x="55.615234"/>
       <use xlink:href="#ArialMT-31" x="83.398438"/>
      </g>
     </g>
    </g>
    <g id="ytick_3">
     <g id="line2d_10">
      <path d="M 64.290625 187.436695 
L 582.690625 187.436695 
" clip-path="url(#pf6aee33f0b)" style="fill: none; stroke: #ffffff; stroke-width: 0.8; stroke-linecap: round"/>
     </g>
     <g id="text_11">
      <!-- 1.2 -->
      <g style="fill: #262626" transform="translate(29.490625 194.594507)scale(0.2 -0.2)">
       <use xlink:href="#ArialMT-31"/>
       <use xlink:href="#ArialMT-2e" x="55.615234"/>
       <use xlink:href="#ArialMT-32" x="83.398438"/>
      </g>
     </g>
    </g>
    <g id="ytick_4">
     <g id="line2d_11">
      <path d="M 64.290625 124.359495 
L 582.690625 124.359495 
" clip-path="url(#pf6aee33f0b)" style="fill: none; stroke: #ffffff; stroke-width: 0.8; stroke-linecap: round"/>
     </g>
     <g id="text_12">
      <!-- 1.3 -->
      <g style="fill: #262626" transform="translate(29.490625 131.517307)scale(0.2 -0.2)">
       <use xlink:href="#ArialMT-31"/>
       <use xlink:href="#ArialMT-2e" x="55.615234"/>
       <use xlink:href="#ArialMT-33" x="83.398438"/>
      </g>
     </g>
    </g>
    <g id="ytick_5">
     <g id="line2d_12">
      <path d="M 64.290625 61.282294 
L 582.690625 61.282294 
" clip-path="url(#pf6aee33f0b)" style="fill: none; stroke: #ffffff; stroke-width: 0.8; stroke-linecap: round"/>
     </g>
     <g id="text_13">
      <!-- 1.4 -->
      <g style="fill: #262626" transform="translate(29.490625 68.440107)scale(0.2 -0.2)">
       <defs>
        <path id="ArialMT-34" d="M 2069 0 
L 2069 1097 
L 81 1097 
L 81 1613 
L 2172 4581 
L 2631 4581 
L 2631 1613 
L 3250 1613 
L 3250 1097 
L 2631 1097 
L 2631 0 
L 2069 0 
z
M 2069 1613 
L 2069 3678 
L 634 1613 
L 2069 1613 
z
" transform="scale(0.015625)"/>
       </defs>
       <use xlink:href="#ArialMT-31"/>
       <use xlink:href="#ArialMT-2e" x="55.615234"/>
       <use xlink:href="#ArialMT-34" x="83.398438"/>
      </g>
     </g>
    </g>
    <g id="text_14">
     <!-- mean $\mathbf{\sigma}$ -->
     <g style="fill: #262626" transform="translate(21.515625 215.6)rotate(-90)scale(0.2 -0.2)">
      <defs>
       <path id="ArialMT-6d" d="M 422 0 
L 422 3319 
L 925 3319 
L 925 2853 
Q 1081 3097 1340 3245 
Q 1600 3394 1931 3394 
Q 2300 3394 2536 3241 
Q 2772 3088 2869 2813 
Q 3263 3394 3894 3394 
Q 4388 3394 4653 3120 
Q 4919 2847 4919 2278 
L 4919 0 
L 4359 0 
L 4359 2091 
Q 4359 2428 4304 2576 
Q 4250 2725 4106 2815 
Q 3963 2906 3769 2906 
Q 3419 2906 3187 2673 
Q 2956 2441 2956 1928 
L 2956 0 
L 2394 0 
L 2394 2156 
Q 2394 2531 2256 2718 
Q 2119 2906 1806 2906 
Q 1569 2906 1367 2781 
Q 1166 2656 1075 2415 
Q 984 2175 984 1722 
L 984 0 
L 422 0 
z
" transform="scale(0.015625)"/>
       <path id="ArialMT-20" transform="scale(0.015625)"/>
       <path id="DejaVuSans-Bold-3c3" d="M 2200 2784 
Q 1831 2784 1636 2517 
Q 1441 2250 1441 1747 
Q 1441 1244 1636 976 
Q 1831 709 2200 709 
Q 2569 709 2762 976 
Q 2956 1244 2956 1747 
Q 2956 2250 2762 2517 
Q 2569 2784 2200 2784 
z
M 4650 2700 
L 3916 2700 
Q 4122 2291 4122 1747 
Q 4122 884 3614 396 
Q 3106 -91 2203 -91 
Q 1297 -91 786 396 
Q 275 884 275 1747 
Q 275 2609 788 3097 
Q 1209 3500 2203 3500 
L 4650 3500 
L 4650 2700 
z
" transform="scale(0.015625)"/>
      </defs>
      <use xlink:href="#ArialMT-6d" transform="translate(0 0.3125)"/>
      <use xlink:href="#ArialMT-65" transform="translate(83.300781 0.3125)"/>
      <use xlink:href="#ArialMT-61" transform="translate(138.916016 0.3125)"/>
      <use xlink:href="#ArialMT-6e" transform="translate(194.53125 0.3125)"/>
      <use xlink:href="#ArialMT-20" transform="translate(250.146484 0.3125)"/>
      <use xlink:href="#DejaVuSans-Bold-3c3" transform="translate(277.929688 0.3125)"/>
     </g>
    </g>
   </g>
   <g id="line2d_13">
    <path d="M 87.854261 276.921591 
L 103.563352 223.864672 
L 119.272443 206.598542 
L 134.981534 244.46489 
L 150.690625 236.058194 
L 166.399716 252.707687 
L 182.108807 227.928752 
L 197.817898 186.058759 
L 213.526989 186.763992 
L 229.23608 129.515442 
L 244.94517 126.048373 
L 260.654261 125.41361 
L 276.363352 128.016679 
L 292.072443 85.049265 
L 307.781534 79.511691 
L 323.490625 116.796739 
L 339.199716 113.186244 
L 354.908807 61.48778 
L 370.617898 64.090701 
L 386.326989 22.909091 
L 402.03608 68.637173 
L 417.74517 97.330672 
L 433.454261 114.621695 
L 449.163352 127.428195 
L 464.872443 134.755886 
L 480.581534 180.29845 
L 496.290625 206.163529 
L 511.999716 184.300091 
L 527.708807 163.028595 
L 543.417898 156.960786 
L 559.126989 145.25893 
" clip-path="url(#pf6aee33f0b)" style="fill: none; stroke: #ff0000; stroke-width: 1.5; stroke-linecap: round"/>
   </g>
   <g id="line2d_14">
    <path d="M 87.854261 312.837526 
L 103.563352 330.056273 
L 119.272443 319.782881 
L 134.981534 297.027396 
L 150.690625 263.426112 
L 166.399716 288.959621 
L 182.108807 283.128334 
L 197.817898 279.122881 
L 213.526989 323.337952 
L 229.23608 285.447317 
L 244.94517 329.268111 
L 260.654261 327.514758 
L 276.363352 305.702532 
L 292.072443 281.800659 
L 307.781534 276.331219 
L 323.490625 273.886695 
L 339.199716 278.112672 
L 354.908807 281.499214 
L 370.617898 261.605065 
L 386.326989 268.373057 
L 402.03608 314.534666 
L 417.74517 297.257971 
L 433.454261 314.102262 
L 449.163352 297.385414 
L 464.872443 337.090909 
L 480.581534 306.081377 
L 496.290625 315.148051 
L 511.999716 289.621573 
L 527.708807 307.890257 
L 543.417898 299.062381 
L 559.126989 306.951992 
" clip-path="url(#pf6aee33f0b)" style="fill: none; stroke: #4169e1; stroke-width: 1.5; stroke-linecap: round"/>
   </g>
   <g id="line2d_15">
    <path d="M 87.854261 248.122767 
L 103.563352 302.273711 
L 119.272443 289.869092 
L 134.981534 248.54258 
L 150.690625 264.2687 
L 166.399716 257.197078 
L 182.108807 277.197929 
L 197.817898 253.512993 
L 213.526989 238.494217 
L 229.23608 208.999893 
L 244.94517 182.859173 
L 260.654261 175.667194 
L 276.363352 169.514018 
L 292.072443 180.529225 
L 307.781534 154.87835 
L 323.490625 110.012379 
L 339.199716 94.208111 
L 354.908807 99.760376 
L 370.617898 67.515525 
L 386.326989 124.037075 
L 402.03608 98.475806 
L 417.74517 118.914419 
L 433.454261 120.326885 
L 449.163352 119.980105 
L 464.872443 149.778737 
L 480.581534 165.788536 
L 496.290625 226.490766 
L 511.999716 181.477567 
L 527.708807 162.991098 
L 543.417898 150.333465 
L 559.126989 150.46777 
" clip-path="url(#pf6aee33f0b)" style="fill: none; stroke: #3cb371; stroke-width: 1.5; stroke-linecap: round"/>
   </g>
   <g id="LineCollection_1">
    <path d="M 87.854261 313.591096 
L 559.126989 313.591096 
" clip-path="url(#pf6aee33f0b)" style="fill: none; stroke: #000000; stroke-width: 1.5"/>
   </g>
   <g id="patch_3">
    <path d="M 64.290625 352.8 
L 64.290625 7.2 
" style="fill: none; stroke: #ffffff; stroke-width: 0.8; stroke-linejoin: miter; stroke-linecap: square"/>
   </g>
   <g id="patch_4">
    <path d="M 582.690625 352.8 
L 582.690625 7.2 
" style="fill: none; stroke: #ffffff; stroke-width: 0.8; stroke-linejoin: miter; stroke-linecap: square"/>
   </g>
   <g id="patch_5">
    <path d="M 64.290625 352.8 
L 582.690625 352.8 
" style="fill: none; stroke: #ffffff; stroke-width: 0.8; stroke-linejoin: miter; stroke-linecap: square"/>
   </g>
   <g id="patch_6">
    <path d="M 64.290625 7.2 
L 582.690625 7.2 
" style="fill: none; stroke: #ffffff; stroke-width: 0.8; stroke-linejoin: miter; stroke-linecap: square"/>
   </g>
   <g id="legend_1">
    <g id="patch_7">
     <path d="M 75.490625 112.295 
L 279.170625 112.295 
Q 282.370625 112.295 282.370625 109.095 
L 282.370625 18.4 
Q 282.370625 15.2 279.170625 15.2 
L 75.490625 15.2 
Q 72.290625 15.2 72.290625 18.4 
L 72.290625 109.095 
Q 72.290625 112.295 75.490625 112.295 
z
" style="fill: #ffffff; opacity: 0.8; stroke: #cccccc; stroke-linejoin: miter"/>
    </g>
    <g id="line2d_16">
     <path d="M 78.690625 27.52 
L 94.690625 27.52 
L 110.690625 27.52 
" style="fill: none; stroke: #ff0000; stroke-width: 1.5; stroke-linecap: round"/>
    </g>
    <g id="text_15">
     <!-- Airman dynamic $\sigma$ -->
     <g style="fill: #262626" transform="translate(123.490625 33.12)scale(0.16 -0.16)">
      <defs>
       <path id="ArialMT-41" d="M -9 0 
L 1750 4581 
L 2403 4581 
L 4278 0 
L 3588 0 
L 3053 1388 
L 1138 1388 
L 634 0 
L -9 0 
z
M 1313 1881 
L 2866 1881 
L 2388 3150 
Q 2169 3728 2063 4100 
Q 1975 3659 1816 3225 
L 1313 1881 
z
" transform="scale(0.015625)"/>
       <path id="ArialMT-64" d="M 2575 0 
L 2575 419 
Q 2259 -75 1647 -75 
Q 1250 -75 917 144 
Q 584 363 401 755 
Q 219 1147 219 1656 
Q 219 2153 384 2558 
Q 550 2963 881 3178 
Q 1213 3394 1622 3394 
Q 1922 3394 2156 3267 
Q 2391 3141 2538 2938 
L 2538 4581 
L 3097 4581 
L 3097 0 
L 2575 0 
z
M 797 1656 
Q 797 1019 1065 703 
Q 1334 388 1700 388 
Q 2069 388 2326 689 
Q 2584 991 2584 1609 
Q 2584 2291 2321 2609 
Q 2059 2928 1675 2928 
Q 1300 2928 1048 2622 
Q 797 2316 797 1656 
z
" transform="scale(0.015625)"/>
       <path id="ArialMT-79" d="M 397 -1278 
L 334 -750 
Q 519 -800 656 -800 
Q 844 -800 956 -737 
Q 1069 -675 1141 -563 
Q 1194 -478 1313 -144 
Q 1328 -97 1363 -6 
L 103 3319 
L 709 3319 
L 1400 1397 
Q 1534 1031 1641 628 
Q 1738 1016 1872 1384 
L 2581 3319 
L 3144 3319 
L 1881 -56 
Q 1678 -603 1566 -809 
Q 1416 -1088 1222 -1217 
Q 1028 -1347 759 -1347 
Q 597 -1347 397 -1278 
z
" transform="scale(0.015625)"/>
       <path id="ArialMT-63" d="M 2588 1216 
L 3141 1144 
Q 3050 572 2676 248 
Q 2303 -75 1759 -75 
Q 1078 -75 664 370 
Q 250 816 250 1647 
Q 250 2184 428 2587 
Q 606 2991 970 3192 
Q 1334 3394 1763 3394 
Q 2303 3394 2647 3120 
Q 2991 2847 3088 2344 
L 2541 2259 
Q 2463 2594 2264 2762 
Q 2066 2931 1784 2931 
Q 1359 2931 1093 2626 
Q 828 2322 828 1663 
Q 828 994 1084 691 
Q 1341 388 1753 388 
Q 2084 388 2306 591 
Q 2528 794 2588 1216 
z
" transform="scale(0.015625)"/>
       <path id="DejaVuSans-Oblique-3c3" d="M 2219 3044 
Q 1744 3044 1422 2700 
Q 1081 2341 969 1747 
Q 844 1119 1044 756 
Q 1241 397 1706 397 
Q 2166 397 2503 759 
Q 2844 1122 2966 1747 
Q 3075 2319 2881 2700 
Q 2700 3044 2219 3044 
z
M 2309 3503 
L 4219 3500 
L 4106 2925 
L 3463 2925 
Q 3706 2438 3575 1747 
Q 3406 888 2884 400 
Q 2359 -91 1609 -91 
Q 856 -91 525 400 
Q 194 888 363 1747 
Q 528 2609 1050 3097 
Q 1484 3503 2309 3503 
z
" transform="scale(0.015625)"/>
      </defs>
      <use xlink:href="#ArialMT-41" transform="translate(0 0.421875)"/>
      <use xlink:href="#ArialMT-69" transform="translate(66.699219 0.421875)"/>
      <use xlink:href="#ArialMT-72" transform="translate(88.916016 0.421875)"/>
      <use xlink:href="#ArialMT-6d" transform="translate(122.216797 0.421875)"/>
      <use xlink:href="#ArialMT-61" transform="translate(205.517578 0.421875)"/>
      <use xlink:href="#ArialMT-6e" transform="translate(261.132812 0.421875)"/>
      <use xlink:href="#ArialMT-20" transform="translate(316.748047 0.421875)"/>
      <use xlink:href="#ArialMT-64" transform="translate(344.53125 0.421875)"/>
      <use xlink:href="#ArialMT-79" transform="translate(400.146484 0.421875)"/>
      <use xlink:href="#ArialMT-6e" transform="translate(450.146484 0.421875)"/>
      <use xlink:href="#ArialMT-61" transform="translate(505.761719 0.421875)"/>
      <use xlink:href="#ArialMT-6d" transform="translate(561.376953 0.421875)"/>
      <use xlink:href="#ArialMT-69" transform="translate(644.677734 0.421875)"/>
      <use xlink:href="#ArialMT-63" transform="translate(666.894531 0.421875)"/>
      <use xlink:href="#ArialMT-20" transform="translate(716.894531 0.421875)"/>
      <use xlink:href="#DejaVuSans-Oblique-3c3" transform="translate(744.677734 0.421875)"/>
     </g>
    </g>
    <g id="line2d_17">
     <path d="M 78.690625 50.56 
L 94.690625 50.56 
L 110.690625 50.56 
" style="fill: none; stroke: #4169e1; stroke-width: 1.5; stroke-linecap: round"/>
    </g>
    <g id="text_16">
     <!-- Heatman dynamic $\sigma$ -->
     <g style="fill: #262626" transform="translate(123.490625 56.16)scale(0.16 -0.16)">
      <defs>
       <path id="ArialMT-48" d="M 513 0 
L 513 4581 
L 1119 4581 
L 1119 2700 
L 3500 2700 
L 3500 4581 
L 4106 4581 
L 4106 0 
L 3500 0 
L 3500 2159 
L 1119 2159 
L 1119 0 
L 513 0 
z
" transform="scale(0.015625)"/>
      </defs>
      <use xlink:href="#ArialMT-48" transform="translate(0 0.421875)"/>
      <use xlink:href="#ArialMT-65" transform="translate(72.216797 0.421875)"/>
      <use xlink:href="#ArialMT-61" transform="translate(127.832031 0.421875)"/>
      <use xlink:href="#ArialMT-74" transform="translate(183.447266 0.421875)"/>
      <use xlink:href="#ArialMT-6d" transform="translate(211.230469 0.421875)"/>
      <use xlink:href="#ArialMT-61" transform="translate(294.53125 0.421875)"/>
      <use xlink:href="#ArialMT-6e" transform="translate(350.146484 0.421875)"/>
      <use xlink:href="#ArialMT-20" transform="translate(405.761719 0.421875)"/>
      <use xlink:href="#ArialMT-64" transform="translate(433.544922 0.421875)"/>
      <use xlink:href="#ArialMT-79" transform="translate(489.160156 0.421875)"/>
      <use xlink:href="#ArialMT-6e" transform="translate(539.160156 0.421875)"/>
      <use xlink:href="#ArialMT-61" transform="translate(594.775391 0.421875)"/>
      <use xlink:href="#ArialMT-6d" transform="translate(650.390625 0.421875)"/>
      <use xlink:href="#ArialMT-69" transform="translate(733.691406 0.421875)"/>
      <use xlink:href="#ArialMT-63" transform="translate(755.908203 0.421875)"/>
      <use xlink:href="#ArialMT-20" transform="translate(805.908203 0.421875)"/>
      <use xlink:href="#DejaVuSans-Oblique-3c3" transform="translate(833.691406 0.421875)"/>
     </g>
    </g>
    <g id="line2d_18">
     <path d="M 78.690625 73.76 
L 94.690625 73.76 
L 110.690625 73.76 
" style="fill: none; stroke: #3cb371; stroke-width: 1.5; stroke-linecap: round"/>
    </g>
    <g id="text_17">
     <!-- Crashman dynamic $\sigma$ -->
     <g style="fill: #262626" transform="translate(123.490625 79.36)scale(0.16 -0.16)">
      <defs>
       <path id="ArialMT-43" d="M 3763 1606 
L 4369 1453 
Q 4178 706 3683 314 
Q 3188 -78 2472 -78 
Q 1731 -78 1267 223 
Q 803 525 561 1097 
Q 319 1669 319 2325 
Q 319 3041 592 3573 
Q 866 4106 1370 4382 
Q 1875 4659 2481 4659 
Q 3169 4659 3637 4309 
Q 4106 3959 4291 3325 
L 3694 3184 
Q 3534 3684 3231 3912 
Q 2928 4141 2469 4141 
Q 1941 4141 1586 3887 
Q 1231 3634 1087 3207 
Q 944 2781 944 2328 
Q 944 1744 1114 1308 
Q 1284 872 1643 656 
Q 2003 441 2422 441 
Q 2931 441 3284 734 
Q 3638 1028 3763 1606 
z
" transform="scale(0.015625)"/>
       <path id="ArialMT-73" d="M 197 991 
L 753 1078 
Q 800 744 1014 566 
Q 1228 388 1613 388 
Q 2000 388 2187 545 
Q 2375 703 2375 916 
Q 2375 1106 2209 1216 
Q 2094 1291 1634 1406 
Q 1016 1563 777 1677 
Q 538 1791 414 1992 
Q 291 2194 291 2438 
Q 291 2659 392 2848 
Q 494 3038 669 3163 
Q 800 3259 1026 3326 
Q 1253 3394 1513 3394 
Q 1903 3394 2198 3281 
Q 2494 3169 2634 2976 
Q 2775 2784 2828 2463 
L 2278 2388 
Q 2241 2644 2061 2787 
Q 1881 2931 1553 2931 
Q 1166 2931 1000 2803 
Q 834 2675 834 2503 
Q 834 2394 903 2306 
Q 972 2216 1119 2156 
Q 1203 2125 1616 2013 
Q 2213 1853 2448 1751 
Q 2684 1650 2818 1456 
Q 2953 1263 2953 975 
Q 2953 694 2789 445 
Q 2625 197 2315 61 
Q 2006 -75 1616 -75 
Q 969 -75 630 194 
Q 291 463 197 991 
z
" transform="scale(0.015625)"/>
       <path id="ArialMT-68" d="M 422 0 
L 422 4581 
L 984 4581 
L 984 2938 
Q 1378 3394 1978 3394 
Q 2347 3394 2619 3248 
Q 2891 3103 3008 2847 
Q 3125 2591 3125 2103 
L 3125 0 
L 2563 0 
L 2563 2103 
Q 2563 2525 2380 2717 
Q 2197 2909 1863 2909 
Q 1613 2909 1392 2779 
Q 1172 2650 1078 2428 
Q 984 2206 984 1816 
L 984 0 
L 422 0 
z
" transform="scale(0.015625)"/>
      </defs>
      <use xlink:href="#ArialMT-43" transform="translate(0 0.203125)"/>
      <use xlink:href="#ArialMT-72" transform="translate(72.216797 0.203125)"/>
      <use xlink:href="#ArialMT-61" transform="translate(105.517578 0.203125)"/>
      <use xlink:href="#ArialMT-73" transform="translate(161.132812 0.203125)"/>
      <use xlink:href="#ArialMT-68" transform="translate(211.132812 0.203125)"/>
      <use xlink:href="#ArialMT-6d" transform="translate(266.748047 0.203125)"/>
      <use xlink:href="#ArialMT-61" transform="translate(350.048828 0.203125)"/>
      <use xlink:href="#ArialMT-6e" transform="translate(405.664062 0.203125)"/>
      <use xlink:href="#ArialMT-20" transform="translate(461.279297 0.203125)"/>
      <use xlink:href="#ArialMT-64" transform="translate(489.0625 0.203125)"/>
      <use xlink:href="#ArialMT-79" transform="translate(544.677734 0.203125)"/>
      <use xlink:href="#ArialMT-6e" transform="translate(594.677734 0.203125)"/>
      <use xlink:href="#ArialMT-61" transform="translate(650.292969 0.203125)"/>
      <use xlink:href="#ArialMT-6d" transform="translate(705.908203 0.203125)"/>
      <use xlink:href="#ArialMT-69" transform="translate(789.208984 0.203125)"/>
      <use xlink:href="#ArialMT-63" transform="translate(811.425781 0.203125)"/>
      <use xlink:href="#ArialMT-20" transform="translate(861.425781 0.203125)"/>
      <use xlink:href="#DejaVuSans-Oblique-3c3" transform="translate(889.208984 0.203125)"/>
     </g>
    </g>
    <g id="line2d_19">
     <path d="M 78.690625 96.9275 
L 110.690625 96.9275 
" style="fill: none; stroke: #000000; stroke-width: 1.5"/>
    </g>
    <g id="text_18">
     <!-- Constant sigma -->
     <g style="fill: #262626" transform="translate(123.490625 102.5275)scale(0.16 -0.16)">
      <use xlink:href="#ArialMT-43"/>
      <use xlink:href="#ArialMT-6f" x="72.216797"/>
      <use xlink:href="#ArialMT-6e" x="127.832031"/>
      <use xlink:href="#ArialMT-73" x="183.447266"/>
      <use xlink:href="#ArialMT-74" x="233.447266"/>
      <use xlink:href="#ArialMT-61" x="261.230469"/>
      <use xlink:href="#ArialMT-6e" x="316.845703"/>
      <use xlink:href="#ArialMT-74" x="372.460938"/>
      <use xlink:href="#ArialMT-20" x="400.244141"/>
      <use xlink:href="#ArialMT-73" x="428.027344"/>
      <use xlink:href="#ArialMT-69" x="478.027344"/>
      <use xlink:href="#ArialMT-67" x="500.244141"/>
      <use xlink:href="#ArialMT-6d" x="555.859375"/>
      <use xlink:href="#ArialMT-61" x="639.160156"/>
     </g>
    </g>
   </g>
  </g>
 </g>
 <defs>
  <clipPath id="pf6aee33f0b">
   <rect x="64.290625" y="7.2" width="518.4" height="345.6"/>
  </clipPath>
 </defs>
</svg>
