<?xml version="1.0" encoding="utf-8" standalone="no"?>
<!DOCTYPE svg PUBLIC "-//W3C//DTD SVG 1.1//EN"
  "http://www.w3.org/Graphics/SVG/1.1/DTD/svg11.dtd">
<svg xmlns:xlink="http://www.w3.org/1999/xlink" width="372.755469pt" height="461.48pt" viewBox="0 0 372.755469 461.48" xmlns="http://www.w3.org/2000/svg" version="1.1">
 <metadata>
  <rdf:RDF xmlns:dc="http://purl.org/dc/elements/1.1/" xmlns:cc="http://creativecommons.org/ns#" xmlns:rdf="http://www.w3.org/1999/02/22-rdf-syntax-ns#">
   <cc:Work>
    <dc:type rdf:resource="http://purl.org/dc/dcmitype/StillImage"/>
    <dc:date>2022-10-02T11:23:20.011451</dc:date>
    <dc:format>image/svg+xml</dc:format>
    <dc:creator>
     <cc:Agent>
      <dc:title>Matplotlib v3.5.2, https://matplotlib.org/</dc:title>
     </cc:Agent>
    </dc:creator>
   </cc:Work>
  </rdf:RDF>
 </metadata>
 <defs>
  <style type="text/css">*{stroke-linejoin: round; stroke-linecap: butt}</style>
 </defs>
 <g id="figure_1">
  <g id="patch_1">
   <path d="M 0 461.48 
L 372.755469 461.48 
L 372.755469 0 
L 0 0 
z
" style="fill: #ffffff"/>
  </g>
  <g id="axes_1">
   <g id="patch_2">
    <path d="M 69.214062 122.589375 
L 357.214063 122.589375 
L 357.214063 21.789375 
L 69.214062 21.789375 
z
" style="fill: #e6e6e6"/>
   </g>
   <g id="matplotlib.axis_1">
    <g id="xtick_1">
     <g id="line2d_1">
      <path d="M 69.214063 122.589375 
L 69.214063 21.789375 
" clip-path="url(#p02dbba832d)" style="fill: none; stroke: #ffffff; stroke-width: 0.8; stroke-linecap: round"/>
     </g>
     <g id="text_1">
      <!-- −60 -->
      <g style="fill: #262626" transform="translate(60.732813 136.747187)scale(0.1 -0.1)">
       <defs>
        <path id="ArialMT-2212" d="M 3381 1997 
L 356 1997 
L 356 2522 
L 3381 2522 
L 3381 1997 
z
" transform="scale(0.015625)"/>
        <path id="ArialMT-36" d="M 3184 3459 
L 2625 3416 
Q 2550 3747 2413 3897 
Q 2184 4138 1850 4138 
Q 1581 4138 1378 3988 
Q 1113 3794 959 3422 
Q 806 3050 800 2363 
Q 1003 2672 1297 2822 
Q 1591 2972 1913 2972 
Q 2475 2972 2870 2558 
Q 3266 2144 3266 1488 
Q 3266 1056 3080 686 
Q 2894 316 2569 119 
Q 2244 -78 1831 -78 
Q 1128 -78 684 439 
Q 241 956 241 2144 
Q 241 3472 731 4075 
Q 1159 4600 1884 4600 
Q 2425 4600 2770 4297 
Q 3116 3994 3184 3459 
z
M 888 1484 
Q 888 1194 1011 928 
Q 1134 663 1356 523 
Q 1578 384 1822 384 
Q 2178 384 2434 671 
Q 2691 959 2691 1453 
Q 2691 1928 2437 2201 
Q 2184 2475 1800 2475 
Q 1419 2475 1153 2201 
Q 888 1928 888 1484 
z
" transform="scale(0.015625)"/>
        <path id="ArialMT-30" d="M 266 2259 
Q 266 3072 433 3567 
Q 600 4063 929 4331 
Q 1259 4600 1759 4600 
Q 2128 4600 2406 4451 
Q 2684 4303 2865 4023 
Q 3047 3744 3150 3342 
Q 3253 2941 3253 2259 
Q 3253 1453 3087 958 
Q 2922 463 2592 192 
Q 2263 -78 1759 -78 
Q 1097 -78 719 397 
Q 266 969 266 2259 
z
M 844 2259 
Q 844 1131 1108 757 
Q 1372 384 1759 384 
Q 2147 384 2411 759 
Q 2675 1134 2675 2259 
Q 2675 3391 2411 3762 
Q 2147 4134 1753 4134 
Q 1366 4134 1134 3806 
Q 844 3388 844 2259 
z
" transform="scale(0.015625)"/>
       </defs>
       <use xlink:href="#ArialMT-2212"/>
       <use xlink:href="#ArialMT-36" x="58.398438"/>
       <use xlink:href="#ArialMT-30" x="114.013672"/>
      </g>
     </g>
    </g>
    <g id="xtick_2">
     <g id="line2d_2">
      <path d="M 105.214063 122.589375 
L 105.214063 21.789375 
" clip-path="url(#p02dbba832d)" style="fill: none; stroke: #ffffff; stroke-width: 0.8; stroke-linecap: round"/>
     </g>
     <g id="text_2">
      <!-- −40 -->
      <g style="fill: #262626" transform="translate(96.732813 136.747187)scale(0.1 -0.1)">
       <defs>
        <path id="ArialMT-34" d="M 2069 0 
L 2069 1097 
L 81 1097 
L 81 1613 
L 2172 4581 
L 2631 4581 
L 2631 1613 
L 3250 1613 
L 3250 1097 
L 2631 1097 
L 2631 0 
L 2069 0 
z
M 2069 1613 
L 2069 3678 
L 634 1613 
L 2069 1613 
z
" transform="scale(0.015625)"/>
       </defs>
       <use xlink:href="#ArialMT-2212"/>
       <use xlink:href="#ArialMT-34" x="58.398438"/>
       <use xlink:href="#ArialMT-30" x="114.013672"/>
      </g>
     </g>
    </g>
    <g id="xtick_3">
     <g id="line2d_3">
      <path d="M 141.214063 122.589375 
L 141.214063 21.789375 
" clip-path="url(#p02dbba832d)" style="fill: none; stroke: #ffffff; stroke-width: 0.8; stroke-linecap: round"/>
     </g>
     <g id="text_3">
      <!-- −20 -->
      <g style="fill: #262626" transform="translate(132.732813 136.747187)scale(0.1 -0.1)">
       <defs>
        <path id="ArialMT-32" d="M 3222 541 
L 3222 0 
L 194 0 
Q 188 203 259 391 
Q 375 700 629 1000 
Q 884 1300 1366 1694 
Q 2113 2306 2375 2664 
Q 2638 3022 2638 3341 
Q 2638 3675 2398 3904 
Q 2159 4134 1775 4134 
Q 1369 4134 1125 3890 
Q 881 3647 878 3216 
L 300 3275 
Q 359 3922 746 4261 
Q 1134 4600 1788 4600 
Q 2447 4600 2831 4234 
Q 3216 3869 3216 3328 
Q 3216 3053 3103 2787 
Q 2991 2522 2730 2228 
Q 2469 1934 1863 1422 
Q 1356 997 1212 845 
Q 1069 694 975 541 
L 3222 541 
z
" transform="scale(0.015625)"/>
       </defs>
       <use xlink:href="#ArialMT-2212"/>
       <use xlink:href="#ArialMT-32" x="58.398438"/>
       <use xlink:href="#ArialMT-30" x="114.013672"/>
      </g>
     </g>
    </g>
    <g id="xtick_4">
     <g id="line2d_4">
      <path d="M 177.214063 122.589375 
L 177.214063 21.789375 
" clip-path="url(#p02dbba832d)" style="fill: none; stroke: #ffffff; stroke-width: 0.8; stroke-linecap: round"/>
     </g>
     <g id="text_4">
      <!-- 0 -->
      <g style="fill: #262626" transform="translate(174.433594 136.747187)scale(0.1 -0.1)">
       <use xlink:href="#ArialMT-30"/>
      </g>
     </g>
    </g>
    <g id="xtick_5">
     <g id="line2d_5">
      <path d="M 213.214063 122.589375 
L 213.214063 21.789375 
" clip-path="url(#p02dbba832d)" style="fill: none; stroke: #ffffff; stroke-width: 0.8; stroke-linecap: round"/>
     </g>
     <g id="text_5">
      <!-- 20 -->
      <g style="fill: #262626" transform="translate(207.653125 136.747187)scale(0.1 -0.1)">
       <use xlink:href="#ArialMT-32"/>
       <use xlink:href="#ArialMT-30" x="55.615234"/>
      </g>
     </g>
    </g>
    <g id="xtick_6">
     <g id="line2d_6">
      <path d="M 249.214063 122.589375 
L 249.214063 21.789375 
" clip-path="url(#p02dbba832d)" style="fill: none; stroke: #ffffff; stroke-width: 0.8; stroke-linecap: round"/>
     </g>
     <g id="text_6">
      <!-- 40 -->
      <g style="fill: #262626" transform="translate(243.653125 136.747187)scale(0.1 -0.1)">
       <use xlink:href="#ArialMT-34"/>
       <use xlink:href="#ArialMT-30" x="55.615234"/>
      </g>
     </g>
    </g>
    <g id="xtick_7">
     <g id="line2d_7">
      <path d="M 285.214063 122.589375 
L 285.214063 21.789375 
" clip-path="url(#p02dbba832d)" style="fill: none; stroke: #ffffff; stroke-width: 0.8; stroke-linecap: round"/>
     </g>
     <g id="text_7">
      <!-- 60 -->
      <g style="fill: #262626" transform="translate(279.653125 136.747187)scale(0.1 -0.1)">
       <use xlink:href="#ArialMT-36"/>
       <use xlink:href="#ArialMT-30" x="55.615234"/>
      </g>
     </g>
    </g>
    <g id="xtick_8">
     <g id="line2d_8">
      <path d="M 321.214063 122.589375 
L 321.214063 21.789375 
" clip-path="url(#p02dbba832d)" style="fill: none; stroke: #ffffff; stroke-width: 0.8; stroke-linecap: round"/>
     </g>
     <g id="text_8">
      <!-- 80 -->
      <g style="fill: #262626" transform="translate(315.653125 136.747187)scale(0.1 -0.1)">
       <defs>
        <path id="ArialMT-38" d="M 1131 2484 
Q 781 2613 612 2850 
Q 444 3088 444 3419 
Q 444 3919 803 4259 
Q 1163 4600 1759 4600 
Q 2359 4600 2725 4251 
Q 3091 3903 3091 3403 
Q 3091 3084 2923 2848 
Q 2756 2613 2416 2484 
Q 2838 2347 3058 2040 
Q 3278 1734 3278 1309 
Q 3278 722 2862 322 
Q 2447 -78 1769 -78 
Q 1091 -78 675 323 
Q 259 725 259 1325 
Q 259 1772 486 2073 
Q 713 2375 1131 2484 
z
M 1019 3438 
Q 1019 3113 1228 2906 
Q 1438 2700 1772 2700 
Q 2097 2700 2305 2904 
Q 2513 3109 2513 3406 
Q 2513 3716 2298 3927 
Q 2084 4138 1766 4138 
Q 1444 4138 1231 3931 
Q 1019 3725 1019 3438 
z
M 838 1322 
Q 838 1081 952 856 
Q 1066 631 1291 507 
Q 1516 384 1775 384 
Q 2178 384 2440 643 
Q 2703 903 2703 1303 
Q 2703 1709 2433 1975 
Q 2163 2241 1756 2241 
Q 1359 2241 1098 1978 
Q 838 1716 838 1322 
z
" transform="scale(0.015625)"/>
       </defs>
       <use xlink:href="#ArialMT-38"/>
       <use xlink:href="#ArialMT-30" x="55.615234"/>
      </g>
     </g>
    </g>
    <g id="xtick_9">
     <g id="line2d_9">
      <path d="M 357.214063 122.589375 
L 357.214063 21.789375 
" clip-path="url(#p02dbba832d)" style="fill: none; stroke: #ffffff; stroke-width: 0.8; stroke-linecap: round"/>
     </g>
     <g id="text_9">
      <!-- 100 -->
      <g style="fill: #262626" transform="translate(348.872656 136.747187)scale(0.1 -0.1)">
       <defs>
        <path id="ArialMT-31" d="M 2384 0 
L 1822 0 
L 1822 3584 
Q 1619 3391 1289 3197 
Q 959 3003 697 2906 
L 697 3450 
Q 1169 3672 1522 3987 
Q 1875 4303 2022 4600 
L 2384 4600 
L 2384 0 
z
" transform="scale(0.015625)"/>
       </defs>
       <use xlink:href="#ArialMT-31"/>
       <use xlink:href="#ArialMT-30" x="55.615234"/>
       <use xlink:href="#ArialMT-30" x="111.230469"/>
      </g>
     </g>
    </g>
    <g id="text_10">
     <!-- Gain -->
     <g style="fill: #262626" transform="translate(202.653125 149.8925)scale(0.1 -0.1)">
      <defs>
       <path id="ArialMT-47" d="M 2638 1797 
L 2638 2334 
L 4578 2338 
L 4578 638 
Q 4131 281 3656 101 
Q 3181 -78 2681 -78 
Q 2006 -78 1454 211 
Q 903 500 622 1047 
Q 341 1594 341 2269 
Q 341 2938 620 3517 
Q 900 4097 1425 4378 
Q 1950 4659 2634 4659 
Q 3131 4659 3532 4498 
Q 3934 4338 4162 4050 
Q 4391 3763 4509 3300 
L 3963 3150 
Q 3859 3500 3706 3700 
Q 3553 3900 3268 4020 
Q 2984 4141 2638 4141 
Q 2222 4141 1919 4014 
Q 1616 3888 1430 3681 
Q 1244 3475 1141 3228 
Q 966 2803 966 2306 
Q 966 1694 1177 1281 
Q 1388 869 1791 669 
Q 2194 469 2647 469 
Q 3041 469 3416 620 
Q 3791 772 3984 944 
L 3984 1797 
L 2638 1797 
z
" transform="scale(0.015625)"/>
       <path id="ArialMT-61" d="M 2588 409 
Q 2275 144 1986 34 
Q 1697 -75 1366 -75 
Q 819 -75 525 192 
Q 231 459 231 875 
Q 231 1119 342 1320 
Q 453 1522 633 1644 
Q 813 1766 1038 1828 
Q 1203 1872 1538 1913 
Q 2219 1994 2541 2106 
Q 2544 2222 2544 2253 
Q 2544 2597 2384 2738 
Q 2169 2928 1744 2928 
Q 1347 2928 1158 2789 
Q 969 2650 878 2297 
L 328 2372 
Q 403 2725 575 2942 
Q 747 3159 1072 3276 
Q 1397 3394 1825 3394 
Q 2250 3394 2515 3294 
Q 2781 3194 2906 3042 
Q 3031 2891 3081 2659 
Q 3109 2516 3109 2141 
L 3109 1391 
Q 3109 606 3145 398 
Q 3181 191 3288 0 
L 2700 0 
Q 2613 175 2588 409 
z
M 2541 1666 
Q 2234 1541 1622 1453 
Q 1275 1403 1131 1340 
Q 988 1278 909 1158 
Q 831 1038 831 891 
Q 831 666 1001 516 
Q 1172 366 1500 366 
Q 1825 366 2078 508 
Q 2331 650 2450 897 
Q 2541 1088 2541 1459 
L 2541 1666 
z
" transform="scale(0.015625)"/>
       <path id="ArialMT-69" d="M 425 3934 
L 425 4581 
L 988 4581 
L 988 3934 
L 425 3934 
z
M 425 0 
L 425 3319 
L 988 3319 
L 988 0 
L 425 0 
z
" transform="scale(0.015625)"/>
       <path id="ArialMT-6e" d="M 422 0 
L 422 3319 
L 928 3319 
L 928 2847 
Q 1294 3394 1984 3394 
Q 2284 3394 2536 3286 
Q 2788 3178 2913 3003 
Q 3038 2828 3088 2588 
Q 3119 2431 3119 2041 
L 3119 0 
L 2556 0 
L 2556 2019 
Q 2556 2363 2490 2533 
Q 2425 2703 2258 2804 
Q 2091 2906 1866 2906 
Q 1506 2906 1245 2678 
Q 984 2450 984 1813 
L 984 0 
L 422 0 
z
" transform="scale(0.015625)"/>
      </defs>
      <use xlink:href="#ArialMT-47"/>
      <use xlink:href="#ArialMT-61" x="77.783203"/>
      <use xlink:href="#ArialMT-69" x="133.398438"/>
      <use xlink:href="#ArialMT-6e" x="155.615234"/>
     </g>
    </g>
   </g>
   <g id="matplotlib.axis_2">
    <g id="ytick_1">
     <g id="line2d_10">
      <path d="M 69.214062 97.389375 
L 357.214063 97.389375 
" clip-path="url(#p02dbba832d)" style="fill: none; stroke: #ffffff; stroke-width: 0.8; stroke-linecap: round"/>
     </g>
     <g id="text_11">
      <!-- Static EA -->
      <g style="fill: #262626" transform="translate(21.085937 100.968281)scale(0.1 -0.1)">
       <defs>
        <path id="ArialMT-53" d="M 288 1472 
L 859 1522 
Q 900 1178 1048 958 
Q 1197 738 1509 602 
Q 1822 466 2213 466 
Q 2559 466 2825 569 
Q 3091 672 3220 851 
Q 3350 1031 3350 1244 
Q 3350 1459 3225 1620 
Q 3100 1781 2813 1891 
Q 2628 1963 1997 2114 
Q 1366 2266 1113 2400 
Q 784 2572 623 2826 
Q 463 3081 463 3397 
Q 463 3744 659 4045 
Q 856 4347 1234 4503 
Q 1613 4659 2075 4659 
Q 2584 4659 2973 4495 
Q 3363 4331 3572 4012 
Q 3781 3694 3797 3291 
L 3216 3247 
Q 3169 3681 2898 3903 
Q 2628 4125 2100 4125 
Q 1550 4125 1298 3923 
Q 1047 3722 1047 3438 
Q 1047 3191 1225 3031 
Q 1400 2872 2139 2705 
Q 2878 2538 3153 2413 
Q 3553 2228 3743 1945 
Q 3934 1663 3934 1294 
Q 3934 928 3725 604 
Q 3516 281 3123 101 
Q 2731 -78 2241 -78 
Q 1619 -78 1198 103 
Q 778 284 539 648 
Q 300 1013 288 1472 
z
" transform="scale(0.015625)"/>
        <path id="ArialMT-74" d="M 1650 503 
L 1731 6 
Q 1494 -44 1306 -44 
Q 1000 -44 831 53 
Q 663 150 594 308 
Q 525 466 525 972 
L 525 2881 
L 113 2881 
L 113 3319 
L 525 3319 
L 525 4141 
L 1084 4478 
L 1084 3319 
L 1650 3319 
L 1650 2881 
L 1084 2881 
L 1084 941 
Q 1084 700 1114 631 
Q 1144 563 1211 522 
Q 1278 481 1403 481 
Q 1497 481 1650 503 
z
" transform="scale(0.015625)"/>
        <path id="ArialMT-63" d="M 2588 1216 
L 3141 1144 
Q 3050 572 2676 248 
Q 2303 -75 1759 -75 
Q 1078 -75 664 370 
Q 250 816 250 1647 
Q 250 2184 428 2587 
Q 606 2991 970 3192 
Q 1334 3394 1763 3394 
Q 2303 3394 2647 3120 
Q 2991 2847 3088 2344 
L 2541 2259 
Q 2463 2594 2264 2762 
Q 2066 2931 1784 2931 
Q 1359 2931 1093 2626 
Q 828 2322 828 1663 
Q 828 994 1084 691 
Q 1341 388 1753 388 
Q 2084 388 2306 591 
Q 2528 794 2588 1216 
z
" transform="scale(0.015625)"/>
        <path id="ArialMT-20" transform="scale(0.015625)"/>
        <path id="ArialMT-45" d="M 506 0 
L 506 4581 
L 3819 4581 
L 3819 4041 
L 1113 4041 
L 1113 2638 
L 3647 2638 
L 3647 2100 
L 1113 2100 
L 1113 541 
L 3925 541 
L 3925 0 
L 506 0 
z
" transform="scale(0.015625)"/>
        <path id="ArialMT-41" d="M -9 0 
L 1750 4581 
L 2403 4581 
L 4278 0 
L 3588 0 
L 3053 1388 
L 1138 1388 
L 634 0 
L -9 0 
z
M 1313 1881 
L 2866 1881 
L 2388 3150 
Q 2169 3728 2063 4100 
Q 1975 3659 1816 3225 
L 1313 1881 
z
" transform="scale(0.015625)"/>
       </defs>
       <use xlink:href="#ArialMT-53"/>
       <use xlink:href="#ArialMT-74" x="66.699219"/>
       <use xlink:href="#ArialMT-61" x="94.482422"/>
       <use xlink:href="#ArialMT-74" x="150.097656"/>
       <use xlink:href="#ArialMT-69" x="177.880859"/>
       <use xlink:href="#ArialMT-63" x="200.097656"/>
       <use xlink:href="#ArialMT-20" x="250.097656"/>
       <use xlink:href="#ArialMT-45" x="277.880859"/>
       <use xlink:href="#ArialMT-41" x="344.580078"/>
      </g>
     </g>
    </g>
    <g id="ytick_2">
     <g id="line2d_11">
      <path d="M 69.214062 46.989375 
L 357.214063 46.989375 
" clip-path="url(#p02dbba832d)" style="fill: none; stroke: #ffffff; stroke-width: 0.8; stroke-linecap: round"/>
     </g>
     <g id="text_12">
      <!-- Dynamic EA -->
      <g style="fill: #262626" transform="translate(7.2 50.568281)scale(0.1 -0.1)">
       <defs>
        <path id="ArialMT-44" d="M 494 0 
L 494 4581 
L 2072 4581 
Q 2606 4581 2888 4516 
Q 3281 4425 3559 4188 
Q 3922 3881 4101 3404 
Q 4281 2928 4281 2316 
Q 4281 1794 4159 1391 
Q 4038 988 3847 723 
Q 3656 459 3429 307 
Q 3203 156 2883 78 
Q 2563 0 2147 0 
L 494 0 
z
M 1100 541 
L 2078 541 
Q 2531 541 2789 625 
Q 3047 709 3200 863 
Q 3416 1078 3536 1442 
Q 3656 1806 3656 2325 
Q 3656 3044 3420 3430 
Q 3184 3816 2847 3947 
Q 2603 4041 2063 4041 
L 1100 4041 
L 1100 541 
z
" transform="scale(0.015625)"/>
        <path id="ArialMT-79" d="M 397 -1278 
L 334 -750 
Q 519 -800 656 -800 
Q 844 -800 956 -737 
Q 1069 -675 1141 -563 
Q 1194 -478 1313 -144 
Q 1328 -97 1363 -6 
L 103 3319 
L 709 3319 
L 1400 1397 
Q 1534 1031 1641 628 
Q 1738 1016 1872 1384 
L 2581 3319 
L 3144 3319 
L 1881 -56 
Q 1678 -603 1566 -809 
Q 1416 -1088 1222 -1217 
Q 1028 -1347 759 -1347 
Q 597 -1347 397 -1278 
z
" transform="scale(0.015625)"/>
        <path id="ArialMT-6d" d="M 422 0 
L 422 3319 
L 925 3319 
L 925 2853 
Q 1081 3097 1340 3245 
Q 1600 3394 1931 3394 
Q 2300 3394 2536 3241 
Q 2772 3088 2869 2813 
Q 3263 3394 3894 3394 
Q 4388 3394 4653 3120 
Q 4919 2847 4919 2278 
L 4919 0 
L 4359 0 
L 4359 2091 
Q 4359 2428 4304 2576 
Q 4250 2725 4106 2815 
Q 3963 2906 3769 2906 
Q 3419 2906 3187 2673 
Q 2956 2441 2956 1928 
L 2956 0 
L 2394 0 
L 2394 2156 
Q 2394 2531 2256 2718 
Q 2119 2906 1806 2906 
Q 1569 2906 1367 2781 
Q 1166 2656 1075 2415 
Q 984 2175 984 1722 
L 984 0 
L 422 0 
z
" transform="scale(0.015625)"/>
       </defs>
       <use xlink:href="#ArialMT-44"/>
       <use xlink:href="#ArialMT-79" x="72.216797"/>
       <use xlink:href="#ArialMT-6e" x="122.216797"/>
       <use xlink:href="#ArialMT-61" x="177.832031"/>
       <use xlink:href="#ArialMT-6d" x="233.447266"/>
       <use xlink:href="#ArialMT-69" x="316.748047"/>
       <use xlink:href="#ArialMT-63" x="338.964844"/>
       <use xlink:href="#ArialMT-20" x="388.964844"/>
       <use xlink:href="#ArialMT-45" x="416.748047"/>
       <use xlink:href="#ArialMT-41" x="483.447266"/>
      </g>
     </g>
    </g>
   </g>
   <g id="patch_3">
    <path d="M 336.514063 101.169375 
L 336.514063 93.609375 
L 341.914062 93.609375 
L 341.914062 101.169375 
L 336.514063 101.169375 
z
" clip-path="url(#p02dbba832d)" style="fill: #add8e6; stroke: #000000; stroke-linejoin: miter"/>
   </g>
   <g id="line2d_12">
    <path d="M 336.514063 97.389375 
L 332.014063 97.389375 
" clip-path="url(#p02dbba832d)" style="fill: none; stroke: #000000; stroke-linecap: round"/>
   </g>
   <g id="line2d_13">
    <path d="M 341.914062 97.389375 
L 350.014063 97.389375 
" clip-path="url(#p02dbba832d)" style="fill: none; stroke: #000000; stroke-linecap: round"/>
   </g>
   <g id="line2d_14">
    <path d="M 332.014063 99.279375 
L 332.014063 95.499375 
" clip-path="url(#p02dbba832d)" style="fill: none; stroke: #000000; stroke-linecap: round"/>
   </g>
   <g id="line2d_15">
    <path d="M 350.014063 99.279375 
L 350.014063 95.499375 
" clip-path="url(#p02dbba832d)" style="fill: none; stroke: #000000; stroke-linecap: round"/>
   </g>
   <g id="line2d_16">
    <defs>
     <path id="m60d3489dee" d="M 0 3 
C 0.795609 3 1.55874 2.683901 2.12132 2.12132 
C 2.683901 1.55874 3 0.795609 3 0 
C 3 -0.795609 2.683901 -1.55874 2.12132 -2.12132 
C 1.55874 -2.683901 0.795609 -3 0 -3 
C -0.795609 -3 -1.55874 -2.683901 -2.12132 -2.12132 
C -2.683901 -1.55874 -3 -0.795609 -3 0 
C -3 0.795609 -2.683901 1.55874 -2.12132 2.12132 
C -1.55874 2.683901 -0.795609 3 0 3 
z
" style="stroke: #000000"/>
    </defs>
    <g clip-path="url(#p02dbba832d)">
     <use xlink:href="#m60d3489dee" x="324.814062" y="97.389375" style="fill-opacity: 0; stroke: #000000"/>
    </g>
   </g>
   <g id="patch_4">
    <path d="M 329.314062 50.769375 
L 329.314062 43.209375 
L 341.914062 43.209375 
L 341.914062 50.769375 
L 329.314062 50.769375 
z
" clip-path="url(#p02dbba832d)" style="fill: #ffc0cb; stroke: #000000; stroke-linejoin: miter"/>
   </g>
   <g id="line2d_17">
    <path d="M 329.314062 46.989375 
L 317.614063 46.989375 
" clip-path="url(#p02dbba832d)" style="fill: none; stroke: #000000; stroke-linecap: round"/>
   </g>
   <g id="line2d_18">
    <path d="M 341.914062 46.989375 
L 342.814062 46.989375 
" clip-path="url(#p02dbba832d)" style="fill: none; stroke: #000000; stroke-linecap: round"/>
   </g>
   <g id="line2d_19">
    <path d="M 317.614063 48.879375 
L 317.614063 45.099375 
" clip-path="url(#p02dbba832d)" style="fill: none; stroke: #000000; stroke-linecap: round"/>
   </g>
   <g id="line2d_20">
    <path d="M 342.814062 48.879375 
L 342.814062 45.099375 
" clip-path="url(#p02dbba832d)" style="fill: none; stroke: #000000; stroke-linecap: round"/>
   </g>
   <g id="line2d_21"/>
   <g id="line2d_22">
    <path d="M 339.214063 101.169375 
L 339.214063 93.609375 
" clip-path="url(#p02dbba832d)" style="fill: none; stroke: #ff7f0e; stroke-linecap: round"/>
   </g>
   <g id="line2d_23">
    <path d="M 337.414062 50.769375 
L 337.414062 43.209375 
" clip-path="url(#p02dbba832d)" style="fill: none; stroke: #ff7f0e; stroke-linecap: round"/>
   </g>
   <g id="patch_5">
    <path d="M 69.214062 122.589375 
L 69.214062 21.789375 
" style="fill: none; stroke: #ffffff; stroke-width: 0.8; stroke-linejoin: miter; stroke-linecap: square"/>
   </g>
   <g id="patch_6">
    <path d="M 357.214063 122.589375 
L 357.214063 21.789375 
" style="fill: none; stroke: #ffffff; stroke-width: 0.8; stroke-linejoin: miter; stroke-linecap: square"/>
   </g>
   <g id="patch_7">
    <path d="M 69.214063 122.589375 
L 357.214063 122.589375 
" style="fill: none; stroke: #ffffff; stroke-width: 0.8; stroke-linejoin: miter; stroke-linecap: square"/>
   </g>
   <g id="patch_8">
    <path d="M 69.214063 21.789375 
L 357.214063 21.789375 
" style="fill: none; stroke: #ffffff; stroke-width: 0.8; stroke-linejoin: miter; stroke-linecap: square"/>
   </g>
   <g id="text_13">
    <!-- enemy: Airman -->
    <g style="fill: #262626" transform="translate(173.19875 15.789375)scale(0.12 -0.12)">
     <defs>
      <path id="ArialMT-65" d="M 2694 1069 
L 3275 997 
Q 3138 488 2766 206 
Q 2394 -75 1816 -75 
Q 1088 -75 661 373 
Q 234 822 234 1631 
Q 234 2469 665 2931 
Q 1097 3394 1784 3394 
Q 2450 3394 2872 2941 
Q 3294 2488 3294 1666 
Q 3294 1616 3291 1516 
L 816 1516 
Q 847 969 1125 678 
Q 1403 388 1819 388 
Q 2128 388 2347 550 
Q 2566 713 2694 1069 
z
M 847 1978 
L 2700 1978 
Q 2663 2397 2488 2606 
Q 2219 2931 1791 2931 
Q 1403 2931 1139 2672 
Q 875 2413 847 1978 
z
" transform="scale(0.015625)"/>
      <path id="ArialMT-3a" d="M 578 2678 
L 578 3319 
L 1219 3319 
L 1219 2678 
L 578 2678 
z
M 578 0 
L 578 641 
L 1219 641 
L 1219 0 
L 578 0 
z
" transform="scale(0.015625)"/>
      <path id="ArialMT-72" d="M 416 0 
L 416 3319 
L 922 3319 
L 922 2816 
Q 1116 3169 1280 3281 
Q 1444 3394 1641 3394 
Q 1925 3394 2219 3213 
L 2025 2691 
Q 1819 2813 1613 2813 
Q 1428 2813 1281 2702 
Q 1134 2591 1072 2394 
Q 978 2094 978 1738 
L 978 0 
L 416 0 
z
" transform="scale(0.015625)"/>
     </defs>
     <use xlink:href="#ArialMT-65"/>
     <use xlink:href="#ArialMT-6e" x="55.615234"/>
     <use xlink:href="#ArialMT-65" x="111.230469"/>
     <use xlink:href="#ArialMT-6d" x="166.845703"/>
     <use xlink:href="#ArialMT-79" x="250.146484"/>
     <use xlink:href="#ArialMT-3a" x="300.146484"/>
     <use xlink:href="#ArialMT-20" x="327.929688"/>
     <use xlink:href="#ArialMT-41" x="350.212891"/>
     <use xlink:href="#ArialMT-69" x="416.912109"/>
     <use xlink:href="#ArialMT-72" x="439.128906"/>
     <use xlink:href="#ArialMT-6d" x="472.429688"/>
     <use xlink:href="#ArialMT-61" x="555.730469"/>
     <use xlink:href="#ArialMT-6e" x="611.345703"/>
    </g>
   </g>
  </g>
  <g id="axes_2">
   <g id="patch_9">
    <path d="M 69.214062 273.789375 
L 357.214063 273.789375 
L 357.214063 172.989375 
L 69.214062 172.989375 
z
" style="fill: #e6e6e6"/>
   </g>
   <g id="matplotlib.axis_3">
    <g id="xtick_10">
     <g id="line2d_24">
      <path d="M 81.25287 273.789375 
L 81.25287 172.989375 
" clip-path="url(#p4c3824c16c)" style="fill: none; stroke: #ffffff; stroke-width: 0.8; stroke-linecap: round"/>
     </g>
     <g id="text_14">
      <!-- −60 -->
      <g style="fill: #262626" transform="translate(72.77162 287.947187)scale(0.1 -0.1)">
       <use xlink:href="#ArialMT-2212"/>
       <use xlink:href="#ArialMT-36" x="58.398438"/>
       <use xlink:href="#ArialMT-30" x="114.013672"/>
      </g>
     </g>
    </g>
    <g id="xtick_11">
     <g id="line2d_25">
      <path d="M 115.748019 273.789375 
L 115.748019 172.989375 
" clip-path="url(#p4c3824c16c)" style="fill: none; stroke: #ffffff; stroke-width: 0.8; stroke-linecap: round"/>
     </g>
     <g id="text_15">
      <!-- −40 -->
      <g style="fill: #262626" transform="translate(107.266769 287.947187)scale(0.1 -0.1)">
       <use xlink:href="#ArialMT-2212"/>
       <use xlink:href="#ArialMT-34" x="58.398438"/>
       <use xlink:href="#ArialMT-30" x="114.013672"/>
      </g>
     </g>
    </g>
    <g id="xtick_12">
     <g id="line2d_26">
      <path d="M 150.243168 273.789375 
L 150.243168 172.989375 
" clip-path="url(#p4c3824c16c)" style="fill: none; stroke: #ffffff; stroke-width: 0.8; stroke-linecap: round"/>
     </g>
     <g id="text_16">
      <!-- −20 -->
      <g style="fill: #262626" transform="translate(141.761918 287.947187)scale(0.1 -0.1)">
       <use xlink:href="#ArialMT-2212"/>
       <use xlink:href="#ArialMT-32" x="58.398438"/>
       <use xlink:href="#ArialMT-30" x="114.013672"/>
      </g>
     </g>
    </g>
    <g id="xtick_13">
     <g id="line2d_27">
      <path d="M 184.738317 273.789375 
L 184.738317 172.989375 
" clip-path="url(#p4c3824c16c)" style="fill: none; stroke: #ffffff; stroke-width: 0.8; stroke-linecap: round"/>
     </g>
     <g id="text_17">
      <!-- 0 -->
      <g style="fill: #262626" transform="translate(181.957848 287.947187)scale(0.1 -0.1)">
       <use xlink:href="#ArialMT-30"/>
      </g>
     </g>
    </g>
    <g id="xtick_14">
     <g id="line2d_28">
      <path d="M 219.233466 273.789375 
L 219.233466 172.989375 
" clip-path="url(#p4c3824c16c)" style="fill: none; stroke: #ffffff; stroke-width: 0.8; stroke-linecap: round"/>
     </g>
     <g id="text_18">
      <!-- 20 -->
      <g style="fill: #262626" transform="translate(213.672529 287.947187)scale(0.1 -0.1)">
       <use xlink:href="#ArialMT-32"/>
       <use xlink:href="#ArialMT-30" x="55.615234"/>
      </g>
     </g>
    </g>
    <g id="xtick_15">
     <g id="line2d_29">
      <path d="M 253.728615 273.789375 
L 253.728615 172.989375 
" clip-path="url(#p4c3824c16c)" style="fill: none; stroke: #ffffff; stroke-width: 0.8; stroke-linecap: round"/>
     </g>
     <g id="text_19">
      <!-- 40 -->
      <g style="fill: #262626" transform="translate(248.167678 287.947187)scale(0.1 -0.1)">
       <use xlink:href="#ArialMT-34"/>
       <use xlink:href="#ArialMT-30" x="55.615234"/>
      </g>
     </g>
    </g>
    <g id="xtick_16">
     <g id="line2d_30">
      <path d="M 288.223764 273.789375 
L 288.223764 172.989375 
" clip-path="url(#p4c3824c16c)" style="fill: none; stroke: #ffffff; stroke-width: 0.8; stroke-linecap: round"/>
     </g>
     <g id="text_20">
      <!-- 60 -->
      <g style="fill: #262626" transform="translate(282.662827 287.947187)scale(0.1 -0.1)">
       <use xlink:href="#ArialMT-36"/>
       <use xlink:href="#ArialMT-30" x="55.615234"/>
      </g>
     </g>
    </g>
    <g id="xtick_17">
     <g id="line2d_31">
      <path d="M 322.718913 273.789375 
L 322.718913 172.989375 
" clip-path="url(#p4c3824c16c)" style="fill: none; stroke: #ffffff; stroke-width: 0.8; stroke-linecap: round"/>
     </g>
     <g id="text_21">
      <!-- 80 -->
      <g style="fill: #262626" transform="translate(317.157976 287.947187)scale(0.1 -0.1)">
       <use xlink:href="#ArialMT-38"/>
       <use xlink:href="#ArialMT-30" x="55.615234"/>
      </g>
     </g>
    </g>
    <g id="xtick_18">
     <g id="line2d_32">
      <path d="M 357.214062 273.789375 
L 357.214062 172.989375 
" clip-path="url(#p4c3824c16c)" style="fill: none; stroke: #ffffff; stroke-width: 0.8; stroke-linecap: round"/>
     </g>
     <g id="text_22">
      <!-- 100 -->
      <g style="fill: #262626" transform="translate(348.872656 287.947187)scale(0.1 -0.1)">
       <use xlink:href="#ArialMT-31"/>
       <use xlink:href="#ArialMT-30" x="55.615234"/>
       <use xlink:href="#ArialMT-30" x="111.230469"/>
      </g>
     </g>
    </g>
    <g id="text_23">
     <!-- Gain -->
     <g style="fill: #262626" transform="translate(202.653125 301.0925)scale(0.1 -0.1)">
      <use xlink:href="#ArialMT-47"/>
      <use xlink:href="#ArialMT-61" x="77.783203"/>
      <use xlink:href="#ArialMT-69" x="133.398438"/>
      <use xlink:href="#ArialMT-6e" x="155.615234"/>
     </g>
    </g>
   </g>
   <g id="matplotlib.axis_4">
    <g id="ytick_3">
     <g id="line2d_33">
      <path d="M 69.214062 248.589375 
L 357.214063 248.589375 
" clip-path="url(#p4c3824c16c)" style="fill: none; stroke: #ffffff; stroke-width: 0.8; stroke-linecap: round"/>
     </g>
     <g id="text_24">
      <!-- Static EA -->
      <g style="fill: #262626" transform="translate(21.085937 252.168281)scale(0.1 -0.1)">
       <use xlink:href="#ArialMT-53"/>
       <use xlink:href="#ArialMT-74" x="66.699219"/>
       <use xlink:href="#ArialMT-61" x="94.482422"/>
       <use xlink:href="#ArialMT-74" x="150.097656"/>
       <use xlink:href="#ArialMT-69" x="177.880859"/>
       <use xlink:href="#ArialMT-63" x="200.097656"/>
       <use xlink:href="#ArialMT-20" x="250.097656"/>
       <use xlink:href="#ArialMT-45" x="277.880859"/>
       <use xlink:href="#ArialMT-41" x="344.580078"/>
      </g>
     </g>
    </g>
    <g id="ytick_4">
     <g id="line2d_34">
      <path d="M 69.214062 198.189375 
L 357.214063 198.189375 
" clip-path="url(#p4c3824c16c)" style="fill: none; stroke: #ffffff; stroke-width: 0.8; stroke-linecap: round"/>
     </g>
     <g id="text_25">
      <!-- Dynamic EA -->
      <g style="fill: #262626" transform="translate(7.2 201.768281)scale(0.1 -0.1)">
       <use xlink:href="#ArialMT-44"/>
       <use xlink:href="#ArialMT-79" x="72.216797"/>
       <use xlink:href="#ArialMT-6e" x="122.216797"/>
       <use xlink:href="#ArialMT-61" x="177.832031"/>
       <use xlink:href="#ArialMT-6d" x="233.447266"/>
       <use xlink:href="#ArialMT-69" x="316.748047"/>
       <use xlink:href="#ArialMT-63" x="338.964844"/>
       <use xlink:href="#ArialMT-20" x="388.964844"/>
       <use xlink:href="#ArialMT-45" x="416.748047"/>
       <use xlink:href="#ArialMT-41" x="483.447266"/>
      </g>
     </g>
    </g>
   </g>
   <g id="patch_10">
    <path d="M 258.644174 252.369375 
L 258.644174 244.809375 
L 288.137526 244.809375 
L 288.137526 252.369375 
L 258.644174 252.369375 
z
" clip-path="url(#p4c3824c16c)" style="fill: #add8e6; stroke: #000000; stroke-linejoin: miter"/>
   </g>
   <g id="line2d_35">
    <path d="M 258.644174 248.589375 
L 228.892108 248.589375 
" clip-path="url(#p4c3824c16c)" style="fill: none; stroke: #000000; stroke-linecap: round"/>
   </g>
   <g id="line2d_36">
    <path d="M 288.137526 248.589375 
L 317.889593 248.589375 
" clip-path="url(#p4c3824c16c)" style="fill: none; stroke: #000000; stroke-linecap: round"/>
   </g>
   <g id="line2d_37">
    <path d="M 228.892108 250.479375 
L 228.892108 246.699375 
" clip-path="url(#p4c3824c16c)" style="fill: none; stroke: #000000; stroke-linecap: round"/>
   </g>
   <g id="line2d_38">
    <path d="M 317.889593 250.479375 
L 317.889593 246.699375 
" clip-path="url(#p4c3824c16c)" style="fill: none; stroke: #000000; stroke-linecap: round"/>
   </g>
   <g id="line2d_39">
    <g clip-path="url(#p4c3824c16c)">
     <use xlink:href="#m60d3489dee" x="150.243168" y="248.589375" style="fill-opacity: 0; stroke: #000000"/>
    </g>
   </g>
   <g id="patch_11">
    <path d="M 274.684418 201.969375 
L 274.684418 194.409375 
L 297.70993 194.409375 
L 297.70993 201.969375 
L 274.684418 201.969375 
z
" clip-path="url(#p4c3824c16c)" style="fill: #ffc0cb; stroke: #000000; stroke-linejoin: miter"/>
   </g>
   <g id="line2d_40">
    <path d="M 274.684418 198.189375 
L 273.39085 198.189375 
" clip-path="url(#p4c3824c16c)" style="fill: none; stroke: #000000; stroke-linecap: round"/>
   </g>
   <g id="line2d_41">
    <path d="M 297.70993 198.189375 
L 322.02901 198.189375 
" clip-path="url(#p4c3824c16c)" style="fill: none; stroke: #000000; stroke-linecap: round"/>
   </g>
   <g id="line2d_42">
    <path d="M 273.39085 200.079375 
L 273.39085 196.299375 
" clip-path="url(#p4c3824c16c)" style="fill: none; stroke: #000000; stroke-linecap: round"/>
   </g>
   <g id="line2d_43">
    <path d="M 322.02901 200.079375 
L 322.02901 196.299375 
" clip-path="url(#p4c3824c16c)" style="fill: none; stroke: #000000; stroke-linecap: round"/>
   </g>
   <g id="line2d_44">
    <g clip-path="url(#p4c3824c16c)">
     <use xlink:href="#m60d3489dee" x="81.25287" y="198.189375" style="fill-opacity: 0; stroke: #000000"/>
     <use xlink:href="#m60d3489dee" x="195.776765" y="198.189375" style="fill-opacity: 0; stroke: #000000"/>
    </g>
   </g>
   <g id="line2d_45">
    <path d="M 269.251432 252.369375 
L 269.251432 244.809375 
" clip-path="url(#p4c3824c16c)" style="fill: none; stroke: #ff7f0e; stroke-linecap: round"/>
   </g>
   <g id="line2d_46">
    <path d="M 284.774249 201.969375 
L 284.774249 194.409375 
" clip-path="url(#p4c3824c16c)" style="fill: none; stroke: #ff7f0e; stroke-linecap: round"/>
   </g>
   <g id="patch_12">
    <path d="M 69.214062 273.789375 
L 69.214062 172.989375 
" style="fill: none; stroke: #ffffff; stroke-width: 0.8; stroke-linejoin: miter; stroke-linecap: square"/>
   </g>
   <g id="patch_13">
    <path d="M 357.214063 273.789375 
L 357.214063 172.989375 
" style="fill: none; stroke: #ffffff; stroke-width: 0.8; stroke-linejoin: miter; stroke-linecap: square"/>
   </g>
   <g id="patch_14">
    <path d="M 69.214062 273.789375 
L 357.214062 273.789375 
" style="fill: none; stroke: #ffffff; stroke-width: 0.8; stroke-linejoin: miter; stroke-linecap: square"/>
   </g>
   <g id="patch_15">
    <path d="M 69.214062 172.989375 
L 357.214062 172.989375 
" style="fill: none; stroke: #ffffff; stroke-width: 0.8; stroke-linejoin: miter; stroke-linecap: square"/>
   </g>
   <g id="text_26">
    <!-- enemy: Heatman -->
    <g style="fill: #262626" transform="translate(167.52875 166.989375)scale(0.12 -0.12)">
     <defs>
      <path id="ArialMT-48" d="M 513 0 
L 513 4581 
L 1119 4581 
L 1119 2700 
L 3500 2700 
L 3500 4581 
L 4106 4581 
L 4106 0 
L 3500 0 
L 3500 2159 
L 1119 2159 
L 1119 0 
L 513 0 
z
" transform="scale(0.015625)"/>
     </defs>
     <use xlink:href="#ArialMT-65"/>
     <use xlink:href="#ArialMT-6e" x="55.615234"/>
     <use xlink:href="#ArialMT-65" x="111.230469"/>
     <use xlink:href="#ArialMT-6d" x="166.845703"/>
     <use xlink:href="#ArialMT-79" x="250.146484"/>
     <use xlink:href="#ArialMT-3a" x="300.146484"/>
     <use xlink:href="#ArialMT-20" x="327.929688"/>
     <use xlink:href="#ArialMT-48" x="355.712891"/>
     <use xlink:href="#ArialMT-65" x="427.929688"/>
     <use xlink:href="#ArialMT-61" x="483.544922"/>
     <use xlink:href="#ArialMT-74" x="539.160156"/>
     <use xlink:href="#ArialMT-6d" x="566.943359"/>
     <use xlink:href="#ArialMT-61" x="650.244141"/>
     <use xlink:href="#ArialMT-6e" x="705.859375"/>
    </g>
   </g>
  </g>
  <g id="axes_3">
   <g id="patch_16">
    <path d="M 69.214062 424.989375 
L 357.214063 424.989375 
L 357.214063 324.189375 
L 69.214062 324.189375 
z
" style="fill: #e6e6e6"/>
   </g>
   <g id="matplotlib.axis_5">
    <g id="xtick_19">
     <g id="line2d_47">
      <path d="M 69.214063 424.989375 
L 69.214063 324.189375 
" clip-path="url(#p99291bf967)" style="fill: none; stroke: #ffffff; stroke-width: 0.8; stroke-linecap: round"/>
     </g>
     <g id="text_27">
      <!-- −60 -->
      <g style="fill: #262626" transform="translate(60.732813 439.147188)scale(0.1 -0.1)">
       <use xlink:href="#ArialMT-2212"/>
       <use xlink:href="#ArialMT-36" x="58.398438"/>
       <use xlink:href="#ArialMT-30" x="114.013672"/>
      </g>
     </g>
    </g>
    <g id="xtick_20">
     <g id="line2d_48">
      <path d="M 105.214063 424.989375 
L 105.214063 324.189375 
" clip-path="url(#p99291bf967)" style="fill: none; stroke: #ffffff; stroke-width: 0.8; stroke-linecap: round"/>
     </g>
     <g id="text_28">
      <!-- −40 -->
      <g style="fill: #262626" transform="translate(96.732813 439.147188)scale(0.1 -0.1)">
       <use xlink:href="#ArialMT-2212"/>
       <use xlink:href="#ArialMT-34" x="58.398438"/>
       <use xlink:href="#ArialMT-30" x="114.013672"/>
      </g>
     </g>
    </g>
    <g id="xtick_21">
     <g id="line2d_49">
      <path d="M 141.214063 424.989375 
L 141.214063 324.189375 
" clip-path="url(#p99291bf967)" style="fill: none; stroke: #ffffff; stroke-width: 0.8; stroke-linecap: round"/>
     </g>
     <g id="text_29">
      <!-- −20 -->
      <g style="fill: #262626" transform="translate(132.732813 439.147188)scale(0.1 -0.1)">
       <use xlink:href="#ArialMT-2212"/>
       <use xlink:href="#ArialMT-32" x="58.398438"/>
       <use xlink:href="#ArialMT-30" x="114.013672"/>
      </g>
     </g>
    </g>
    <g id="xtick_22">
     <g id="line2d_50">
      <path d="M 177.214063 424.989375 
L 177.214063 324.189375 
" clip-path="url(#p99291bf967)" style="fill: none; stroke: #ffffff; stroke-width: 0.8; stroke-linecap: round"/>
     </g>
     <g id="text_30">
      <!-- 0 -->
      <g style="fill: #262626" transform="translate(174.433594 439.147188)scale(0.1 -0.1)">
       <use xlink:href="#ArialMT-30"/>
      </g>
     </g>
    </g>
    <g id="xtick_23">
     <g id="line2d_51">
      <path d="M 213.214063 424.989375 
L 213.214063 324.189375 
" clip-path="url(#p99291bf967)" style="fill: none; stroke: #ffffff; stroke-width: 0.8; stroke-linecap: round"/>
     </g>
     <g id="text_31">
      <!-- 20 -->
      <g style="fill: #262626" transform="translate(207.653125 439.147188)scale(0.1 -0.1)">
       <use xlink:href="#ArialMT-32"/>
       <use xlink:href="#ArialMT-30" x="55.615234"/>
      </g>
     </g>
    </g>
    <g id="xtick_24">
     <g id="line2d_52">
      <path d="M 249.214063 424.989375 
L 249.214063 324.189375 
" clip-path="url(#p99291bf967)" style="fill: none; stroke: #ffffff; stroke-width: 0.8; stroke-linecap: round"/>
     </g>
     <g id="text_32">
      <!-- 40 -->
      <g style="fill: #262626" transform="translate(243.653125 439.147188)scale(0.1 -0.1)">
       <use xlink:href="#ArialMT-34"/>
       <use xlink:href="#ArialMT-30" x="55.615234"/>
      </g>
     </g>
    </g>
    <g id="xtick_25">
     <g id="line2d_53">
      <path d="M 285.214063 424.989375 
L 285.214063 324.189375 
" clip-path="url(#p99291bf967)" style="fill: none; stroke: #ffffff; stroke-width: 0.8; stroke-linecap: round"/>
     </g>
     <g id="text_33">
      <!-- 60 -->
      <g style="fill: #262626" transform="translate(279.653125 439.147188)scale(0.1 -0.1)">
       <use xlink:href="#ArialMT-36"/>
       <use xlink:href="#ArialMT-30" x="55.615234"/>
      </g>
     </g>
    </g>
    <g id="xtick_26">
     <g id="line2d_54">
      <path d="M 321.214063 424.989375 
L 321.214063 324.189375 
" clip-path="url(#p99291bf967)" style="fill: none; stroke: #ffffff; stroke-width: 0.8; stroke-linecap: round"/>
     </g>
     <g id="text_34">
      <!-- 80 -->
      <g style="fill: #262626" transform="translate(315.653125 439.147188)scale(0.1 -0.1)">
       <use xlink:href="#ArialMT-38"/>
       <use xlink:href="#ArialMT-30" x="55.615234"/>
      </g>
     </g>
    </g>
    <g id="xtick_27">
     <g id="line2d_55">
      <path d="M 357.214063 424.989375 
L 357.214063 324.189375 
" clip-path="url(#p99291bf967)" style="fill: none; stroke: #ffffff; stroke-width: 0.8; stroke-linecap: round"/>
     </g>
     <g id="text_35">
      <!-- 100 -->
      <g style="fill: #262626" transform="translate(348.872656 439.147188)scale(0.1 -0.1)">
       <use xlink:href="#ArialMT-31"/>
       <use xlink:href="#ArialMT-30" x="55.615234"/>
       <use xlink:href="#ArialMT-30" x="111.230469"/>
      </g>
     </g>
    </g>
    <g id="text_36">
     <!-- Gain -->
     <g style="fill: #262626" transform="translate(202.653125 452.2925)scale(0.1 -0.1)">
      <use xlink:href="#ArialMT-47"/>
      <use xlink:href="#ArialMT-61" x="77.783203"/>
      <use xlink:href="#ArialMT-69" x="133.398438"/>
      <use xlink:href="#ArialMT-6e" x="155.615234"/>
     </g>
    </g>
   </g>
   <g id="matplotlib.axis_6">
    <g id="ytick_5">
     <g id="line2d_56">
      <path d="M 69.214062 399.789375 
L 357.214063 399.789375 
" clip-path="url(#p99291bf967)" style="fill: none; stroke: #ffffff; stroke-width: 0.8; stroke-linecap: round"/>
     </g>
     <g id="text_37">
      <!-- Static EA -->
      <g style="fill: #262626" transform="translate(21.085937 403.368281)scale(0.1 -0.1)">
       <use xlink:href="#ArialMT-53"/>
       <use xlink:href="#ArialMT-74" x="66.699219"/>
       <use xlink:href="#ArialMT-61" x="94.482422"/>
       <use xlink:href="#ArialMT-74" x="150.097656"/>
       <use xlink:href="#ArialMT-69" x="177.880859"/>
       <use xlink:href="#ArialMT-63" x="200.097656"/>
       <use xlink:href="#ArialMT-20" x="250.097656"/>
       <use xlink:href="#ArialMT-45" x="277.880859"/>
       <use xlink:href="#ArialMT-41" x="344.580078"/>
      </g>
     </g>
    </g>
    <g id="ytick_6">
     <g id="line2d_57">
      <path d="M 69.214062 349.389375 
L 357.214063 349.389375 
" clip-path="url(#p99291bf967)" style="fill: none; stroke: #ffffff; stroke-width: 0.8; stroke-linecap: round"/>
     </g>
     <g id="text_38">
      <!-- Dynamic EA -->
      <g style="fill: #262626" transform="translate(7.2 352.968281)scale(0.1 -0.1)">
       <use xlink:href="#ArialMT-44"/>
       <use xlink:href="#ArialMT-79" x="72.216797"/>
       <use xlink:href="#ArialMT-6e" x="122.216797"/>
       <use xlink:href="#ArialMT-61" x="177.832031"/>
       <use xlink:href="#ArialMT-6d" x="233.447266"/>
       <use xlink:href="#ArialMT-69" x="316.748047"/>
       <use xlink:href="#ArialMT-63" x="338.964844"/>
       <use xlink:href="#ArialMT-20" x="388.964844"/>
       <use xlink:href="#ArialMT-45" x="416.748047"/>
       <use xlink:href="#ArialMT-41" x="483.447266"/>
      </g>
     </g>
    </g>
   </g>
   <g id="patch_17">
    <path d="M 170.374063 403.569375 
L 170.374063 396.009375 
L 226.534063 396.009375 
L 226.534063 403.569375 
L 170.374063 403.569375 
z
" clip-path="url(#p99291bf967)" style="fill: #add8e6; stroke: #000000; stroke-linejoin: miter"/>
   </g>
   <g id="line2d_58">
    <path d="M 170.374063 399.789375 
L 141.214063 399.789375 
" clip-path="url(#p99291bf967)" style="fill: none; stroke: #000000; stroke-linecap: round"/>
   </g>
   <g id="line2d_59">
    <path d="M 226.534063 399.789375 
L 237.334063 399.789375 
" clip-path="url(#p99291bf967)" style="fill: none; stroke: #000000; stroke-linecap: round"/>
   </g>
   <g id="line2d_60">
    <path d="M 141.214063 401.679375 
L 141.214063 397.899375 
" clip-path="url(#p99291bf967)" style="fill: none; stroke: #000000; stroke-linecap: round"/>
   </g>
   <g id="line2d_61">
    <path d="M 237.334063 401.679375 
L 237.334063 397.899375 
" clip-path="url(#p99291bf967)" style="fill: none; stroke: #000000; stroke-linecap: round"/>
   </g>
   <g id="line2d_62"/>
   <g id="patch_18">
    <path d="M 182.254063 353.169375 
L 182.254063 345.609375 
L 228.154063 345.609375 
L 228.154063 353.169375 
L 182.254063 353.169375 
z
" clip-path="url(#p99291bf967)" style="fill: #ffc0cb; stroke: #000000; stroke-linejoin: miter"/>
   </g>
   <g id="line2d_63">
    <path d="M 182.254063 349.389375 
L 141.214063 349.389375 
" clip-path="url(#p99291bf967)" style="fill: none; stroke: #000000; stroke-linecap: round"/>
   </g>
   <g id="line2d_64">
    <path d="M 228.154063 349.389375 
L 250.294063 349.389375 
" clip-path="url(#p99291bf967)" style="fill: none; stroke: #000000; stroke-linecap: round"/>
   </g>
   <g id="line2d_65">
    <path d="M 141.214063 351.279375 
L 141.214063 347.499375 
" clip-path="url(#p99291bf967)" style="fill: none; stroke: #000000; stroke-linecap: round"/>
   </g>
   <g id="line2d_66">
    <path d="M 250.294063 351.279375 
L 250.294063 347.499375 
" clip-path="url(#p99291bf967)" style="fill: none; stroke: #000000; stroke-linecap: round"/>
   </g>
   <g id="line2d_67"/>
   <g id="line2d_68">
    <path d="M 211.414063 403.569375 
L 211.414063 396.009375 
" clip-path="url(#p99291bf967)" style="fill: none; stroke: #ff7f0e; stroke-linecap: round"/>
   </g>
   <g id="line2d_69">
    <path d="M 215.194063 353.169375 
L 215.194063 345.609375 
" clip-path="url(#p99291bf967)" style="fill: none; stroke: #ff7f0e; stroke-linecap: round"/>
   </g>
   <g id="patch_19">
    <path d="M 69.214062 424.989375 
L 69.214062 324.189375 
" style="fill: none; stroke: #ffffff; stroke-width: 0.8; stroke-linejoin: miter; stroke-linecap: square"/>
   </g>
   <g id="patch_20">
    <path d="M 357.214063 424.989375 
L 357.214063 324.189375 
" style="fill: none; stroke: #ffffff; stroke-width: 0.8; stroke-linejoin: miter; stroke-linecap: square"/>
   </g>
   <g id="patch_21">
    <path d="M 69.214063 424.989375 
L 357.214063 424.989375 
" style="fill: none; stroke: #ffffff; stroke-width: 0.8; stroke-linejoin: miter; stroke-linecap: square"/>
   </g>
   <g id="patch_22">
    <path d="M 69.214063 324.189375 
L 357.214063 324.189375 
" style="fill: none; stroke: #ffffff; stroke-width: 0.8; stroke-linejoin: miter; stroke-linecap: square"/>
   </g>
   <g id="text_39">
    <!-- enemy: Crashman -->
    <g style="fill: #262626" transform="translate(164.197812 318.189375)scale(0.12 -0.12)">
     <defs>
      <path id="ArialMT-43" d="M 3763 1606 
L 4369 1453 
Q 4178 706 3683 314 
Q 3188 -78 2472 -78 
Q 1731 -78 1267 223 
Q 803 525 561 1097 
Q 319 1669 319 2325 
Q 319 3041 592 3573 
Q 866 4106 1370 4382 
Q 1875 4659 2481 4659 
Q 3169 4659 3637 4309 
Q 4106 3959 4291 3325 
L 3694 3184 
Q 3534 3684 3231 3912 
Q 2928 4141 2469 4141 
Q 1941 4141 1586 3887 
Q 1231 3634 1087 3207 
Q 944 2781 944 2328 
Q 944 1744 1114 1308 
Q 1284 872 1643 656 
Q 2003 441 2422 441 
Q 2931 441 3284 734 
Q 3638 1028 3763 1606 
z
" transform="scale(0.015625)"/>
      <path id="ArialMT-73" d="M 197 991 
L 753 1078 
Q 800 744 1014 566 
Q 1228 388 1613 388 
Q 2000 388 2187 545 
Q 2375 703 2375 916 
Q 2375 1106 2209 1216 
Q 2094 1291 1634 1406 
Q 1016 1563 777 1677 
Q 538 1791 414 1992 
Q 291 2194 291 2438 
Q 291 2659 392 2848 
Q 494 3038 669 3163 
Q 800 3259 1026 3326 
Q 1253 3394 1513 3394 
Q 1903 3394 2198 3281 
Q 2494 3169 2634 2976 
Q 2775 2784 2828 2463 
L 2278 2388 
Q 2241 2644 2061 2787 
Q 1881 2931 1553 2931 
Q 1166 2931 1000 2803 
Q 834 2675 834 2503 
Q 834 2394 903 2306 
Q 972 2216 1119 2156 
Q 1203 2125 1616 2013 
Q 2213 1853 2448 1751 
Q 2684 1650 2818 1456 
Q 2953 1263 2953 975 
Q 2953 694 2789 445 
Q 2625 197 2315 61 
Q 2006 -75 1616 -75 
Q 969 -75 630 194 
Q 291 463 197 991 
z
" transform="scale(0.015625)"/>
      <path id="ArialMT-68" d="M 422 0 
L 422 4581 
L 984 4581 
L 984 2938 
Q 1378 3394 1978 3394 
Q 2347 3394 2619 3248 
Q 2891 3103 3008 2847 
Q 3125 2591 3125 2103 
L 3125 0 
L 2563 0 
L 2563 2103 
Q 2563 2525 2380 2717 
Q 2197 2909 1863 2909 
Q 1613 2909 1392 2779 
Q 1172 2650 1078 2428 
Q 984 2206 984 1816 
L 984 0 
L 422 0 
z
" transform="scale(0.015625)"/>
     </defs>
     <use xlink:href="#ArialMT-65"/>
     <use xlink:href="#ArialMT-6e" x="55.615234"/>
     <use xlink:href="#ArialMT-65" x="111.230469"/>
     <use xlink:href="#ArialMT-6d" x="166.845703"/>
     <use xlink:href="#ArialMT-79" x="250.146484"/>
     <use xlink:href="#ArialMT-3a" x="300.146484"/>
     <use xlink:href="#ArialMT-20" x="327.929688"/>
     <use xlink:href="#ArialMT-43" x="355.712891"/>
     <use xlink:href="#ArialMT-72" x="427.929688"/>
     <use xlink:href="#ArialMT-61" x="461.230469"/>
     <use xlink:href="#ArialMT-73" x="516.845703"/>
     <use xlink:href="#ArialMT-68" x="566.845703"/>
     <use xlink:href="#ArialMT-6d" x="622.460938"/>
     <use xlink:href="#ArialMT-61" x="705.761719"/>
     <use xlink:href="#ArialMT-6e" x="761.376953"/>
    </g>
   </g>
  </g>
 </g>
 <defs>
  <clipPath id="p02dbba832d">
   <rect x="69.214062" y="21.789375" width="288" height="100.8"/>
  </clipPath>
  <clipPath id="p4c3824c16c">
   <rect x="69.214062" y="172.989375" width="288" height="100.8"/>
  </clipPath>
  <clipPath id="p99291bf967">
   <rect x="69.214062" y="324.189375" width="288" height="100.8"/>
  </clipPath>
 </defs>
</svg>
